<?xml version="1.0" encoding="UTF-8"?>
<svg id="Layer_1" xmlns="http://www.w3.org/2000/svg" version="1.1" xmlns:xlink="http://www.w3.org/1999/xlink" viewBox="0 0 512 512">
  <!-- Generator: Adobe Illustrator 29.2.1, SVG Export Plug-In . SVG Version: 2.1.0 Build 116)  -->
  <defs>
    <style>
      .st0 {
        fill: #f8d25a;
      }

      .st1 {
        fill: #f8d368;
      }

      .st2 {
        fill: #f8d369;
      }

      .st3 {
        fill: #f7d14d;
      }

      .st4 {
        fill: #f8d36c;
      }

      .st5 {
        fill: #f8d684;
      }

      .st6 {
        fill: #f7d253;
      }

      .st7 {
        fill: #f8d476;
      }

      .st8 {
        fill: #f8d471;
      }

      .st9 {
        fill: #f7d252;
      }

      .st10 {
        fill: #f8d46f;
      }

      .st11 {
        fill: #a30c00;
      }

      .st12 {
        fill: #f8d57a;
      }

      .st13 {
        fill: #f8d790;
      }

      .st14 {
        fill: #f7d14f;
      }

      .st15 {
        fill: #f8d473;
      }

      .st16 {
        fill: #f8d367;
      }

      .st17 {
        fill: #f8d581;
      }

      .st18 {
        fill: #f8d25d;
      }

      .st19 {
        fill: #f8d36b;
      }

      .st20 {
        fill: #f8d68b;
      }

      .st21 {
        fill: #f8d36a;
      }

      .st22 {
        fill: #f8d366;
      }

      .st23 {
        fill: #f8d57e;
      }

      .st24 {
        fill: #f8d78c;
      }

      .st25 {
        fill: #f8d475;
      }

      .st26 {
        fill: #f7d150;
      }

      .st27 {
        fill: #c61234;
      }

      .st27, .st28 {
        fill-rule: evenodd;
      }

      .st29 {
        fill: none;
      }

      .st30 {
        fill: #f8d363;
      }

      .st31 {
        fill: #f8d25b;
      }

      .st32 {
        fill: #f8d57f;
      }

      .st33 {
        fill: #f8d78d;
      }

      .st34 {
        fill: #f8d364;
      }

      .st35 {
        fill: #f8d685;
      }

      .st36 {
        fill: #f8d78e;
      }

      .st37 {
        fill: #f8d578;
      }

      .st38 {
        fill: #f8d36d;
      }

      .st39 {
        fill: #f8d25c;
      }

      .st40 {
        fill: #f7d255;
      }

      .st41 {
        fill: #f8d365;
      }

      .st42 {
        fill: #f8d688;
      }

      .st43 {
        fill: #f8d261;
      }

      .st44 {
        fill: #f7d258;
      }

      .st45 {
        fill: #f1a13a;
      }

      .st46 {
        fill: #f8d57c;
      }

      .st47 {
        fill: #f8d25e;
      }

      .st48 {
        fill: #f8d36e;
      }

      .st49 {
        fill: #f8d78f;
      }

      .st50 {
        fill: #f8d362;
      }

      .st51 {
        fill: #f7d251;
      }

      .st52 {
        fill: #f7d14e;
      }

      .st53 {
        fill: #f8d582;
      }

      .st54 {
        fill: #f8d683;
      }

      .st55 {
        fill: #f8d689;
      }

      .st56 {
        fill: #f8d57b;
      }

      .st57 {
        fill: #f8d25f;
      }

      .st58 {
        fill: #f8d580;
      }

      .st59 {
        fill: #f8d477;
      }

      .st60 {
        fill: #f8d687;
      }

      .st28 {
        fill: url(#radial-gradient);
      }

      .st61 {
        fill: #f8d68a;
      }

      .st62 {
        fill: #f7d256;
      }

      .st63 {
        fill: #f8d472;
      }

      .st64 {
        fill: #f8d579;
      }

      .st65 {
        clip-path: url(#clippath);
      }

      .st66 {
        fill: #f8d260;
      }

      .st67 {
        fill: #f8d474;
      }

      .st68 {
        fill: #f7d257;
      }

      .st69 {
        fill: #f8d470;
      }

      .st70 {
        fill: #f8d686;
      }

      .st71 {
        fill: #f7d254;
      }
    </style>
    <radialGradient id="radial-gradient" cx="-2.1" cy="-7297.7" fx="-2.1" fy="-7297.7" r="80.1" gradientTransform="translate(391.2 7648.6) scale(1.2)" gradientUnits="userSpaceOnUse">
      <stop offset="0" stop-color="#fff"/>
      <stop offset="0" stop-color="#faecef"/>
      <stop offset=".3" stop-color="#e8a0ad"/>
      <stop offset=".6" stop-color="#d96379"/>
      <stop offset=".8" stop-color="#ce3753"/>
      <stop offset=".9" stop-color="#c81c3c"/>
      <stop offset="1" stop-color="#c61234"/>
    </radialGradient>
    <clipPath id="clippath">
      <path class="st29" d="M202.2,278.2c0,29.4,23.8,53.2,53.2,53.2s53.2-23.8,53.2-53.2c0-29.4-23.8-53.2-53.2-53.2-29.4,0-53.2,23.8-53.2,53.2h0s0,0,0,0Z"/>
    </clipPath>
  </defs>
  <path class="st28" d="M242.7,71l-83.1,49c-21.4,8.7-17,32.3-17,32.3h0l-.4,178.3,44.5-25.4c-23.2-87.4,55.9-102.3,55.9-102.3h0v-70c1.3-21.8,17-8.3,17-8.3h0l109.9,62.9-.6-34.1c.6-28.4-16.2-32.8-16.2-32.8h0l-84.4-49.8c-3.6-2.8-8.1-4.4-12.7-4.5-4.7,0-9.3,1.6-13.1,4.5h0Z"/>
  <path class="st11" d="M136.9,339.8l.4-187c-1.6-9.8.6-29.4,20-37.5l82.4-48.6c9.4-7,22.3-7,31.7,0l83.6,49.4c4,1.4,19.9,9,19.3,37.7l.8,43.2-118.8-68.2c-2.1-1.8-5.3-3.2-6.2-2.8,0,0-1.7,1-2,7.4v74l-4.3.8c-.3,0-30.5,6.1-46.2,31.1-10.6,16.8-12.4,38.6-5.6,64.6l1.1,3.9-56.1,31.9ZM255.6,71.9c-3.5,0-6.9,1.2-9.7,3.3l-.5.4-83.8,49.3c-17.2,7-14,25.7-13.8,26.5v1c0,0-.3,169.2-.3,169.2l33.1-18.8c-6.5-27.3-3.8-50.5,7.9-69.1,14.6-23.1,39-32,48.9-34.8v-65.8c.5-9.2,3.4-14.7,8.5-16.9,7.1-3,14.8,2.5,16.9,4.2l101.4,58.1-.4-24.8c.5-23.6-11.8-27.6-12.3-27.8l-1.3-.5-84.9-50.2c-2.8-2.1-6.2-3.3-9.7-3.3Z"/>
  <path class="st27" d="M265.4,153.5l156,90.3s22.9,8.1,19.9,31l1.7,96.1c1.4,9.5-3.9,18.6-12.8,22.2l-85.5,47.4s-12.1,12.2-36.7-2.6l-30.2-16.7,109.6-62.8s19.7-6.7,1.2-18.9l-61.2-35.3s26.2-75.6-61.8-99.8v-51.1Z"/>
  <path class="st11" d="M330.5,450.6c-6.6,0-15.1-2-25.3-8.1l-38.2-21.1,118.7-67.9c2.8-1,5.4-3,5.5-3.9,0-.4-.8-2.4-5.5-5.5l-64.8-37.3,1.4-4.1c.1-.3,9.7-29-4.1-55-9.5-17.9-27.6-30.6-54.1-37.9l-3.9-1.1-.2-64.4,163.6,94.7c9.3,3.5,25.4,15.3,22.9,36.1l1.7,95.5c1.6,11.6-4.9,22.9-15.8,27.4l-84.7,47c-1.9,1.6-7.8,5.6-17.3,5.6ZM288.6,421.1l21.9,12.1c20.5,12.4,30.1,3.9,30.5,3.5l1.1-.8,86.1-47.7c6.6-2.6,10.5-9.5,9.5-16.5v-.7c0,0-1.8-96.6-1.8-96.6v-.4c2.5-18.2-15.6-25-16.3-25.3l-.9-.4-148-85.7v37.9c27.5,8.3,46.6,22.4,56.9,42.2,12.7,24.1,8.4,49.2,5.9,59.1l57.6,33.2c7.8,5.1,11.2,10.4,10.5,15.9-1,7.6-9.6,11.4-12.1,12.4l-101,57.9Z"/>
  <path class="st27" d="M359.2,349.4l-156.9,88.6s-18.6,15.5-36.8,1.4l-83.7-47.3c-8.8-3.6-14.1-12.8-12.6-22.3l2.5-97.7s-4.4-16.7,20.9-30.3l29.7-17.5-1.5,126.3s-4.2,20.3,15.6,10.6l61.5-34.9s51.8,60.9,117.3-2.7l44.1,25.7Z"/>
  <path class="st11" d="M182.1,450.7c-7.1,0-14-2.4-19.6-6.8l-83.1-47c-10.8-4.6-17.2-15.8-15.6-27.5l2.4-96.8c-.7-4.2-1.8-21.6,23.7-35.4l37.6-22.2-1.7,136.7c-.6,2.9-.2,6.1.5,6.7.3.2,2.4.6,7.6-2l65-36.9,2.9,3.3c.2.2,20.1,23,49.5,24.4,20.2.9,40.4-8.3,60.1-27.4l2.9-2.8,55.5,32.4-164.6,93c-6.6,5.2-14.8,8.1-23.2,8.2ZM116.7,233.8l-21.6,12.7c-21.1,11.4-18.5,24-18.4,24.5l.2,1.4-2.5,98.4c-1.1,7,2.8,13.9,9.4,16.5l.6.3,84.4,47.7c14.5,11.3,29.5-.8,30.1-1.3l.8-.5,148.9-84.1-32.7-19c-21,19.4-43,28.6-65.2,27.6-27.2-1.3-46.7-17.7-53.9-24.8l-57.9,32.8c-8.3,4.1-14.6,4.4-19,1-6.1-4.7-5-14.1-4.5-16.7l1.3-116.4Z"/>
  <g class="st65">
    <g>
      <polygon class="st13" points="293.8 331.4 308.6 317.1 308.6 331.4 293.8 331.4"/>
      <polygon class="st13" points="291.3 331.4 308.6 314.6 308.6 317.1 293.8 331.4 291.3 331.4"/>
      <polygon class="st49" points="288.7 331.4 308.6 312.1 308.6 314.6 291.3 331.4 288.7 331.4"/>
      <polygon class="st36" points="286.1 331.4 308.6 309.7 308.6 312.1 288.7 331.4 286.1 331.4"/>
      <polygon class="st33" points="283.5 331.4 308.6 307.2 308.6 309.7 286.1 331.4 283.5 331.4"/>
      <polygon class="st24" points="281 331.4 308.6 304.7 308.6 307.2 283.5 331.4 281 331.4"/>
      <polygon class="st20" points="278.4 331.4 308.6 302.2 308.6 304.7 281 331.4 278.4 331.4"/>
      <polygon class="st61" points="275.8 331.4 308.6 299.7 308.6 302.2 278.4 331.4 275.8 331.4"/>
      <polygon class="st55" points="273.2 331.4 308.6 297.2 308.6 299.7 275.8 331.4 273.2 331.4"/>
      <polygon class="st42" points="270.6 331.4 308.6 294.7 308.6 297.2 273.2 331.4 270.6 331.4"/>
      <polygon class="st60" points="268.1 331.4 308.6 292.2 308.6 294.7 270.6 331.4 268.1 331.4"/>
      <polygon class="st70" points="265.5 331.4 308.6 289.7 308.6 292.2 268.1 331.4 265.5 331.4"/>
      <polygon class="st35" points="262.9 331.4 308.6 287.2 308.6 289.7 265.5 331.4 262.9 331.4"/>
      <polygon class="st5" points="260.3 331.4 308.6 284.8 308.6 287.2 262.9 331.4 260.3 331.4"/>
      <polygon class="st54" points="257.8 331.4 308.6 282.3 308.6 284.8 260.3 331.4 257.8 331.4"/>
      <polygon class="st53" points="255.2 331.4 308.6 279.8 308.6 282.3 257.8 331.4 255.2 331.4"/>
      <polygon class="st17" points="252.6 331.4 308.6 277.3 308.6 279.8 255.2 331.4 252.6 331.4"/>
      <polygon class="st58" points="250 331.4 308.6 274.8 308.6 277.3 252.6 331.4 250 331.4"/>
      <polygon class="st32" points="247.5 331.4 308.6 272.3 308.6 274.8 250 331.4 247.5 331.4"/>
      <polygon class="st23" points="244.9 331.4 308.6 269.8 308.6 272.3 247.5 331.4 244.9 331.4"/>
      <polygon class="st46" points="242.3 331.4 308.6 267.3 308.6 269.8 244.9 331.4 242.3 331.4"/>
      <polygon class="st56" points="239.7 331.4 308.6 264.8 308.6 267.3 242.3 331.4 239.7 331.4"/>
      <polygon class="st12" points="237.1 331.4 308.6 262.3 308.6 264.8 239.7 331.4 237.1 331.4"/>
      <polygon class="st64" points="234.6 331.4 308.6 259.8 308.6 262.3 237.1 331.4 234.6 331.4"/>
      <polygon class="st37" points="232 331.4 308.6 257.4 308.6 259.8 234.6 331.4 232 331.4"/>
      <polygon class="st59" points="229.4 331.4 308.6 254.9 308.6 257.4 232 331.4 229.4 331.4"/>
      <polygon class="st7" points="226.8 331.4 308.6 252.4 308.6 254.9 229.4 331.4 226.8 331.4"/>
      <polygon class="st25" points="224.2 331.4 308.6 249.9 308.6 252.4 226.8 331.4 224.2 331.4"/>
      <polygon class="st67" points="221.7 331.4 308.6 247.4 308.6 249.9 224.2 331.4 221.7 331.4"/>
      <polygon class="st15" points="219.1 331.4 308.6 244.9 308.6 247.4 221.7 331.4 219.1 331.4"/>
      <polygon class="st63" points="216.5 331.4 308.6 242.4 308.6 244.9 219.1 331.4 216.5 331.4"/>
      <polygon class="st8" points="213.9 331.4 308.6 239.9 308.6 242.4 216.5 331.4 213.9 331.4"/>
      <polygon class="st69" points="211.4 331.4 308.6 237.4 308.6 239.9 213.9 331.4 211.4 331.4"/>
      <polygon class="st10" points="208.8 331.4 308.6 234.9 308.6 237.4 211.4 331.4 208.8 331.4"/>
      <polygon class="st48" points="206.2 331.4 308.6 232.4 308.6 234.9 208.8 331.4 206.2 331.4"/>
      <polygon class="st38" points="203.6 331.4 308.6 230 308.6 232.4 206.2 331.4 203.6 331.4"/>
      <polygon class="st4" points="202.2 330.3 308.6 227.5 308.6 230 203.6 331.4 202.2 331.4 202.2 330.3"/>
      <polygon class="st19" points="202.2 327.8 308.6 225 308.6 227.5 202.2 330.3 202.2 327.8"/>
      <polygon class="st21" points="202.2 325.3 306 225 308.6 225 308.6 225 202.2 327.8 202.2 325.3"/>
      <polygon class="st21" points="202.2 321.7 302.3 225 306 225 202.2 325.3 202.2 321.7"/>
      <polygon class="st2" points="202.2 318.2 298.6 225 302.3 225 202.2 321.7 202.2 318.2"/>
      <polygon class="st1" points="202.2 314.6 295 225 298.6 225 202.2 318.2 202.2 314.6"/>
      <polygon class="st16" points="202.2 311 291.3 225 295 225 202.2 314.6 202.2 311"/>
      <polygon class="st22" points="202.2 307.5 287.6 225 291.3 225 202.2 311 202.2 307.5"/>
      <polygon class="st41" points="202.2 303.9 283.9 225 287.6 225 202.2 307.5 202.2 303.9"/>
      <polygon class="st34" points="202.2 300.3 280.2 225 283.9 225 202.2 303.9 202.2 300.3"/>
      <polygon class="st30" points="202.2 296.8 276.5 225 280.2 225 202.2 300.3 202.2 296.8"/>
      <polygon class="st50" points="202.2 293.2 272.8 225 276.5 225 202.2 296.8 202.2 293.2"/>
      <polygon class="st43" points="202.2 289.6 269.1 225 272.8 225 202.2 293.2 202.2 289.6"/>
      <polygon class="st66" points="202.2 286 265.4 225 269.1 225 202.2 289.6 202.2 286"/>
      <polygon class="st57" points="202.2 282.5 261.7 225 265.4 225 202.2 286 202.2 282.5"/>
      <polygon class="st47" points="202.2 278.9 258 225 261.7 225 202.2 282.5 202.2 278.9"/>
      <polygon class="st18" points="202.2 275.3 254.3 225 258 225 202.2 278.9 202.2 275.3"/>
      <polygon class="st39" points="202.2 271.8 250.6 225 254.3 225 202.2 275.3 202.2 271.8"/>
      <polygon class="st31" points="202.2 268.2 247 225 250.6 225 202.2 271.8 202.2 268.2"/>
      <polygon class="st0" points="202.2 264.6 243.3 225 247 225 202.2 268.2 202.2 264.6"/>
      <polygon class="st44" points="202.2 261.1 239.6 225 243.3 225 202.2 264.6 202.2 261.1"/>
      <polygon class="st68" points="202.2 257.5 235.9 225 239.6 225 202.2 261.1 202.2 257.5"/>
      <polygon class="st62" points="202.2 253.9 232.2 225 235.9 225 202.2 257.5 202.2 253.9"/>
      <polygon class="st40" points="202.2 250.4 228.5 225 232.2 225 202.2 253.9 202.2 250.4"/>
      <polygon class="st71" points="202.2 246.8 224.8 225 228.5 225 202.2 250.4 202.2 246.8"/>
      <polygon class="st6" points="202.2 243.2 221.1 225 224.8 225 202.2 246.8 202.2 243.2"/>
      <polygon class="st9" points="202.2 239.7 217.4 225 221.1 225 202.2 243.2 202.2 239.7"/>
      <polygon class="st51" points="202.2 236.1 213.7 225 217.4 225 202.2 239.7 202.2 236.1"/>
      <polygon class="st26" points="202.2 232.5 210 225 213.7 225 202.2 236.1 202.2 232.5"/>
      <polygon class="st14" points="202.2 229 206.3 225 210 225 202.2 232.5 202.2 229"/>
      <polygon class="st52" points="202.2 225.4 202.6 225 206.3 225 202.2 229 202.2 225.4"/>
      <polygon class="st3" points="202.6 225 202.2 225.4 202.2 225 202.6 225"/>
    </g>
  </g>
  <path class="st45" d="M255.4,337.6c-32.8,0-59.4-26.6-59.4-59.4,0-32.8,26.6-59.4,59.4-59.4,32.8,0,59.4,26.6,59.4,59.4h0c0,32.8-26.6,59.4-59.4,59.4ZM255.4,231.2c-26,0-47,21-47,47s21,47,47,47,47-21,47-47c0-25.9-21.1-47-47-47h0Z"/>
</svg>