<?xml version="1.0" encoding="UTF-8"?>
<svg id="Layer_1" xmlns="http://www.w3.org/2000/svg" version="1.1" viewBox="0 0 512 512">
  <!-- Generator: Adobe Illustrator 29.2.1, SVG Export Plug-In . SVG Version: 2.1.0 Build 116)  -->
  <defs>
    <style>
      .st0 {
        fill: #0a8992;
      }

      .st1 {
        fill: #706f6e;
      }
    </style>
  </defs>
  <path class="st0" d="M252.7,18h5.2c5.5.4,11.4,1.3,16,4.6,18,13.3,36,26.4,53.9,39.7-9.6,33-19.3,66-28.9,98.9-10.5-5-21.8-7.8-33.3-8.5-16.1-1.1-32.6,1.4-47.1,8.5l-39.5-94.7c18.3-14.8,36.7-29.5,55.2-44.3,1.7-1.1,3.6-1.9,5.7-2.3,4.2-1,8.5-1.7,12.8-2M72.4,96.8c22-6.1,44.2-12,66.2-18,19.8,28.1,39.6,56.1,59.4,84.2-11.3,5.6-21.4,13.5-29.5,23.2-10,11.4-17.1,25.1-20.6,39.9-32.9-9.4-65.8-18.6-98.7-28.1,0-23.6,0-47.3-.2-70.9.1-3.1,1.9-5.8,3.1-8.5,4.6-8.9,11-17.6,20.3-21.7M319.1,169.5c18.3-28.9,36.6-57.8,55-86.6,22.7,6.7,45.4,13.4,68.1,20,1.8.7,3.4,1.7,4.7,3.1,6.7,5.9,12.7,13,15.9,21.4,1,2.4,1.6,5,1.6,7.6-.5,22.5-1.1,45-1.6,67.6-32.5,11-65.1,22-97.6,32.9-2.2-13.9-8.2-27.1-16.3-38.5-7.8-11.2-17.9-20.6-29.8-27.4M370,249.7l102-11c8.9,21.8,17.8,43.7,26.7,65.5.9,2.1.5,4.4.5,6.6-.5,9.8-2.7,20-8.7,28-1.8,2.6-4.6,4.1-7,6.1-16.5,12.6-33.2,25.1-49.7,37.8-28.9-18.6-57.8-37.2-86.6-55.8,8.6-9.7,15-21.1,18.8-33.4,4.8-14.1,6.1-29.1,3.9-43.8M15.4,298.3c8.2-19.5,16.4-39.1,24.6-58.6l102.9,4.9c-3.9,17.7-1.6,36.4,4.7,53.3,3.3,9.1,8.1,17.5,14.2,25-27.6,20.2-55.2,40.4-82.8,60.6-18.7-14.5-37.3-28.9-55.9-43.3-1.9-1.4-2.7-3.6-3.8-5.5-4.4-8.8-7.5-18.7-6.4-28.7.5-2.7,1.3-5.3,2.6-7.7M174.1,338.3c8,10.7,18.3,19.5,30,25.8,12.6,7.1,26.6,11.2,41.1,11.9-3.1,34.1-6.3,68.1-9.4,102.1-23.2,4.4-46.4,8.8-69.5,13.2-2.3.4-4.6-.3-6.8-.9-8-2.1-15.9-5.4-22.3-10.9-2.4-1.9-4.3-4.2-5.7-6.9-9.7-20.2-19.5-40.4-29.2-60.6l71.9-73.8M301.8,370.1c13.4-5.7,25.3-14.4,34.8-25.5,25.1,23.2,50.3,46.3,75.4,69.5-6.3,12.8-12.8,25.6-19.2,38.4-4.6,8.8-8.7,17.9-13.5,26.5-6.5,6.2-14.2,10.8-22.8,13.6-4.1,1.1-8.4,2.1-12.6,1.1-21.9-4.5-43.7-9-65.6-13.5-5-34-10-68-15-101.9,13.2.1,26.3-2.6,38.4-8.1h0Z"/>
  <path class="st1" d="M248.4,184.2c42.6-5.1,81.3,25.2,86.4,67.8,5.1,42.6-25.2,81.3-67.8,86.4-42.6,5.1-81.3-25.2-86.4-67.8-3.7-30.4,10.9-60.1,37.1-75.9,9.4-5.6,19.8-9.2,30.7-10.5"/>
</svg>