<?xml version="1.0" encoding="UTF-8"?>
<svg id="Layer_1" xmlns="http://www.w3.org/2000/svg" version="1.1" viewBox="0 0 512 512">
  <!-- Generator: Adobe Illustrator 29.2.1, SVG Export Plug-In . SVG Version: 2.1.0 Build 116)  -->
  <defs>
    <style>
      .st0 {
        fill: #015baa;
      }
    </style>
  </defs>
  <path class="st0" d="M247.5,53.7c13-2,26.5.9,38,6.9,19.4,10.5,32.7,31.7,32.7,53.8,1,26-16.5,51-40.8,59.7-15.9,5.9-33.6,5-48.9-2.4-14.2-7-25.2-19-31-33.7-12.4-32.2,3.7-68.3,35.9-80.7,4.5-1.7,9.3-2.9,14.1-3.6M138.3,147.4c8.6-1.2,17.8-.9,25.9,2.7,14.6,5.9,25.3,18.7,28.4,34,4.6,19.9-6.1,41.8-24.3,50.9-16.2,8.8-37.6,6.4-51.6-5.6-15.2-12.3-21-34.6-13.7-52.7,5.6-15,19.6-26.4,35.3-29.3M358.3,147.2c14-2,28.8,2.4,39,12.2,13.4,12.3,18.5,32.7,12.2,49.8-4.4,12.1-13.5,21.9-25.3,27.2-14.9,6.6-32.2,4.9-45.6-4.3-14.4-9.9-22.5-28.3-19.5-45.6,2.7-19.8,19.6-36.4,39.3-39.2M249,209.6c14.8-2.1,29.7,2.9,40.2,13.5,12.9,12.9,17,33.5,10.1,50.3-6.1,14.8-19.3,25.6-35,28.6-9.5,1.1-19.6.8-28.4-3.6-13.5-6.4-23.2-18.9-26.1-33.6-1.8-10-.6-20.7,4.1-29.8,6.9-13.7,19.9-23.2,35.1-25.5M157.6,271.9c12.6-1.8,25.1,4.1,31.7,15.1,8.2,13.2,4.2,32.1-8.5,41-8.9,6.7-21.5,7.8-31.6,3.3-11.1-5.2-18.1-16.3-18.1-28.6-.4-14.9,11.7-28.8,26.4-30.8M341.6,272.6c15.1-4.4,32.6,4.8,37.4,19.8,5.3,13.9-1.3,30.9-14.5,37.8-11.8,6.7-27.8,4.2-37.2-5.4-7.7-7.9-10.7-19.4-7.9-30.1,2.9-10.8,11.3-19.2,22.1-22.1M246.2,335.5c18.1-6.5,39.6,7.6,40.6,26.8,1.9,15.5-9.8,31-25.2,33.6-16.9,3.2-33.3-7.9-36.5-24.9-1.3-7-.2-14.3,3.2-20.6,3.9-6.9,10.2-12.7,17.9-15M171.5,397.8c8.5-4.1,19.5,1.2,21.6,10.4,2.9,9.5-5.5,19.7-15.3,19.6-7.3-.2-14.2-5.7-15.4-13-1.2-7.1,2.5-14.1,9.1-17M329.1,397.1c8.7-3.2,19.1,3.1,20.3,12.3,2.4,10.5-8.6,20.7-18.9,17.8-7.1-1.6-12.1-7.9-12.1-15.1,0-6.8,4.3-12.8,10.7-14.9M251.8,428.1c6.9-1.9,15,1.4,18,8.1,4.1,7.9,0,18.9-8.7,21.7-9,3.7-20.1-3.1-20.8-12.8-1-7.7,3.9-15,11.5-17"/>
</svg>