<?xml version="1.0" encoding="UTF-8"?>
<svg id="Layer_1" xmlns="http://www.w3.org/2000/svg" version="1.1" viewBox="0 0 512 512">
  <!-- Generator: Adobe Illustrator 29.2.1, SVG Export Plug-In . SVG Version: 2.1.0 Build 116)  -->
  <defs>
    <style>
      .st0 {
        fill: #008a9f;
      }
    </style>
  </defs>
  <path class="st0" d="M325.4,142.1c20.6-11.5,44.8-19.1,68.5-14.9,0,9.6.4,70.2.4,70.2-1.8,1.4-4.2.9-6.3,1.4-16.3,3-31.7,9.7-46.2,17.7-28.5,16.1-53.3,38-75.4,62-27,30.5-55.6,60.3-90,82.7-24,15.6-52.2,26.4-81.2,24.8-23.5-2.2-45.6-12.1-63-28.1-15.3-14.5-24.5-34.3-25.6-55.4-.7-5.4-.8-10.9-.1-16.4,1.6-20.3,7.8-41.1,22-56.3,18.9-20.8,48.1-29.1,75.5-28.7,38.1,1,73.2,19,103,41.5,2.3.8.5,3.2-.3,4.4-4.6,6.9-8.9,14-13.6,20.9-22.4-15.5-47.1-28.8-74.1-33.9-16.2-2.9-33.6-2.6-48.5,5.1-18.6,9.5-30.2,29.5-32.7,49.9-1.3,9,.2,18.2,4.3,26.4,8.5,18,25.4,32.5,45.3,35.6,8.2,1.5,16.6.3,24.7-1.5,15.8-2.7,30.9-8.4,44.5-16.8,14.8-9.1,27.5-21.2,38.8-34.3,17.2-20.1,31.5-42.7,44.7-65.6,21.5-35.7,48.8-69.4,85.3-90.5Z"/>
  <path class="st0" d="M393.9,200c24.4-2,50.3.6,71.4,14,21.6,13.3,35.3,37,39.5,61.7,1.6,6.7.9,13.4.9,20.3-1.8,24.2-11.1,48.7-29.1,65.5-15.5,14.7-36.7,22.2-57.8,24-19.7,1.3-39.2-3.8-57.4-11.1-36.2-15-68.5-38-98-63.6l-.3-1.2c7-7.6,14.3-15,21.6-22.4,3.7,2.4,8.2,6.6,12.4,9.6,21.4,16.5,43.7,32,67.9,44,9.1,4.2,18.4,8.4,28.4,9.7,9.7-.5,19-3.7,26.9-9.3,14.4-10.5,19.3-32,11.4-47.8-7.5-14.2-23.3-20.8-38.1-24.4,0-4.8,0-65.9,0-69.2Z"/>
</svg>