<?xml version="1.0" encoding="UTF-8"?>
<svg id="Layer_1" xmlns="http://www.w3.org/2000/svg" version="1.1" viewBox="0 0 512 512">
  <!-- Generator: Adobe Illustrator 29.2.1, SVG Export Plug-In . SVG Version: 2.1.0 Build 116)  -->
  <defs>
    <style>
      .st0 {
        fill: #004b7f;
      }
    </style>
  </defs>
  <path class="st0" d="M128.3,53.3c48.1-.4,96.1,0,144.1-.2,3.2-.3,6.1,1,9,2.3.5,3,1.8,5.7,3.7,8,12.7,17.4,20.9,37.5,27.8,57.8,12.1,46.7,5.5,99.2-22.1,139.4-3.2,4.9-6,12.2-12.8,12.3-44.3-.3-88.7.2-133-.2,6.1-3.4,13.4-4.2,19.6-7.6,19.8-9.6,37-25.7,46.2-45.9,9.3-16.2,12.3-35.2,13.8-53.6.9-11.2-1.4-22.4-5.3-32.9-6.5-14.9-14.2-29.5-25.2-41.7-17.3-19.1-41.2-31-65.8-37.8M59.7,113.1c32.3,0,64.8.8,97.1-.5,15.6.3,31.2-.9,46.8,0-5.9,3.7-12.6,5.6-18.9,8.6-26.2,13-50.5,32.7-63,59.8-18.3,38.9-8.9,89.1,23.6,117.6,7.3,8.4,16.2,15.2,26.1,20.2,56.4.5,112.8,0,169.2.2h.9c19.5-11.6,36.7-26.7,47.6-46.8,12.8-22.5,15.2-49.9,8.3-74.7-8.1-31-30.9-56.6-58.4-72.3-7.1-3.9-14-8.4-22-10.2l-2.7-2.8c30.1,0,60.2.8,90.3-.5,16.1.3,32.1-.9,48.2-.4,9,11.3,15.5,24.3,23,36.5.7,2.8,1.8,5.6,3.2,8.1,7.7,19.8,12.2,40.8,13.2,62.1.3,32.3-7.6,65-24.4,92.8-.9,2.4-10.6,16.8-14.4,21.9-7.6,1.1-15.2.6-22.8.6-121.7,0-243.5,0-365.2,0-29.8-33.3-47.8-78.1-45.7-123.1.6-22.2,8-43.7,17.9-63.4,6.3-12,13-23.8,22-34M58.5,332h0M207.8,370.1c11-16.5,29.8-26.1,49.6-25.4,7.5-.1,14.5,2.5,21.7,4.2,10,5.7,19.5,12.7,25.3,23,7.7,12.5,10.3,27.4,7.2,41.7-.7,3.3-7.2,19.3-10.9,23.5-10,12.3-24.9,21.9-41.3,21.6-15.2,1.3-31-3.8-42.1-14.4-21.3-17.5-24.7-51.6-9.5-74.2"/>
</svg>