<?xml version="1.0" encoding="UTF-8"?>
<svg id="Layer_1" xmlns="http://www.w3.org/2000/svg" version="1.1" viewBox="0 0 512 512">
  <!-- Generator: Adobe Illustrator 29.2.1, SVG Export Plug-In . SVG Version: 2.1.0 Build 116)  -->
  <defs>
    <style>
      .st0 {
        fill: #006fb8;
      }

      .st1 {
        fill: #02aae8;
      }

      .st2 {
        fill: #7cd0f5;
      }
    </style>
  </defs>
  <path class="st2" d="M249.9,25.2c1.5-1.4,3.7-4.5,5.9-2.6,17.2,20.5,29.9,45,35.1,71.4,4.9-2,9.2-5.2,14-7.3,31.5-15.8,65.3-26.7,99.4-35.3,1.1-.2,2.2-.4,3.4-.5-.6,16-2.5,31.9-5.5,47.5-3.4,19.5-8.9,38.5-16.4,56.9-1.2,2.4-2.1,4.9-2.7,7.6,38.1.8,75.3,11.9,110.1,26.8,0,.2.3.5.4.7-23.9,30.4-49.8,59.7-80.1,83.8-3.7,3.1-7.9,5.8-11.5,9,23.3,19.7,39.7,46.4,50.9,74.5-34.7,14.7-70.8,27.1-108.2,32.7,1.3,10.5,1.6,21.2.8,31.8-1.1,11-3.2,21.8-6.3,32.4-.8,2.4-1.2,5.1-2.6,7.3-20.3-1.8-40.6-4.5-60.4-9.5-6.2-1.5-12.3-3.3-18.3-5.6-1.3-.5-2.7-.8-4.1-.9-5.9,11.9-13.8,22.9-23.2,32.3-4,4-7.8,8.1-12.4,11.4-1.2.6-2.4,0-3.5-.7-14.9-9.7-29.5-20-41.8-32.9-1.6-1.8-3.4-3.5-5.2-5.1-11.9,8.2-25.6,13.4-39.6,16.8-1.6.3-3.3.6-4.9.6-7.2-11.7-13.9-23.9-18.4-37-1.4-3.2-1.7-6.8-3.6-9.7-14,1.4-28.1-.5-41.6-4.5-2.1-12.3-2.1-24.8-1.6-37.2.4-3.1.4-6.3,1.4-9.3,7.3,2.3,15,4.1,22.8,3.7,6.5.3,13-.8,19.5-1.7-2.8,16-4.3,32.8.2,48.7,15.6-1.5,28.9-10.8,41.3-19.5,4.7,16.2,11.4,32,21.8,45.3,1,1.3,2.6,3.2,4.5,2.1,7.7-5.2,13.4-12.8,18.3-20.6,4.5-6.5,7.6-13.8,11-20.9,14.7,14.9,31.7,28,51.1,36,1.3.5,2.8.8,4.2.9,4.1-9.3,6.4-19.3,6.7-29.5.5-10.6,0-21.3-1.8-31.8,27.7,6.7,56.6,11,84.9,6.5-2.5-16.4-10.9-31.1-20.6-44.3-5.1-7.1-11.1-13.5-16.9-20,15.5-4.1,30.6-9.2,45.4-15.3,17.5-7,34.1-16.2,49.3-27.3-8.8-8.5-19.9-14.2-31-19.1-17-6.7-34.7-12.1-52.8-14.6v-1.3c10.4-9.5,20-19.6,29-30.3,11.2-13.2,21.7-27.1,29.8-42.5,2.1-4.1,4.6-8.1,6-12.6-8.8-.3-17.6,0-26.3,1.1-13.4,1.5-26.4,5-39.4,8.5-12.4,3.5-24.6,8-36.6,12.7,5.4-16.5,9.3-33.5,11.6-50.7,1-9.2,1.8-18.4.9-27.6-.4-4.1-.6-8.3-2-12.3-13.3,7.5-25.9,16.4-37.3,26.6-14.2,12.2-27.4,25.4-39.4,39.7-2.8-8.7-5-17.8-9-26.1-5.5-12.6-12.2-25.6-23.8-33.6-8,11.7-14.7,24.1-20.1,37.2-5.6,13-10.2,26.4-13.6,40.2-14-11.1-30.3-21.3-48.7-21.5-2.2,9.6-3.1,19.4-2.6,29.2.3,12.1,1.6,24.1,3.7,36-15.1-.6-31.1.4-44.6,8-1.6.6-1.2,2.6-1,3.9,3.7,14,11.5,26.4,20,37.8.9,1.5,3.3,3,2.1,4.9-12.8,7.3-26,15.7-33.9,28.6,4.9,5.4,10.1,10.4,16.5,13.8,6.3,4,13.3,6.9,20.2,9.7-9.1,12.4-17,26.4-19.3,41.8-9.6-3.7-18.3-9.5-26.3-15.7-3.1-2.3-5.7-5.2-8.9-7.4,3.5-15,9.4-29.3,17.5-42.3-2.7-4.3-6.2-8-8.7-12.4-5.8-9.3-10.7-19.2-14.6-29.5,2.2-3.3,4.8-6.5,7.6-9.4,5.8-6,11.5-12.2,18.3-17,2.7-2,5.6-3.8,8.3-5.8,0-3.6-1.1-7-1.6-10.5-3-16.8-3.2-33.9-2.7-50.9,2-.7,4-1.5,6-2.4,13.7-6.5,28.7-10,43.8-10.5,5.1-27,15.4-52.6,26.2-77.7,13.8,1.3,27.2,5,39.7,10.9,6,3,11.7,6.5,17,10.7,6.9-9.3,13.8-18.8,21.5-27.5,9.4-11.4,19.9-21.7,30.3-32.2,5.6-5.4,11.1-10.9,16.9-15.9h0Z"/>
  <path class="st1" d="M253.1,121.2c11.5-10.2,24-19.2,37.3-26.7,1.4,3.9,1.6,8.2,2,12.3,1,9.2.1,18.5-.9,27.6-2.3,17.2-6.2,34.2-11.6,50.7,12-4.7,24.2-9.2,36.6-12.7,13-3.5,26-7,39.4-8.5,8.7-1.1,17.5-1.5,26.3-1.1-1.4,4.5-3.8,8.5-6,12.6-8,15.4-18.6,29.2-29.8,42.5-9,10.7-18.7,20.8-28.9,30.4v1.3c18,2.5,35.7,7.9,52.7,14.6,11.1,4.9,22.2,10.6,31,19.1-15.3,11.1-31.8,20.3-49.3,27.3-14.8,6.1-29.9,11.2-45.4,15.3,5.8,6.5,11.8,12.9,16.9,20,9.7,13.1,18.1,27.9,20.6,44.3-28.4,4.4-57.2.1-84.9-6.5,1.7,10.5,2.3,21.2,1.8,31.8-.4,10.2-2.7,20.2-6.7,29.5-1.4-.1-2.8-.4-4.2-.9-19.5-8-36.5-21.1-51.1-36-3.5,7.2-6.5,14.5-11.1,20.9-5,7.7-10.6,15.4-18.3,20.6-1.9,1.1-3.4-.8-4.5-2.1-10.4-13.3-17.1-29.2-21.8-45.3-12.5,8.7-25.7,18-41.3,19.5-4.4-15.9-3-32.7-.2-48.7-6.4.9-12.9,1.9-19.5,1.7-7.8.4-15.4-1.3-22.8-3.7v-.2c2.4-15.4,10.3-29.3,19.3-41.8-6.9-2.9-13.8-5.7-20.2-9.7-6.4-3.4-11.7-8.5-16.5-13.8,7.9-12.9,21-21.3,33.9-28.6,1.2-1.9-1.2-3.4-2.1-4.9-8.5-11.5-16.4-23.9-20-37.8-.2-1.3-.7-3.3,1-3.9,13.5-7.6,29.5-8.5,44.6-8-2.2-11.9-3.4-23.9-3.7-36-.5-9.8.4-19.6,2.6-29.2,18.4.2,34.8,10.4,48.8,21.5,3.5-13.7,8-27.2,13.6-40.2,5.4-13.1,12.1-25.5,20.1-37.2,11.6,8,18.3,21,23.8,33.6,4,8.3,6.2,17.3,9,26.1,12.1-14.3,25.3-27.5,39.4-39.7M197.9,181.1c-4.3,6-8.2,12.2-11.8,18.7-3.7,5.6-6.2,11.9-9.4,17.7-3.4-5.7-6-11.9-10-17.2-5.6-8-11.9-15.6-19.7-21.5-5,18.2-7.3,37.1-6.7,56-1.4-.4-2.7-1-3.9-1.7-10.2-5.6-21.3-9.1-32.9-10.4-1.3-.2-2.6-.2-3.9,0,1.6,4.9,2.5,10,4.3,14.9,3.1,9.8,7.4,19.3,12.7,28.1-10.7.7-21.2,3-31.2,6.8-2.7,1.2-5.7,2-8,3.9,6.4,6.8,13,13.4,21,18.4,3.3,2.3,6.9,4,10.2,6.2-11.3,7.5-21.2,16.7-29.5,27.4,1,.6,2.1,1.1,3.2,1.4,7.3,1.9,14.6,3.7,22.2,3.9,4,0,8,0,12,0-2.3,5.3-5.4,10.2-7.4,15.7-2.8,7.5-6.1,15.2-6.8,23.3,10.3-1.8,20.3-5.4,29.4-10.6,2.2-1.5,4.6-2.8,7-3.9-.4,10.7-.3,21.4,1.9,31.9.8,3.8,1.2,7.8,2.8,11.4,3.2-2.7,6.3-5.5,9.2-8.5,7.4-7,13-15.5,18.1-24.3,2.1,2.1,2.9,5,4.4,7.5,6.1,11.2,13.7,21.6,22.6,30.7,1.2,1.2,2-.9,2.3-1.8,4.8-13.8,8.2-28.4,7.7-43.1l.9-.9c15.2,10.3,32.4,17.4,50.1,22.4.2-3.7-1-7.3-1.9-10.9-2.3-9.2-5.6-18.2-9.7-26.7-2-4.3-4.9-8.2-6.8-12.6,22,1.4,44-1.8,65.3-7.1-.2-.8-.7-1.5-1.3-2.1-13.7-13.5-30-24.2-47.8-31.5.5-1.5,2.1-2,3.3-2.7,17.5-9.1,33.9-20.3,48.6-33.5,2.8-2.2,5.8-4.2,7.9-7.1-16-2.6-32.2-3.2-48.4-1.9-6.8.2-13.4,1.8-20.2,2.3,1.4-2.6,2.9-5,4.7-7.3,4.2-6.1,8-12.6,11.2-19.3,4.5-8.1,8.4-16.5,11.7-25.1,1.3-4.1,3.5-7.9,4-12.2-9.4,4-18.6,8.5-27.6,13.4-12.1,6.9-24,14.3-34.5,23.4-.2-3.3,0-6.5.5-9.7,1.1-15.4,0-30.9-3.2-46-.2-1.8-.7-3.5-1.6-5-5.5,6.2-10,13.1-15.1,19.6h0Z"/>
  <path class="st0" d="M198,181.2c5.1-6.5,9.7-13.4,15.1-19.6.9,1.6,1.4,3.3,1.6,5,3.2,15.1,4.3,30.6,3.2,46-.5,3.2-.7,6.5-.5,9.7,10.5-9.2,22.4-16.5,34.5-23.4,9-4.9,18.1-9.4,27.6-13.4-.5,4.3-2.7,8.2-4,12.2-3.3,8.6-7.2,17-11.7,25.1-3.3,6.7-7,13.2-11.2,19.3-1.8,2.3-3.3,4.7-4.7,7.3,6.8-.5,13.4-2,20.2-2.3,16.2-1.3,32.4-.6,48.4,2-2.1,2.9-5.2,4.9-7.9,7.1-14.8,13.1-31.1,24.3-48.6,33.4-1.2.7-2.8,1.2-3.3,2.7,17.9,7.3,34.1,18,47.8,31.5.6.5,1.1,1.3,1.3,2.1-21.3,5.3-43.4,8.5-65.3,7.1,2,4.3,4.8,8.2,6.8,12.6,4.1,8.6,7.4,17.5,9.7,26.7.8,3.6,2.1,7.1,1.9,10.9-17.7-5-34.9-12.1-50.1-22.4l-.9.9c.5,14.7-2.9,29.3-7.7,43.1-.3.9-1.1,3-2.3,1.8-8.9-9.1-16.6-19.4-22.6-30.7-1.4-2.4-2.3-5.4-4.4-7.5-5.1,8.7-10.7,17.3-18.1,24.3-2.9,3-5.9,5.9-9.2,8.5-1.6-3.6-2-7.6-2.8-11.4-2.3-10.5-2.3-21.2-1.9-31.9-2.4,1.2-4.8,2.5-7,3.9-9.1,5.1-19.1,8.7-29.4,10.5.7-8.1,4-15.7,6.8-23.3,2-5.4,5.1-10.4,7.4-15.7-4,0-8,.1-12,0-7.5-.2-14.9-2-22.2-3.9-1.1-.3-2.2-.8-3.2-1.4,8.3-10.6,18.3-19.9,29.6-27.3-3.3-2.3-6.9-4-10.2-6.2-8-4.9-14.6-11.6-21-18.4,2.3-2,5.3-2.7,8-3.9,10-3.8,20.5-6.1,31.2-6.8-5.3-8.8-9.6-18.3-12.8-28.1-1.7-4.9-2.7-10-4.3-14.9,1.3-.2,2.6-.2,3.9,0,11.5,1.3,22.7,4.8,32.9,10.4,1.2.7,2.6,1.3,3.9,1.7-.6-18.9,1.6-37.8,6.7-56,7.8,6,14,13.6,19.7,21.5,4,5.3,6.6,11.5,10,17.2,3.3-5.9,5.8-12.2,9.4-17.7,3.6-6.4,7.5-12.7,11.8-18.7M176.7,219.2c-6,13.1-9.8,27.1-11.2,41.5-4.9-7.7-11.1-14.5-18.3-20.1-2.1-1.4-3.9-3.4-6.4-4.1.4,10.6,2.6,21.1,6.5,31,.6,1.7,1.4,3.3,2.4,4.7l-2-.3c-9.5-4.2-19.9-6.1-30.3-5.6,5.6,8.9,12.9,17,21.9,22.7l.4,1.1c-10.8,1.5-21.1,5.3-30.3,11.1,9.6,4.3,19.9,7.2,30.5,7.1-.4.5-.8,1-1.3,1.4-8.4,6.5-15.6,14.5-21.1,23.6,11-.9,21.6-4.2,31.2-9.6-5.4,10.3-8.6,21.7-9.4,33.3,9.6-6.4,17.8-14.7,24-24.5.4,11.8,2.9,23.5,7.6,34.4l1-.6c5.1-10.7,9-22.1,9.8-34,6.6,10.8,15.4,20.1,25.9,27.2,0-12.7-2.9-25.2-8.3-36.7,12.5,5.9,26.1,9.3,40,10-7.4-11.3-17.2-20.8-28.8-27.8,15.1-1.3,29.8-6.1,43.4-12.6,0-.2,0-.5.1-.7-13.4-5.3-27.8-7.8-42.2-7.5,13.6-8.9,24.8-21.1,34.8-33.8-12.6,2.2-24.7,6.2-36.1,12-2.8,1.2-5.2,3.2-8.1,4.2,7.3-13.4,12-28.1,13.9-43.3-12.2,9.9-22.7,21.7-31,35-.4-13.4-2.9-26.9-8.5-39.2h0Z"/>
</svg>