<svg xmlns="http://www.w3.org/2000/svg" viewBox="0 0 512 512"><path d="M209.3,5.39A231.06,231.06,0,0,1,258.69,0c13.67.61,27.37,1.81,40.78,4.7,11.08,2.43,22.17,5,32.91,8.7,9.85,3.25,19.26,7.64,28.6,12.1a255,255,0,0,1,41.68,27.8,211,211,0,0,1,37.57,39.86c6.08,8.4,12.08,16.94,16.92,26.14a209.64,209.64,0,0,1,21,56,227.37,227.37,0,0,1,6.64,55.35,235.14,235.14,0,0,1-6.34,46,210.78,210.78,0,0,1-17.57,50.1c-8,16.09-18.33,31-29.7,44.83,3,2.23,6.33,4.12,8.69,7.08,3.77,4.89,7.63,10.06,8.84,16.26.39,2.59,1.82,5.2,1,7.85s-1,5.54-2.34,8c-10.5,19.41-19.19,39.71-28.75,59.58a101.25,101.25,0,0,1-13.78,22.34c-2.34,2.68-5.41,4.59-8.32,6.59-10.3,5.33-21.69,8-33,10.33-5.92.94-12.05,2.08-18,.54-6.84-1.71-14.17-2.64-20.09-6.78-3.06-2.25-6.43-4.24-8.73-7.33-2.05-2.82-4.29-5.55-5.65-8.79A162.47,162.47,0,0,0,291.87,481a146.74,146.74,0,0,0-60.66,0A173.85,173.85,0,0,0,208,488.73a86.78,86.78,0,0,1-5.67,8.25c-2.57,3.43-6.25,5.72-9.68,8.19a27.45,27.45,0,0,1-10.18,4.16c-6.29,1.39-12.7,3.44-19.2,2.37a166.85,166.85,0,0,1-26.11-5.81c-4.21-1.54-8.8-2.52-12.38-5.37a69.27,69.27,0,0,1-9.18-7.55c-4.86-5.6-7.88-12.44-11.6-18.79Q87.71,445.1,71.43,416c-1.18-2.5-1.45-5.3-2.19-7.94-.64-2.13,0-4.3.52-6.37.82-3.28,1.4-6.66,2.78-9.77,1.5-3.59,4-6.6,6.25-9.72a26.06,26.06,0,0,1,6.44-5.67A235.56,235.56,0,0,1,68.33,355a208.5,208.5,0,0,1-34.21-76.23A210.3,210.3,0,0,1,27.81,238c-1.32-11.67-.08-23.42,1-35.06,1.26-12.08,4-23.93,7-35.7a207.44,207.44,0,0,1,23.95-56.4c9.64-15.38,20.59-30,33.43-42.89,11.25-11.47,24.06-21.3,37.34-30.28a212.37,212.37,0,0,1,55.81-26.42c7.54-2.34,15.25-4.07,22.93-5.85m28.79,4.67a231.58,231.58,0,0,0-46.5,9,211.74,211.74,0,0,0-55.88,26.06A224.19,224.19,0,0,0,96,78.15a227.88,227.88,0,0,0-30.83,41.4,208,208,0,0,0-22.62,57.66,206.28,206.28,0,0,0-5.11,30.94c-.8,9.77-1.69,19.63-.54,29.4a221.44,221.44,0,0,0,8.58,49.66c10,35,29.66,66.84,55.28,92.51-3.82.71-7.64,1.9-10.69,4.41-7,5-11.06,13.48-12,21.94a16.16,16.16,0,0,0,2.35,7.4q18.52,33.11,37,66.21a28,28,0,0,0,6.33,8.56c2.69,2.27,5.33,4.73,8.5,6.32a126,126,0,0,0,32.92,8.29c5.6.39,11.09-1.12,16.46-2.48,8.54-2.69,15.4-9.48,19.08-17.54.36-1.4,1.89-1.64,3-2.16,10.72-4.3,21.77-8,33.2-9.86a146.33,146.33,0,0,1,58.54,1.87,172.65,172.65,0,0,1,23,7.68c1.94,8,8.49,14.18,15.86,17.41,3.9,1.67,8.09,2.47,12.22,3.39,5.07,1.18,10.29.28,15.35-.46a114,114,0,0,0,29.45-9,25.42,25.42,0,0,0,8.64-7.42,96.11,96.11,0,0,0,10.19-17.35c8.9-18.46,17-37.29,26.52-55.46,1.68-3.39,4.05-6.62,4.24-10.53a27,27,0,0,0-2.39-8c-3-6.24-7.71-11.94-14.17-14.74a40.29,40.29,0,0,0-9.63-2.08,220.76,220.76,0,0,0,45.75-70.94,231.62,231.62,0,0,0,12.82-48.87c1.26-8,1.65-16,2.35-24a225.24,225.24,0,0,0-6-54.38A208.08,208.08,0,0,0,449,123.33a107.84,107.84,0,0,0-6.13-10.43A221.85,221.85,0,0,0,404,66.34,228.26,228.26,0,0,0,362.1,36.52c-3.18-2.16-6.77-3.55-10.2-5.24C333.19,22,313,16.1,292.43,12.43c-10.76-2-21.68-2.69-32.57-3.33a213.86,213.86,0,0,0-21.77,1Z" style="fill:#e8651d"/><path d="M213.7,21.46A244.72,244.72,0,0,1,254.11,17c6.33-.18,12.63.49,18.94.91A212.1,212.1,0,0,1,439.72,123a206,206,0,0,1,20.17,47.89,220.86,220.86,0,0,1,7.85,60.24c-.67,10.18-1.38,20.37-3.2,30.42a207.48,207.48,0,0,1-43.64,95.72,213.69,213.69,0,0,1-42.37,39.6c-2.54,1.84-5.3,3.39-7.65,5.5,5.66-.1,11.12-1.71,16.59-3,4.66-1.24,9.26-2.71,13.83-4.27,1.38-2.73,2.64-5.52,4.07-8.23.34-.83,1.3-1,2-1.33,4.72-1.76,10.25-2,14.78.38,4.87,2.53,8,7.37,10,12.32.45,1.25,1.24,2.68.38,3.95C423,420,414.84,438.42,406.26,456.67c-2.84,5.89-5.53,11.88-8.91,17.48-2.51,4-5.25,8.32-9.64,10.47a97.89,97.89,0,0,1-32,9c-6,.78-12.09-.66-17.66-2.87s-10.54-6.61-12-12.55c-.49-1.46-.37-3.64-2.18-4.15a162.83,162.83,0,0,0-51.32-12.84c-26.52-2.11-53.19,3.77-77.37,14.53-1.74,4.36-3.83,8.75-7.36,12C182.29,493,174.36,494.77,167,495c-10.49-.59-20.74-3.41-30.5-7.23-3-1.19-5.28-3.61-7.72-5.66-2.28-1.9-3.48-4.67-4.92-7.18q-16.62-29.81-33.28-59.57c-1.46-2.92-3.51-5.57-4.55-8.68.07-4,1.85-7.74,3.9-11.08a17.67,17.67,0,0,1,13.92-8.35,20.22,20.22,0,0,1,8,1.52c.77,2.47,1.59,4.94,2.48,7.38,7.1,2.5,14.21,5,21.31,7.48a37.79,37.79,0,0,0,5.07,1.61,12.14,12.14,0,0,0,3.24-1.37,213.79,213.79,0,0,1-71-72.9A205.84,205.84,0,0,1,45,241.46c-.14-2.74-.35-5.47-.65-8.18a179,179,0,0,1,.86-24.17,206.67,206.67,0,0,1,34.89-98.63,212.39,212.39,0,0,1,133.56-89m13.48,4.59A205.48,205.48,0,0,0,81.26,121.34a200.1,200.1,0,0,0-29.57,93.71c0,5.93-.8,11.84-.21,17.76a198.39,198.39,0,0,0,14.23,68.05,204.14,204.14,0,0,0,65.48,85.87c6.29,4.93,13.09,9.14,19.76,13.52.89-.29,1.77-.58,2.66-.85-.05-.49-.09-1-.13-1.46a158.37,158.37,0,0,1-17.42-11.5,203.51,203.51,0,0,1-41.53-41.62A196.57,196.57,0,0,1,55.84,235.13a87.34,87.34,0,0,1,0-13.24,194.62,194.62,0,0,1,19.66-80.54,201.24,201.24,0,0,1,170-112.67c5.34-.08,10.68-.72,16-.18A196.69,196.69,0,0,1,319,38.3a201.79,201.79,0,0,1,115.87,98,197.08,197.08,0,0,1,17.81,132.93A194.83,194.83,0,0,1,433.46,321a201.76,201.76,0,0,1-70,74.55c.63.62,1.28,1.24,1.92,1.88a201.44,201.44,0,0,0,95.32-172c-.41-6.89-.35-13.81-1.26-20.67a200.67,200.67,0,0,0-32.21-88.89,205.5,205.5,0,0,0-200.07-89.8m-27.4,11.37A200.2,200.2,0,0,0,111.66,91a195.9,195.9,0,0,0-30,232.24,201.12,201.12,0,0,0,72.62,74.23,8.52,8.52,0,0,0,3.56.86c.14-1.29,1-2.81.12-4-1.3-1.72-3.39-2.51-5.3-3.36-3.83-1.6-7.1-4.23-10.41-6.68-5.63-4.18-11.39-8.18-17.09-12.27a32.62,32.62,0,0,0,.92-3.21,96.86,96.86,0,0,1-11.47-7.37c-4.21-3.27-7-8-9-12.84-.89-2.36-2.81-4.07-4.53-5.83-3.83-3.86-8-7.44-11.45-11.62a10.83,10.83,0,0,1,3.58-1.58c1.43-.35,3.13-.17,4.2-1.4a52.82,52.82,0,0,1-11.9-13.35c-6-9.43-9.3-20.16-14.06-30.17-1.17-2.49-2.64-4.84-3.71-7.37a63.38,63.38,0,0,1,6.61-.07c-1.42-2.89-3.57-5.35-5-8.24a76.28,76.28,0,0,1-4-13.82c-2.42-12-1.7-24.31-1.77-36.48l2.33.77c.8-6.43.4-12.9.11-19.34-.07-2.34-.31-4.75.44-7,2.13-7,4.87-13.89,6.63-21,.9-3.07,0-6.63,2.39-9.13l2.83.64c.59-6.86,1.51-13.82,4.32-20.17,2.7-6.06,6.94-11.27,11.25-16.26a25.28,25.28,0,0,0,2.94-4.73,40.25,40.25,0,0,0,5.15-.2c-.06-.78-.13-1.56-.19-2.33.65-.41,1.49-.72,1.56-1.62a33.64,33.64,0,0,1,4.37-10c5.83-9,14.75-15.48,20.4-24.62l3.25.15c1.1,3.25,2.07,6.54,3.19,9.79,2.59-2.12,4.77-4.68,7.39-6.77,4-3.29,8.76-6.16,14.12-6.13.8,4.63-1.24,9.2-4.22,12.64-1.93,2.54-4.8,4.59-5.47,7.88,3.39,0,6.94,0,9.94,1.82-2.39,2.24-5.72,3.33-7.6,6.1A160.5,160.5,0,0,1,130,131c-2,1.6-1.74,4.4-2.7,6.56A86.14,86.14,0,0,1,117.87,154a132,132,0,0,1-13,16.1c.25.86.53,1.73.85,2.58-3.17,8.7-4.93,17.82-6.92,26.84-1.17,5.81-2.56,11.59-3.41,17.45l1.89.33C95.63,225,96,232.83,96.8,240.57c.92,8.79,1.7,17.61,1.22,26.45.78.39,2.18.25,2.27,1.41,5.19,19.36,12.41,38.56,24.55,54.7,2.63,3.82,6.07,7,8.36,11.08,2.75,4.59,5.43,9.36,9.43,13,6.68,5.83,14.89,9.73,20.93,16.32A84.25,84.25,0,0,1,180.3,387c7-1.29,13.5-4.5,20.44-6.14,18.82-4.29,38-7.05,57.37-7.14,21.49-.32,42.91,2.46,63.9,6.87,4.58-7.44,11.77-12.67,17-19.55,2.59-.38,5.32-.82,7.46-2.45,2.38-1.73,3.79-4.39,5.12-6.94a19.34,19.34,0,0,0,4.51.7c3.86-2.35,5.34-7,8.63-10a13.38,13.38,0,0,1,6-3.12c.8-6.55,6.7-11,7.44-17.58l2.58.1c0,.41.14,1.23.18,1.64l1.08.88a25.28,25.28,0,0,0,6.16-11.9c.89-.39,2.34-.19,2.55-1.4,1.94-5.54,4.83-10.8,5.63-16.68a12.8,12.8,0,0,0,3.45-4,82.42,82.42,0,0,0,5.2-14.18,203.08,203.08,0,0,0,6.54-32.18l1.95-.23c.14-4.48-.9-8.84-1.63-13.22.9-.2,1.8-.39,2.72-.57-.27-6.46-2.18-12.87-1.1-19.33a86.55,86.55,0,0,0-5.81-24.46c.73-.27,1.46-.53,2.21-.78,0-4.1-2.81-7.22-5.29-10.14l3.24-.85c-4-10.3-10.38-19.5-16-29,.41-.84.83-1.66,1.26-2.48a61.64,61.64,0,0,1-10.8-11.55l1.2-1.58c-4.07-5.31-9.79-9-15.2-12.79-.32-1.63-.48-3.42-1.65-4.71-1.87-2.11-4.53-3.27-6.77-4.92-.06-1.27.36-2.72-.55-3.78-2.94-4.16-7.6-6.53-11.94-8.94.21-.32.64-.94.86-1.25-2.8-3.34-6.88-5.07-10.88-6.48q0-.81,0-1.62c1.73-1.1,3.44-2.24,5.11-3.45-1.29-4.86-6.35-7.54-7.35-12.53,4.4-.23,8.61,1.24,12.85,2.17a77.27,77.27,0,0,1-1.18-8.15c4.86.88,8.53,4.36,12.62,6.83.81-1.3,1.55-2.65,2.25-4a20.17,20.17,0,0,1,4,2.89c6,5.68,11.26,12.09,16.65,18.35,1,1.54,3,1.07,4.57,1.15,2.25,5.13,5.55,10.46,11.23,12.19,1.91,5.15,4.8,9.82,7.54,14.55l3.24.64c1.58,5.27,3,11.83,8.65,14.17a47.6,47.6,0,0,0,5.47,15.17l3.22.19a94.78,94.78,0,0,1,4.54,14.12l3,.19a83.56,83.56,0,0,0,1.52,17.08l2.46.21c.67,5.82,1.14,11.66,1.57,17.51l2.66.14c0,6,0,12,0,18l3,.51c-.52,6.65-1.64,13.23-2.2,19.87l2.23.51c-1.07,5.62-2.59,11.14-3.31,16.82l1.54.59c-.53,2.2-1.29,4.33-2,6.47-1.47,4.26-2.44,8.66-3.51,13l2.16.71a50.49,50.49,0,0,1-6.52,15.56c-1.59,2.2-.49,5.1-1.41,7.54-2.48,7.3-6.86,13.72-10.89,20.22-3,4.66-6.19,9.3-7.82,14.65l1.39,1c-7.44,9.8-15,19.55-23.91,28.09-1,.77-.07,1.93,0,2.89-3.53,4.72-8.57,8-13.94,10.28.41,1,.92,2.06,1.33,3.12-3.84,2.74-8.34,4.4-12.17,7.13-.73,1.26-.41,2.95-.62,4.39a71.6,71.6,0,0,1-10.79,6.28,13.08,13.08,0,0,0,2.08,2c2,.15,4.18-.7,6,.56a199.53,199.53,0,0,0,56.55-53,196.17,196.17,0,0,0,28.84-170.1,198.38,198.38,0,0,0-58.75-92A200.37,200.37,0,0,0,199.78,37.42M349.89,65.7C350,69,350.6,73,354,74.55c.58-.83.25-2.92,1.56-2.86,1.59,1.58,2.72,3.6,4.58,4.92C359.85,71.05,355,67,349.89,65.7m-11.74,5.45c1.58,4.71,5.43,8.27,9.78,10.48.85.56,1.88.22,2.83.19-2.55-2.78-5.9-4.65-8.52-7.36,3.64.31,6.84,2.16,10.22,3.38a6.16,6.16,0,0,0,3.13.31c-4.13-5.18-11.06-7.11-17.44-7m24.5-.18a24.77,24.77,0,0,0,2.18,9.89c.29.89,1.19,1.27,1.89,1.79-.43-2.17-1.08-4.3-1.36-6.51,2.07,2,3.25,5,6,6.07-.07-1.32.14-2.74-.52-3.95-1.77-3.32-5-5.54-8.21-7.29m-8.1,9.86C354.34,87.17,360,91.61,365,94.42c-1.35-3.63-3.45-6.9-5.28-10.29,2.56,1.35,5.21,3.09,8.26,2.76a11.82,11.82,0,0,0-6.67-5.42,32.51,32.51,0,0,0-6.75-.64m19.85,1.92c-.12,3.29-.25,6.6-.17,9.9l2.5.32c-.07-1.83-.12-3.67-.11-5.5,2.6,1.76,3.55,5.21,6.43,6.57-.75-4.6-4.2-7.94-7-11.38-.55,0-1.09,0-1.63.09m-32.65,2c0,.82,0,1.65,0,2.48,2.08,1.13,3.82,3.58,6.43,3.17a17.49,17.49,0,0,0,3.31-.72c-1.67-1.13-3.65-1.62-5.44-2.51,1.92-.73,3.9-1.3,5.85-2a8.72,8.72,0,0,0-10.14-.43M141.59,91.46c2.49-1.08,4.88-2.38,7.44-3.29-1.16,3.11-3.23,5.75-4.48,8.82,5.4-2,7.87-7.72,9.1-12.94-4.42,1.55-9.88,2.72-12.06,7.41m-16.19,0c-5.62,6.23-11.85,12-16.33,19.18a27.82,27.82,0,0,0-3.71,8.87l1.07.1c.27-1.22.53-2.43.81-3.64l3,.27q3.73-4.43,7.58-8.78A47.49,47.49,0,0,1,131.6,96.87c-.09-3.19.24-6.93-1.95-9.51-1.82.89-2.9,2.71-4.25,4.14m226.92,1.38c-.14.5-.43,1.49-.58,2,3.76,3.22,7.29,7.07,12.13,8.64a6.91,6.91,0,0,0,5.57-.5c-2.86-2.66-6.59-4-9.9-5.93,1.75-.26,3.51-.48,5.23-.9a17.64,17.64,0,0,0-6.35-3.55c-2-.55-4.09-.07-6.1.25m16.45.1a39.57,39.57,0,0,0,2.57,6c1,1.94,2.32,4.06,4.76,4.17-.8-2.18-2.37-3.91-3.67-5.79,2.68,1.61,5,3.8,7.51,5.6,1.05.84,2.42.89,3.69,1.11a7.69,7.69,0,0,0-2.73-5.47A27.3,27.3,0,0,0,368.77,93m16.78,10.7c.39,1.12,1.69,1.38,2.58,2a41.56,41.56,0,0,0-1-5.87l2,.11c1.75,2.91,2.52,6.54,5.2,8.78.16-4.61-1.92-9-4.64-12.59a9.5,9.5,0,0,0-3.79-2.83c-.54,3.4-1.86,7.08-.39,10.43m-259.15-.83c-5.07,4.48-9.94,9.33-13.54,15.1a18.54,18.54,0,0,0-2.56,6.36,21.47,21.47,0,0,0,5.4-2.85c5.54-4.27,8.48-11,14-15.29.85-.74,2.06-.41,3.08-.54-2.43,3.5-5.76,6.22-8.54,9.42-4.23,4.72-8.74,9.85-9.68,16.36a32,32,0,0,0,8.74-5.31c3-2.35,4.65-6,7.39-8.62,3.88-3.49,6-8.42,7.86-13.18a28.56,28.56,0,0,0,2.19-9.22c-5.58.72-10.18,4.29-14.37,7.77m15.41,1c-1.92,3.58-4.12,7-6.3,10.4-2.41,3.9-5,7.83-6,12.38a19.8,19.8,0,0,0,2.93-2.22c5.7-5.24,10.28-11.52,15.27-17.41a11.88,11.88,0,0,0,1.9-3.2,44.17,44.17,0,0,0-7.8,0m221.69,2.53c1.6,4,5.41,6.56,9.34,7.87,1.28.55,2.43-.28,3.42-1a35.36,35.36,0,0,0-7.53-4.26c2.63-.14,5.27,0,7.91.07a27.54,27.54,0,0,0-3.19-3.88c-3.34.26-6.63.83-9.95,1.2m17.2.08c.61,5.11,3.75,9.4,7.13,13.09,1.17-3.49-2.11-6-3.4-8.91,3,.92,5,3.35,6.87,5.64l2,0c-1.08-2.29-2.24-4.65-4.22-6.3-2.36-2-5.45-2.69-8.35-3.5m16.66.39a46,46,0,0,0,.22,8.78l1.72-.45c2.28,1.41,2.77,4.34,4.5,6.28a6.44,6.44,0,0,0,.31-3.36,31.57,31.57,0,0,0-4.6-10c-.39-.86-1.42-.91-2.15-1.23M374,117c2.1,5.76,7.56,9,12.32,12.4,1.23,1,2.86.66,4.32.63-2.76-2.9-6.52-4.53-9.48-7.19,3.13.18,5.87,1.76,8.62,3.11.06-1.11.9-2.5-.11-3.38A21.85,21.85,0,0,0,374,117m18.78,3.32a19.78,19.78,0,0,0,3.6,9.36,5,5,0,0,0,2,1.28c-.64-2.37-2-4.46-2.95-6.69,2.59,1.35,4,4.31,7,5-.2-5.13-5.14-8.07-9.66-9m14.12,1.1c-1.17,4.24-1.9,9.09.49,13.07a27,27,0,0,0,1.11-4.53c.36,0,1.06,0,1.41,0a7.38,7.38,0,0,0,2.16,4.59c.39-4.79-.84-10.43-5.17-13.16M89,136.54a74.2,74.2,0,0,0-7.8,23.32L85,159.6c2.83-8.55,8.84-15.49,12.59-23.6a22.69,22.69,0,0,0,1.93-11.06c-5.14,2-8,7-10.53,11.6m18.32-5.74A88.82,88.82,0,0,0,91,151.21c-2.17,4.1-4.55,8.64-3.7,13.43.27.89.32,2.3,1.53,2.34,6-8.71,8.65-19.28,14.52-28.09a8.4,8.4,0,0,1,1.72-1.7c.81,3.78-.44,7.58-2.33,10.83-3.3,5.77-7.08,11.38-8.9,17.83a20.87,20.87,0,0,0,.48,6.25c3.36-2,5.16-5.58,6.94-8.88a143.76,143.76,0,0,0,10.16-27.14,41.82,41.82,0,0,0,1.62-9.35,23.72,23.72,0,0,0-5.72,4.07M386.41,132c1.53,4.22,4.92,7.39,8.39,10.08,1,.94,2.44.92,3.75.95-2.4-2.89-5.75-4.8-8.16-7.69,3.48.84,5.84,4.16,9.59,4.33a5.44,5.44,0,0,0-1.93-4.85c-3.32-2.51-7.69-2.49-11.64-2.82m15.91,1A23.64,23.64,0,0,0,406,146.33a7.77,7.77,0,0,0,2,1.94c.35-3.4-1.33-6.41-2.67-9.39,3.28.63,3.8,5.07,6.82,5.89-1.82-4.83-5.05-9.42-9.76-11.8m13.11,2.73c-.72,5.07-.38,10.23-.07,15.32l2,.8-.18-5.64h2.1c.23,1.94.43,3.88.84,5.79a6.22,6.22,0,0,0,.7-2.29c-.1-3.85-1.84-7.39-3.26-10.88a9.53,9.53,0,0,0-2.11-3.1m-301,2.76c-2.76,2.8-2,7.17-3.83,10.45-2.35,4.23-5,8.52-5.41,13.47l2.72.88c6.48-8.15,11.05-17.62,15.31-27.06-3,.48-6.28.4-8.79,2.26m281.09,7.59a16.59,16.59,0,0,0,6.76,9.8c2.18,1.5,4.37,3.4,7.17,3.41-1.27-3.65-4.88-5.53-7.34-8.27,1.91.19,3.81.54,5.74.73a16.46,16.46,0,0,0-5.34-4.79c-2.1-1.25-4.66-1-7-.88M412,150.62a24.74,24.74,0,0,0,3.33,13.6c.8-3.14-.7-6.23-1-9.34l1.79-1.42a16.9,16.9,0,0,0-4.12-2.84m12-.19a34.27,34.27,0,0,0-.82,11.89c1.05-.81,2.12-1.61,3.21-2.38.05,1.93.08,3.85.19,5.78l1.63-.93c.92-4.81-.66-9.66-2.38-14.12l-1.83-.24m-7.74,4.92c.16,1,.34,2,.54,3l2.43-.62c-1-.84-1.95-1.65-3-2.42m-12.07,4.81c1.51,6.24,5.13,12.86,11.41,15.27.22-4.79-4.54-7.2-7.25-10.41a31.15,31.15,0,0,1,4.58,1.81l1.14-.54c-1.32-2-2.43-4.42-4.72-5.44a45,45,0,0,0-5.16-.69M76.7,166.35c-1.33,11.31-6.33,21.75-8.27,32.93-1.06,6.85-1,14.31,2.6,20.46.72-6.72.11-13.48.35-20.21,0-2.08,1.17-3.88,2-5.71,3.2-6.53,6.6-13.24,7.3-20.59a6.34,6.34,0,0,0-4-6.88m350.94,11.31,2.2-.84a22.42,22.42,0,0,0,2.22,2.73,29.12,29.12,0,0,0-1.51-12.68c-2.54,3-3.1,7-2.91,10.79m-8.9-9.84c-.26,4.78-.3,9.64,1,14.3l2-.07c-.19-3-.62-5.9-.79-8.86l2.39-1a6.35,6.35,0,0,0-4.58-4.4M82.37,178a53.81,53.81,0,0,0-6.94,19.87c-1.17,7.65-1.8,15.49-.27,23.14l2.18-.86c.17-12.34,3.82-24.23,7-36,0-1.18,1.31-1.32,2.14-1.78.52,5.56-.92,11-2,16.41-1.44,6.94-2.93,14-2.62,21.11,3.75-1.37,5.19-5.5,6.36-9,2.5-8.91,3-18.24,3.26-27.44.33-4.58.35-9.17.4-13.76-4.13,1.4-7.29,4.66-9.55,8.29m326.33-2.13c.46,1.13.68,2.53,1.74,3.3a23.75,23.75,0,0,0,6.2,2.8c-.3-2-.46-4.38-2.26-5.63-1.78-.78-3.8-.42-5.68-.47m14.66.44c.43,1.74.56,3.75,2.11,4.94a44.52,44.52,0,0,0-.56-4.9l-1.55,0M97,177.84c-1,.67-2.41,1.33-2.32,2.77-.78,7.52-1.75,15-2.58,22.53a74.62,74.62,0,0,0-.82,11.18,6.16,6.16,0,0,0,2.3-2.58c1.93-4.65,2.93-9.61,4-14.51q2.22-10.5,3.85-21.12A18.59,18.59,0,0,0,97,177.84m315.24,5.53a20.53,20.53,0,0,0,.9,2.24c.5,1.21,2,.8,3.05,1-.74-1-1.52-2-2.29-3l-1.66-.27M431.61,195c.7-.9,1.38-1.83,2.06-2.76l1.74.31a34.46,34.46,0,0,0,.2,4.65,3.41,3.41,0,0,0,.88-2.14c0-4.11.19-8.33-1-12.32-2.68,3.38-5.2,7.83-3.89,12.26m-19.81-6.49a26.29,26.29,0,0,0,3.56,11.89l2.11-.18a36.14,36.14,0,0,0-3.31-6.61l2.25,0a34.41,34.41,0,0,0,2.27,3.34c1.32-.43,1.58-1.79,1.94-2.95-2.27-2.75-5.51-4.35-8.82-5.47m11.14,16.14c.53-.51,1.3-.92,1.36-1.74.76-3.31.58-6.74.67-10.1l1.51.68c1.2,2.5,1.85,5.22,2.83,7.81l1.39-.22a6.49,6.49,0,0,0,.14-2.59,20.7,20.7,0,0,0-6.7-10.32c-1.53,5.32-2.77,11-1.2,16.48m10,8,1.95.77c.18-.56.38-1.12.59-1.68l1.84.58c0,1.51-.05,3,0,4.52,3.25-4.67,2.53-10.6,2.26-15.95-4.62,1.88-6.1,7.26-6.65,11.76M425,219.2a11.86,11.86,0,0,0,3.08-7.6c.76-.24,1.51-.49,2.27-.72-.47-2.72-1-5.9-3.77-7.22-.67,5.16-1.25,10.34-1.58,15.54m-9.25-14.47c.1,1.55-.09,3.2.53,4.67a19.41,19.41,0,0,1,5.78,2.6c0-1,0-2,0-3a28.16,28.16,0,0,0-6.3-4.26m.79,5.5c.57,2.27,1,5.09,3.22,6.34.2-2.48-.56-5.51-3.22-6.34m-.28,7.3a108.25,108.25,0,0,0,1.33,10.76A6.86,6.86,0,0,0,418.7,231a22.82,22.82,0,0,0,.16-7.19c2.24.4,2.62,2.93,3.84,4.48l1.5-1.62a11.65,11.65,0,0,0-7.94-9.18m18.53,7.31a5,5,0,0,0-.37,5.59c.8-1.2,1.51-2.47,2.21-3.73l2.31-.26a53.41,53.41,0,0,0-.65,7.68A20.52,20.52,0,0,0,440.55,219c-2.48,1.3-4.22,3.6-5.76,5.87M65.66,222c-.2,7.09.24,14.16.52,21.25.63,9.76,2.69,19.54,7.12,28.32l1.36.15C73.85,268.13,73,264.6,72.5,261c-1.49-9.19-.62-18.55.86-27.68a7.47,7.47,0,0,0,0-3.87c-1.35-3.4-3.6-7.22-7.67-7.52m13.47.34C77,232,73.78,241.7,74,251.78c-.12,7.85,2.42,15.46,5.62,22.54.21.93,1.24.92,2,1.25C84.16,262.67,79,250,79.22,237H81c1,8.71.58,17.53,1.69,26.24a19.43,19.43,0,0,0,2.54,7.32c1.92-1.92,2.15-4.8,2.59-7.35.73-7.44-.25-14.94-1.54-22.27a85.47,85.47,0,0,0-5-18.6l-2.05-.08m12.34,1.12a26.87,26.87,0,0,0-3.19,8.88,47.89,47.89,0,0,0,1.09,21.78c.84,2.31,1.43,5.1,3.8,6.37-.56,4-1.09,8.07-1.4,12.13l1.51-.2a55.3,55.3,0,0,0,2.43-14.84c.42-11.53-2.16-22.89-2.47-34.39l-1.77.27M428,222.87a18.86,18.86,0,0,0-1.31,5.06l3,1.55c.42,3.28.9,6.57,1.59,9.82,1.78-1.09,2.06-3.1,2.29-5l-1-.77c-.78-3.8-1.26-8.12-4.56-10.67m-1.84,7.46a23.08,23.08,0,0,0-.65,6.37l1.21-.8a42.4,42.4,0,0,0,.52-6.36l-1.08.79m-10.83,2.35a105.15,105.15,0,0,0,1.94,13.9,4.07,4.07,0,0,0,1.57,2.4c0-2.54-.42-5-.65-7.56l2,.12c.73,1.79,1.46,3.59,2.27,5.36.94-1.2,2.15-2.62,1.49-4.26a19.44,19.44,0,0,0-8.66-10m17,15.57c2.65-1.19,4-3.83,5.18-6.31l1.95.18c-1,3.84-3.5,7.13-4.11,11.1a9.67,9.67,0,0,0,3.57-4.16,38.91,38.91,0,0,0,2.56-10.86c-4.77,1-9.09,4.93-9.15,10.05m-6.4,1.09,2.09.81c.23,2.67,0,5.35.29,8,.9-1.09,2-2.12,2.3-3.56.74-4.15-.27-8.32-.81-12.42-.67-.2-1.33-.39-2-.56a13.35,13.35,0,0,0-1.88,7.7m-10.24.39c-2,5.07-4.31,10.67-2.41,16.15l1.21-.13a36,36,0,0,0-.52-8.17c.9-.18,1.8-.34,2.7-.5.55,2.46.63,5.12,2,7.32a8.83,8.83,0,0,0,1.88-2.17,18.78,18.78,0,0,0-4.84-12.5M430,262.45c-.84.92-.52,2.18-.43,3.3a10.28,10.28,0,0,1,5.75-4.24c-.6,3.17-1.82,6.19-2.32,9.39a35.64,35.64,0,0,0,5.72-15c-4.17-.19-6.65,3.54-8.72,6.57m-5.19-2.06c-3.23,4.74-6.09,9.91-7,15.64,2.84-2.15,4.6-5.28,6.3-8.33l3.23-.08c-.42-1.49-1.05-2.91-1.41-4.41a16.58,16.58,0,0,1,1.13-2c-.74-.28-1.48-.55-2.21-.8m-16,6.5c-.09,5.62,0,11.42,2,16.76,1.57-3,.73-6.56-.17-9.68l1.85,0c.62,1.29,1.24,2.57,1.85,3.86.55-.42,1.11-.85,1.67-1.26-.59-2.64-1.06-5.5-3-7.52a8.1,8.1,0,0,0-4.18-2.13m15.8,2.71c-.17,1.91-.38,3.82-.5,5.74,2.59-1,2.13-4.22,3.06-6.36-.86.2-1.71.4-2.56.62M94.88,274.3a11.94,11.94,0,0,0,.11,6.22c2.38,8.31,8,15.18,10.8,23.34a17,17,0,0,1,2-.16c1.81,1.46,2,3.95,3.17,5.86-1.63-13.42-10.27-24.71-12.68-37.94-1.3.62-2.92,1.16-3.42,2.68m331.89,4.8c-3.64-.17-7.28-.09-10.92-.15a13.12,13.12,0,0,0-3.86.15c4.87,0,9.76-.22,14.63.07a13.64,13.64,0,0,0-2.84,7.13,40.07,40.07,0,0,0,3.89-3.82c.72-.82,2-.45,2.93-.69-.94,1.87-2,3.68-3,5.52.26.36.8,1.06,1.06,1.41a10.69,10.69,0,0,0,2.71-3.52,52.65,52.65,0,0,0,3.84-11.58,22.72,22.72,0,0,0-8.47,5.48M85,276.4a84.81,84.81,0,0,0,.28,13.8c.76,9.19,3.47,18.57,9.55,25.71,2.06,2.32,4.2,4.76,7.09,6.08,0-1.19.22-2.46-.42-3.53-4.16-8-8.45-16-10.85-24.79a23.28,23.28,0,0,1-.57-9c1.33,3.11,2.37,6.31,3.61,9.45,3.22,8.39,7.2,16.45,10.86,24.66.45.06,1.35.21,1.79.28.46-8.23-2.5-16.16-6.26-23.35a173.39,173.39,0,0,0-13.92-21.66A2.7,2.7,0,0,0,85,276.4m-13,3a47.56,47.56,0,0,0,2,6.17,287.62,287.62,0,0,0,14.12,29.74l1.53.23c-3.42-8.58-3.62-18-6.7-26.68A14.39,14.39,0,0,0,72,279.38m346.93,1.71c-4.18,5.06-8.66,10.76-8.45,17.7a21.41,21.41,0,0,0,3.8-3.81,10.74,10.74,0,0,1,1.81-5.7l2.18-.31a55.15,55.15,0,0,0-.35,7c3.93-3.93,3.31-9.9,3.31-15-.77,0-1.54,0-2.3.06M406,282.82c-1.3,6.18-3.51,12.32-3.48,18.7a46.9,46.9,0,0,0,2-7.49,30.66,30.66,0,0,0,3.45.58c3.74-2.89,1.83-8.1.11-11.59l-2.05-.2m10.84,21.12c1.69-.42,3.38-.91,5.05-1.44-.94,2.72-2.38,5.25-3.06,8.07,5.15-4.5,7.59-11.12,9.65-17.44a16.92,16.92,0,0,0-11.64,10.81m-23.67,9.4c1.61-1.59,3.83-2.14,6-2.65a56.57,56.57,0,0,0,.4-10.57L398,299.6c-1.86,4.48-4.47,8.79-4.8,13.74M406,307.28c-1.45,2.12-3.65,4-3.7,6.77a10.44,10.44,0,0,0,3.74-2.69c1.29-1.42,2.14-3.48,4.22-3.9,0,1.72-.09,3.44,0,5.17.56-.59,1.39-1,1.68-1.83a35.45,35.45,0,0,0,2.15-10,17,17,0,0,0-8.07,6.51m5.49,8.88a11.31,11.31,0,0,0-5,7.59c2-1.48,3.91-3.2,6.41-3.77-1.3,2.84-3.4,5.3-4.05,8.41a16.32,16.32,0,0,0,3.86-2.91,38,38,0,0,0,8.24-13.15,19.84,19.84,0,0,0-9.49,3.83m-295.18.77a29.65,29.65,0,0,0,.8,10c1,3.37,3.16,6.21,5.44,8.83a102.17,102.17,0,0,1,9,11.25l1.48,0a18.6,18.6,0,0,1-1.29-4.31,22.82,22.82,0,0,1,3.21,4.3c-3.81-8.88-7.93-17.72-13.52-25.63a12.68,12.68,0,0,0-5.09-4.46m277.91,12.28c1.95-2.73,3.71-5.95,7.13-7-1.58,3.48-3.58,6.9-3.8,10.81a22.8,22.8,0,0,0,7.13-15.52c-5.14,1.83-10.1,5.92-10.46,11.73m-11.42,1.59,2.52-.05c.28-1.61.56-3.22.87-4.82.75-.11,1.52-.22,2.29-.31a41.12,41.12,0,0,0-1.35,6.87c2.24-.29,2.87-2.68,3.47-4.49a10,10,0,0,0-1.68-9.09c-2,4-4.21,7.86-6.12,11.89M94.43,320.45c1.38,1.35,2.88,2.57,4.38,3.79.53-.42,1-.84,1.55-1.26a48.23,48.23,0,0,0-5.93-2.53m10.93,4.06c1.23,7.46,3.36,15,7.73,21.23s10.34,11.14,16.34,15.74c1,1,2.54.93,3.88,1.06-6.18-7.87-12.86-15.34-19-23.27a16.44,16.44,0,0,1-1.33-2.61,13.69,13.69,0,0,1,3.42,2.3c7,6.8,12.08,15.29,19.24,21.92a4.39,4.39,0,0,0,.55-2.93c-.78-3.14-2.82-5.75-4.66-8.34a143.43,143.43,0,0,0-18-19.22c-2.56-2.18-5-4.66-8.22-5.88m272.36,6.73a11.58,11.58,0,0,0-1.71,5.91,7.73,7.73,0,0,1,1.27,3.43,35.4,35.4,0,0,0,2.94-4c1-2.19.81-4.66.84-7-1.12.48-2.68.44-3.34,1.63m-284.84.36c3.34,5,8.93,7.86,12.58,12.58,2.45,3.77,4.1,8,6.63,11.75a27.58,27.58,0,0,0,8.7,8.5c2.09,1.26,4.29,2.63,6.81,2.7-3.09-3-6.88-5.24-9.69-8.57,3.24,1.21,5.13,4.41,8.3,5.73a12.61,12.61,0,0,0,4.8.87c-1.41-2.64-4.24-3.89-6.53-5.59-2.63-1.92-5.64-3.45-7.73-6-5.2-6.5-8.89-14.22-15-19.93-2.31-2.11-5.85-4-8.82-2m300.72,9.29a23.3,23.3,0,0,1,7.35-2.15c-2.17,1.87-4.94,3.44-5.61,6.46,6.65-2.39,10.38-8.76,15-13.64-6.69-1-15.17,2.06-16.77,9.33m-11.88.13a7.06,7.06,0,0,0-2.15,3.79,10.57,10.57,0,0,0,4.85-1.16c3.65-2.11,6.85-5.41,7.84-9.63a49.29,49.29,0,0,0-10.54,7m6.61.18a16.62,16.62,0,0,0-2.6,6,11.46,11.46,0,0,0,4.51-5.82l-1.91-.21M366,344.73c-4.09,3.88-8.16,8.68-8.19,14.65a25.89,25.89,0,0,0,5.24-7.93c.61-.22,1.23-.44,1.86-.65a59.24,59.24,0,0,0-1.43,7.23q1-.43,2.13-.81a23.43,23.43,0,0,0,3.45-13.31c-1,.23-2.27,0-3.06.82m18.32,6.34c0,.45-.08,1.35-.1,1.81a24,24,0,0,1,6.82-1.65c-2.38,2.62-5.71,4.5-7,8,5.69-2.25,9.54-7.26,13.63-11.57-4.77-.74-9.35,1.07-13.39,3.42m-14.26,3.54c.51.36,1,.74,1.57,1.11,1.28-1.6,2.66-3.4,5-3.21-1.2,3-3.16,5.61-4.07,8.72,5.26-2.26,8.67-7.47,9.7-13-4.73.52-8.51,3.62-12.18,6.36M143.78,351c.43,4.88,1.43,10.39,5.62,13.51,4.09,3,9.09,4.25,13.56,6.52,1.57,1,3.22,0,4.72-.64-4.15-4.32-8.6-8.33-13.14-12.22-3.3-2.78-6.7-5.58-10.76-7.17m200.73,17.16a24,24,0,0,0,2.8-3.86l2.07-.3c.05,1,.12,2.06.19,3.1a11.51,11.51,0,0,0,4.14-3.16c.45-2.2-.45-4.41-1.07-6.5-5.26.48-7.89,6-8.13,10.72m34-6.74c-3,.85-6,2.09-9.1,2.53,0,.36,0,1.08,0,1.44,3.09-.25,6.15-.85,9.26-1.08a76.51,76.51,0,0,1-8.87,4.67c.18.65.39,1.3.59,2,3.85-1,7.9-1.84,11.13-4.32,1.92-1.52,4.33-3.07,4.61-5.75a23.43,23.43,0,0,0-7.61.54m-23.2,4.8c-1,1.06-2.48,2-2.58,3.6,1.89.66,3.3-1.07,4.67-2.06a11,11,0,0,1,4.69-2.42c-1.6,3.06-3.74,5.8-5.29,8.89a6.34,6.34,0,0,0,4.06-3.59,20.13,20.13,0,0,0,4.39-3.13c.5-.94.39-2.08.74-3.06a22.72,22.72,0,0,1,1.87-2.06c-1.49-.75-3.14-1.51-4.84-1-3,.74-5.41,2.89-7.71,4.85M137,363.06c1.72,6.56,6.33,11.74,11,16.41-5.71-3.48-11.76-6.76-18.47-7.71,0,.5,0,1.51,0,2,8.4,5.44,16.19,11.85,25.13,16.43,2,1,4.08,2.35,6.44,1.78a25.17,25.17,0,0,0-3.69-5.08c2.48,1.54,4.93,3.17,7.53,4.52s5.42.36,8-.4c-.33-.82-.41-1.85-1.29-2.29-7.94-5.11-15.9-10.25-23.21-16.24a12.05,12.05,0,0,1,4,1.61c4.67,3.12,8.88,6.87,13.55,10,2.91,1.88,6.2,4.11,9.85,3.18-7.32-8.15-15-16.74-25.47-20.8-4.31-1.58-8.72-3.17-13.33-3.41m196,14.07a14.38,14.38,0,0,0,2.15-3.54,2.35,2.35,0,0,1,2.64,1.76c1.17-.61,2.33-1.24,3.45-1.93a28.64,28.64,0,0,0,.17-7.68c-5.33.78-8,6.58-8.41,11.39m27.25-2.51c-1.51,1-3.38,1.72-4.08,3.54,2.05-.19,4.28-1,6.2.14a39.66,39.66,0,0,1-4.85,1.67c0,.41-.1,1.22-.14,1.63,6.37-.57,11.94-4.24,16.34-8.68-2.54-.63-5.14-1.38-7.77-1-2.11.36-3.9,1.62-5.7,2.69m-20.71,2.14c-2.93,1.46-4.73,4.42-5.7,7.45,3.84-1,6.31-4.54,10.2-5.38-1.09,2.86-3.5,5-4.16,8.08,2.6-.4,5.41-1.06,7.21-3.14,2.17-2.6,3-6,3.64-9.24-3.79.25-7.72.53-11.19,2.23m-11.93.29c-.4.81-.8,1.63-1.18,2.45l-1.75-.12c-.06.58-.12,1.16-.17,1.76l1.82-.68c1.14-1.37,3.12-1.7,4-3.29-.91-.06-1.83-.09-2.73-.12M210,385.67a216.93,216.93,0,0,0-54.15,20.2c-5.8,3.3-11.69,6.62-16.82,10.88.39,4.67,2.85,8.82,4.66,13.06,8.23,17.08,18,33.37,27.42,49.79,2.7-.86,4.85-2.74,7.31-4.07,17.63-10.1,37.34-16.2,57.35-19.33,21.46-3.23,43.54-3.16,64.78,1.52,14.57,3.23,28.79,8.76,41,17.44,1.64,1.11,3.08,2.55,4.87,3.43a5.42,5.42,0,0,0,4.28-2.26c.71-1.37.74-3,1.25-4.42,1.37-4.22,3.9-7.93,6.34-11.59a20.85,20.85,0,0,0,2-4.57,5.17,5.17,0,0,1,.76-2.93,47.18,47.18,0,0,0,4.44-7.16l-.63-1.36c3.67-3.05,4.54-8,6.93-11.94,0-.39.05-1.15.07-1.53l1.19-.18c2-3.84,3-8.13,5.52-11.67-11.24-12.85-26-22.23-41.8-28.51-16.12-6.38-33.33-9.76-50.58-11.11A250.28,250.28,0,0,0,210,385.67m137.9-1,0,2.06a52,52,0,0,1,5.72-.73c-1.27.91-2.57,1.78-3.85,2.65,0,.51-.07,1.52-.09,2,5.3-.55,11.4-2.25,14-7.4a76.29,76.29,0,0,0-15.81,1.4m34.45,82.42c3.74.58,6.71,3.15,10.34,4,10.63-23.17,21.36-46.28,32-69.43,1.34-2.8,1-6.7-1.68-8.59-3.56-2.48-8-2.78-12.19-3.48-9.42,25.87-19.18,51.61-28.49,77.51M91.87,405c1,2.64,2.6,5,3.84,7.49,10.67,19.78,21.21,39.64,32,59.38,3.39-2,6.83-4,10.74-4.73-.88-2.59-2.11-5-3.23-7.52-9.89-21.66-19.84-43.3-29.64-65-6.3,0-11.18,5.05-13.67,10.39m302.76-.65c-2.05,2.57-3.18,5.71-4.61,8.63-11.38,24.72-23,49.34-34.22,74.13,2.39,1.45,5.25.93,7.88.65,6.13-.84,11.94-3.08,17.77-5.05.12-.39.35-1.18.47-1.58-3.43-1.85-7.37-3.89-8.72-7.82-.83-3.17,1.21-6.06,2.31-8.9,4.55-11.24,8.75-22.61,13.21-33.89,2.65-5.35,4.13-11.16,6.15-16.75,1.09-3.53,2.63-6.95,3.19-10.62-1.19.24-2.71,0-3.43,1.2m-276.76-.6a83.24,83.24,0,0,0,3.51,8.86c8.24,19.35,17.25,38.37,25.5,57.72,1.34,2.43,0,5.17-1.28,7.32-1.86,2.92-5.16,4.35-8.31,5.39a5.28,5.28,0,0,0,2.32,1.94,87.09,87.09,0,0,0,15.87,4.93,10.6,10.6,0,0,0,8.56-2.4c-12.49-25.35-24.87-50.76-37.35-76.12-1.72-3.63-4.76-6.82-8.82-7.64m13.1,73c0,1.14.08,2.27.12,3.42,3-.33,6.16-.78,8.63-2.63,1.87-1.52,1.72-4.17,1.83-6.34A15.52,15.52,0,0,0,131,476.69m248.5-5.12c0,1,0,2,0,3a12,12,0,0,0,4.48,2.85,10.48,10.48,0,0,0,6.41-.74c-.75-1.88-1.68-3.9-3.56-4.88-2.29-1.13-4.94-.58-7.33-.22M222,107.15c.62-1.38,2.29-1,3.46-.69a12,12,0,0,0,3.48,7.64,13.83,13.83,0,0,0,18.55.28c1.34-1.16,2.28-2.88,4.12-3.3,2.67,3.26,6.08,6.69,10.6,6.71,3.45.27,6.66-1.46,9.13-3.73,2.67-2.29,4.68-5.2,6.86-7.93l2.16,0c1.33,6.41.65,14.2-4.67,18.69-4.85,3.83-11.71,3-17.12.88-2.48-.9-3.92-4.07-6.78-3.82-2.26,1.39-3.61,3.91-6,5.13a15,15,0,0,1-14.16-.7c-4.2-2.26-8.35-5.58-9.68-10.37a17.23,17.23,0,0,1,0-8.82m27.8,21.53c.91-.56,2-1.72,3-.67,4,2.84,8,5.82,12,8.73,1.32.78,1.55,2.39,1.55,3.79-.05,46.64-.19,93.27,0,139.9,14.49-13.12,27.32-28.46,35.6-46.28,8.9-19,12.21-41.12,6.59-61.53-1.53-6.38-5.12-12-7.88-17.84-4.45-9.05-9.15-18-13.42-27.11,15.38,13.1,27.91,29.92,34.54,49.11a95.77,95.77,0,0,1,.31,62.46c-6.22,18.39-17.92,34.67-32.5,47.37a148.63,148.63,0,0,1-14,10.65c2.29,2.88,6.15,3.45,9.54,4.13a166.58,166.58,0,0,0,21.18,1.69c4.77.21,9.58-.19,14.33.48-9.67,5.11-20.71,6.95-31.54,7.23-8.17.58-16.34-.36-24.5-.61-2.35,4.06-4.77,8.07-7.09,12.14a1.87,1.87,0,0,1-3.19.42c-3-4.18-5.33-8.78-8.39-12.88-2.8-.19-5.58.55-8.38.64-10.45,1.05-21.11.83-31.33-1.7A88.55,88.55,0,0,1,191.88,304c11.06.83,22.31.87,33.22-1.37,3.18-.64,6.4-1.64,8.89-3.82A103.8,103.8,0,0,1,211.84,282c-.85-.86-1.62-1.8-2.38-2.73,8.94-.51,17.89,0,26.83-.25-9,.06-18.1-.23-27.14.16A111.25,111.25,0,0,1,182,225.46c-3.84-19.72-1.8-40.73,6.84-59,6.75-14.51,17.53-26.94,30.29-36.51C209.32,146.37,202,164.55,200,183.66a104.79,104.79,0,0,0,13,62.12c7.51,13.5,17.61,25.43,28.93,35.88.09-9.39-.59-18.76-.66-28.15-.55-7.07-.19-14.16-.77-21.22-.17-15.7-1.1-31.39-1.24-47.1-.85-15.94-.84-31.9-1.66-47.83,3.89-3.09,8.1-5.73,12.08-8.68m46.43.25a85.28,85.28,0,0,1,50.06,28.43,84,84,0,0,1,19.64,47.36,91.33,91.33,0,0,1-5.26,38.83,51.55,51.55,0,0,1-6.2,12.83,109.59,109.59,0,0,1-17.71,21.18A57.59,57.59,0,0,1,320.79,288l-.16-1.89a106.77,106.77,0,0,0,10.63-117.85,115.33,115.33,0,0,0-35.08-39.34m-96.91,3.22c2.95-1,6-2.54,9.17-1.78a16,16,0,0,1-2.5,2.7c-13.16,11.35-24.54,25-32.05,40.77a99.09,99.09,0,0,0-9.59,36.63c-1.57,23.92,5.92,47.59,17.5,68.29,1.9,3.75,5.24,6.56,6.89,10.46A60.38,60.38,0,0,1,167.78,275a95,95,0,0,1-18.12-26.06,64.42,64.42,0,0,1-5-12.63,102.43,102.43,0,0,1-2.39-32.74,82,82,0,0,1,16.5-42.49c10.28-13.35,24.75-23.12,40.48-28.93m52.86,272.54c7.35-5.15,13.81-11.41,20.25-17.61l2.66.15c-.38,2.32-.42,5.29-2.73,6.61-4.08,2.5-7.4,6-10.92,9.18-6.44,6.1-13.17,12-20.84,16.53a64.18,64.18,0,0,1-29,9.2c-7.09.22-14.18,0-21.28,0-1,2.61-2,5.62-4.61,7.06-2.39,1.46-5.3,1-8,1.16-1.56,0-2.78,1.09-4,1.87l-1.26-1.17c1-3.54,2.44-7.45,5.87-9.32,2.39-1.52,5.33-.64,7.93-1.28,3-1.32,4.72-4.24,6.14-7,10.85.22,22,1,32.52-2.26a97.26,97.26,0,0,0,27.21-13.09m72.14,5.55a40.88,40.88,0,0,1,21.35-7.84c-6.26,4.78-14.28,6.34-20.61,10.94-5,3.76-6.8,10.13-7.61,16.06,1.71.13,3.42.19,5.13.25a8.11,8.11,0,0,1-3.16,6.13c-1.7,1.45-4,1.63-6.11,1.75-1.21-1-2.94-2.09-2.68-4,.22-2.92,2.19-5.3,3-8.08a46,46,0,0,1-13.48,2.71c-8.68.41-17.56-.05-25.9-2.7-4-1.34-8.41-3.41-10.17-7.53-1.45-3.45.71-6.94,2.5-9.8l2.83,0c.48,4.39,4.08,7.52,7.94,9.14,9.28,4,19.58,4.61,29.56,4.32,2.79-.24,6-.12,8.2-2.2,3.17-3,5.71-6.58,9.25-9.16m-33-3.16c1.23-1.56,3.37-.62,5-.4-.75,1.8-1.65,3.54-2.53,5.28a50.22,50.22,0,0,1-6.12.54c.55-2.19,2.29-3.75,3.67-5.42m35.36,9.29c2-1.66,4.25-4,7.14-3.41,1.3.93,1.45,2.65,1.92,4.06-1.79,1.2-3.58,2.94-5.9,2.74a12.16,12.16,0,0,1-3.16-3.39m10.91,8.93c2.64-3.55,5.61-7.13,9.82-8.86-2,4.91-5.83,8.88-7.69,13.89a18.94,18.94,0,0,0-1.25,7c1.67,0,3.34,0,5,0-1.62,3.59-4.27,6.92-8,8.43-1.41.55-2.82-.56-3.55-1.68-1.23-1.82-1.1-4.16-.62-6.2a35.89,35.89,0,0,1,6.26-12.58M192.12,442.16a21.73,21.73,0,0,1,2.92-4.24A4.91,4.91,0,0,1,200.4,441a24.86,24.86,0,0,1-2.4,5.12,18.59,18.59,0,0,1-6.06-.72c-.09.58-.17,1.17-.25,1.77,1.93.58,3.9,1,5.87,1.44a16.7,16.7,0,0,1-1.25,6.4,1,1,0,0,1-1.3.79,19.47,19.47,0,0,1-4-1.26c.28-1.38.59-2.75.92-4.11a36.9,36.9,0,0,1-7.06-1.87,17.83,17.83,0,0,1,2.7-7c1.51.18,3,.39,4.54.62m136.17,7.5c1,.09,2.07.18,3.11.29a19,19,0,0,1,1,5.29,51.35,51.35,0,0,1-5.72,2.3,11.13,11.13,0,0,1-3.24-4.46,27.17,27.17,0,0,0,4.87-3.42Z" style="fill:#4f4f4f"/></svg>