<?xml version="1.0" encoding="UTF-8"?>
<svg id="Layer_1" xmlns="http://www.w3.org/2000/svg" version="1.1" viewBox="0 0 512 512">
  <!-- Generator: Adobe Illustrator 29.2.1, SVG Export Plug-In . SVG Version: 2.1.0 Build 116)  -->
  <defs>
    <style>
      .st0 {
        fill: #a7a7a7;
      }

      .st1 {
        fill: #214b6a;
      }
    </style>
  </defs>
  <path class="st0" d="M180.8,235.1c55.2-31.9,120.1-44.9,183.4-41.9v135.1c-22-.5-44,1.5-65.8,4.3-33.2,4.5-65.7,13.1-96.7,25.6-37.3,15.5-72.2,38.3-98.1,69.6-13.4,16.1-24.4,34-32.8,53.3,1.7-24.6,3.5-49.1,5.5-73.6.4-13.9,2.6-27.7,3-41.5.6-11.1,2.2-22.2,2.4-33.3,0-3.3,1.1-6.5,3.2-9.1,18.2-27.7,42.2-51.4,68.9-70.9,8.7-6.3,17.8-12.1,27.1-17.4h0Z"/>
  <path class="st1" d="M426.6,57.4c5.4-8.5,9.9-17.5,14.5-26.4.3,47.7.1,95.4,0,143.1-21.4,31.2-47.3,59-76.9,82.5v-63.4c-63.4-3-128.2,10-183.4,41.9-9.3,5.3-18.4,11.2-27.1,17.4-.1-24.3,0-48.6,0-72.9,39.1,2.1,78.3-1.9,116.1-11.9,34.6-9.3,67.9-24,96.8-45.4,23.9-17.7,44.2-39.7,60-64.8M277.7,349.9c33.4-4.9,65,16.4,72.9,49.2,4.9,17.4,1,36.7-8.7,51.8-19.8,30.4-60.5,39.1-90.9,19.3-14.1-9.1-24.1-23.3-28-39.6-4.6-17.4-1-36.7,8.8-51.7,10.3-15.6,27.3-26.8,45.9-28.9"/>
</svg>