<?xml version="1.0" encoding="UTF-8"?>
<svg id="Layer_1" xmlns="http://www.w3.org/2000/svg" version="1.1" viewBox="0 0 512 512">
  <!-- Generator: Adobe Illustrator 29.2.1, SVG Export Plug-In . SVG Version: 2.1.0 Build 116)  -->
  <defs>
    <style>
      .st0 {
        fill: #fcb913;
      }

      .st1 {
        fill: #19499e;
      }
    </style>
  </defs>
  <path class="st1" d="M239.7,72.7c6-3.2,11.8-6.8,17.9-9.8,29.1,15.6,58.3,31,87.5,46.5-58.5,30.8-117.1,61.6-175.6,92.4-1.1.8-3.2,1-3,2.8,0,32.2,0,64.5,0,96.7,28.3,15.3,56.5,30.9,84.7,46.3-30.5,16-61,31.9-91.6,47.8-27.9-13.5-55.6-27.5-83.6-40.9-.2-48.5,0-97,0-145.5,0-15.1-.2-30.2.2-45.3,10.3-6.1,21-11.6,31.4-17.6,44.1-24.4,88.2-48.8,132.2-73.3"/>
  <path class="st1" d="M294.6,147.3c19.3-10.1,38.6-20.1,57.9-30.2,23.1,11.2,46,22.7,69.1,33.9,4.7,2.5,9.8,4.6,14.4,7.3.2,63.5,0,127.1,0,190.7-60.1,33.1-120,66.6-180.2,99.8-1.5.9-2.9-.2-4.2-.9-28.2-15-56.5-29.8-84.6-45,59.5-31.3,119.1-62.6,178.6-93.9,0-32.3,0-64.6,0-96.8.2-1.2-1.3-1.5-2-2-27.3-14.8-54.4-29.9-81.7-44.5l-.8-1.1c11.3-5.3,22.2-11.5,33.4-17.2"/>
  <path class="st0" d="M244.9,180.7c1-.6,2.2-1,3.4-.9,7.2-.6,14.5-.5,21.6.4l1.3.6c8.6,1.3,17.2,4.2,24.4,9l2,.5c.3,1.2,1.5,1.4,2.5,1.8.7.8,1.5,1.4,2.5,1.9,14.4,10.6,24.7,25.9,29.2,43.2,3.8,16,2.9,33.3-3.5,48.5-.4,1.2-1,2.4-1.7,3.4-4.6,11.1-13,20.3-22.1,28-4.4,3.2-8.9,6.1-13.7,8.6-6.9,2.7-13.7,5.8-21.1,6.3-1,.6-2.1.9-3.3.9-5.6.4-11.2.4-16.8,0-1.3-.1-2.8,0-3.9-.9-3-.5-6.1-.8-9.1-1.1v-1c-1.5-.2-3.1-.5-4.6-.9-1.2-1.2-2.9-1.3-4.5-1.7-1-.8-2.2-1.5-3.4-1.8-8.9-4.1-16.6-10.3-23.5-17.2-2.8-3.2-5.4-6.6-7.8-10.1-5.8-9-9.7-19.1-11.6-29.7-1-8.6-.9-17.4.2-26,.9-2.8,1.5-5.7,1.9-8.6,1.6-2.7,2-5.9,3.7-8.7,3.4-7.9,8.2-15.2,14.1-21.6,3.9-4.5,8.8-7.9,13.4-11.6,7-3.8,13.8-8.4,21.8-9.8,2.6-1.6,5.8-1.2,8.6-1.7h0Z"/>
</svg>