<?xml version="1.0" encoding="UTF-8"?>
<svg id="Layer_1" xmlns="http://www.w3.org/2000/svg" version="1.1" viewBox="0 0 512 512">
  <!-- Generator: Adobe Illustrator 29.2.1, SVG Export Plug-In . SVG Version: 2.1.0 Build 116)  -->
  <defs>
    <style>
      .st0 {
        fill: #df343a;
      }
    </style>
  </defs>
  <path class="st0" d="M350.2,18.3c25.1-6.7,52,13.9,54.7,39.2.9,8-1.1,16-4.2,23.4-10.2,22.3-40.4,32.2-61.9,20.5-9.3-5.4-17.4-13.8-20.7-24.3-5.4-16.4-1-35.8,11.5-47.8,5.6-5.6,13.2-8.6,20.7-10.9M248.9,46.9c26.3-5,53.3,18.8,52.2,45.5-.8,9.2-3.4,18.7-9.3,26-13.8,17.5-41.4,22.7-60.2,10.2-8.5-5.9-15.7-14.4-18.2-24.7-4.5-16.8,1.1-36.3,14.5-47.4,6-5.1,13.5-7.8,21.1-9.5M151.7,93c24-5.4,50.4,12.8,53.7,37.2.9,9.7-.2,20-5.3,28.5-9.8,16-28.1,24.8-46.7,22.3-9.7-1.4-18.1-7-25.1-13.6-16.8-17.3-14.8-48.3,2.9-64.2,5.7-5.2,13.1-8.2,20.4-10.2M317.3,129.8c38.8-11.6,78.6-19.6,118.8-24.1,0,25.5.4,51.1.9,76.7-57.8,6.1-115.9,16.4-169.4,39.8-.3,1.4-.6,2.8-.9,4.2,17,6.5,35.8,4.6,53.2,9.6,9.4,3.1,19,6.1,27.4,11.4,16.8,10.1,30.5,26.2,35.8,45.3,2.2,7.4,2.4,15.2,2.7,22.9.3,15.7-4.3,31.1-12,44.6-9,15.9-21.7,29.3-35.8,40.8-13.4,11-28.5,19.6-43.6,28.1-67.4,37-142.9,57.5-219,65.9.1-25.9-.8-51.8-.4-77.7,41.6-3.3,83.3-9.4,123.3-21.9,31.6-9.8,62.1-23.8,89.2-42.8,12.4-8.8,23.6-20.1,29.7-34.3-6.1-8.2-15.6-13.3-25.6-15.4-11.9-2.7-24.1-2.5-36.2-3.1,0-21.4,1.9-42.9,0-64.3-.2-2.3-.8-4.6-1.8-6.7-16.3,10.2-33.3,20.1-46.8,34-4.6,4.6-9,10.1-9.9,16.7-.9,4.8,1.4,9.5,5.6,11.9,11.4,6.4,24.7,7.8,37.4,8.6,5.3.2,10.5.9,15.8.8-.3,23.3-.5,46.5-.6,69.7-20.9.6-42.2-.4-62.5-5.8-15.5-4.2-30.5-11.2-42.7-21.8-12.2-10.7-19.9-25.7-22.8-41.4-3.8-20.4-.4-41.6,9.5-59.8,9.9-16.7,23-31.5,38.4-43.4,13.1-10.2,27.1-19.1,41.8-26.7,32.1-16.9,65.5-31.5,100.3-41.9"/>
</svg>