<svg xmlns="http://www.w3.org/2000/svg" viewBox="0 0 512 512"><path d="M247,15.17c5.1-3.69,7.11-9.75,9.7-15.17,1.67,4.79,3.09,10.08,7.29,13.35C284.2,30,311.17,34.41,333,48.35c10,6.17,19.53,13.35,26.88,22.58,10.11,12.38,15.41,28,26,40,5.23,6.18,12.27,10.25,18.79,14.89-6.52,4.68-14.19,7.18-21.69,9.73,4.21,3.79,10.49,9,16.23,5.48,1.22-2.83,1.71-5.89,2.77-8.77,3.2-1.25,5.91,1.06,8.52,2.54.63,3.08,1.29,6.17,2,9.26,8.05,1.34,9.58,9.66,10.45,16.44-1,1.34-1.93,2.68-2.88,4a88.77,88.77,0,0,1,6.33,12.4c-2.14,5.06-4,10.34-7.48,14.68-.23,2-.44,4-.65,6,7.33,4.89,6.33,13.92,6,21.57,4.17-3.52,5.52-10.92,11-12.17,5.15,3.27,6,10.13,7.25,15.62,1.38,4.22-1.59,7.86-3.2,11.52,2.08,3.54,5.59,6.74,5.51,11.15,1.16,4.83-3.73,7.25-6.67,10-1.06,3.77-.9,8.92-5.45,10.26a26.91,26.91,0,0,0-12.86,10.76c6,.95,5.66,6.86,7.1,11.4a69.82,69.82,0,0,0,5.87,5.67c3.62-1.08,7.45-4.17,11.27-2a34.92,34.92,0,0,1-2.57,18.27c.07,2.41,2.46,5.84-.44,7.41a78.54,78.54,0,0,1-8,3.58c4.53,5,5,11.91,2.14,17.91a51.78,51.78,0,0,1-8.47,1.48c-3.61,8.45-16.06,3.51-19.14,12.69a64.17,64.17,0,0,1,.66,13.43,120.86,120.86,0,0,1,12.58-2.58c4.47,5.72-.16,12-1.86,17.84-2.08,3.39-4.79,6.35-7,9.68l-6.95-2c.13,4.11,1.29,8.07,2.16,12.07-1.19,2.33-3.3,4-5.08,5.87-.94,3.28-1.85,8.09-6.43,7.12-11-1.42-21.24,4.26-29.49,11,2.23,2.14,5.09,4.28,5,7.75,1.19,4.45-3.58,6.76-5.91,9.72.74,7.87-9,10.72-7.46,18.94,5.15.9,10.34,1.68,15.45,2.76a53.8,53.8,0,0,1-2,6.55c-2.12.59-4.28,1.06-6.46,1.44-2.32,2-4.43,4.3-7.17,5.68-2.18-.34-4.3-1-6.42-1.51-1.31,5.59-6.2,8.94-10.65,12-11.81-1.27-24.52-4.74-35.81.85l3.52,1.57c-.79,1.54-2.35,4.59-3.14,6.1,13.18-2.06,27.88-4.37,40.26,1.88-6.87,1.19-13.86.81-20.75,1.61,2.82,4.29,6.17,8.21,9.39,12.23-8.43-1.84-17.06-3-25.7-2-7.63.17-16.59,1.76-22.95-3.52-2.14-2.69,2.42-4.39,3.48-6.44-8.26-.66-17.82-.55-23.12-8.16-4.87-.4-9.78-1-14.59.21l-4-2.75c-5.06,8.16-15.17,8.05-23.58,9,1.82,1.89,3.62,3.82,5.38,5.79-13.92,10.08-32,6.56-47.75,4.32,2.67-2.29,5.36-4.54,8-6.84-6.43-3.59-13.92-5-19.92-9.35,13-.31,25.93,3.26,38.9.77-1-2.4-2-4.83-3-7.25,3.22-1.19,6.57-2.33,10.06-1.82,10,.93,20.2.06,29.56-3.63-16-1.5-31.91,3.27-48,1.8-19.32-.44-36-11.22-51.21-22.11-3.87-3.48-9.07-2.61-13.81-2.5,5.64-7.86,14.83-11.83,24.28-12.57-1.31-3.86-2.46-7.77-3.56-11.69-15.81-6.59-30.83-15.73-43.2-27.65-7.5-6.82-9-17.21-13.48-25.83-1.69-4-6.31-4.79-9.78-6.59,7.69-4.66,17-3.9,25.14-.72.94-5.76,2.1-11.48,3.06-17.22a100.13,100.13,0,0,1-33.12-32.89c-4.66-7.37-5.17-16.27-7-24.55-.87-5.15-5.39-8.06-8.78-11.49,8.54-1.18,17.23.19,24.56,4.86,1.57-4.64,3.35-9.22,5-13.8C84.88,268.93,76.82,257,74.51,243.4c-3.17-13.69,2.33-27.46-.21-41.21a199.76,199.76,0,0,1,14.92,20.3,68,68,0,0,1,11.23-15.58c-4.47-5.86-8.22-12.56-8.82-20-2.18-19.39,6.89-37.39,14.14-54.73,6.82,3.48,12.45,9.94,11.25,18.16,5.63-6.61,12.56-11.9,19.79-16.63-7.67-4-16.15-7.54-21.23-15,9.1-3.45,15.55-11.12,21-18.83,8.25-12.48,15.6-25.73,26-36.61a106.63,106.63,0,0,1,40.73-27.34c15-5.8,30.72-10.78,43.58-20.76m9.42-4.47C242.87,27.33,221,32.54,202.06,40.47A103.7,103.7,0,0,0,162.44,69c-14.7,16.45-22.31,38.82-40.91,51.81,6,4,12.48,7.14,18.75,10.66,9,4.8,14.47,13.92,23.18,19.09,12.88-19.81,29.49-37.82,50.63-48.88,22.17-12.19,49.6-14.67,73.38-5.75,26.69,9.69,47.41,31,62.35,54.52A58,58,0,0,0,365,141c9.28-8.26,22-10.21,33.06-15-5.22-3.81-10.7-7.39-14.9-12.35-10.91-12.42-16.25-28.54-26.82-41.19-10.13-12.31-24-20.85-38.05-28-21.17-10-45.77-15.79-61.94-33.84M233.74,97.61c-27.42,8-49.62,28.37-65,51.89-28.47,43.49-37.52,98-29.36,148.94,6,38.05,21.59,75.6,49,103.21q68.75,0,137.44-1.91c21.3-21.93,35.07-50.24,42.82-79.58C381.31,271.36,377.83,218.1,357,172c-12.14-26.36-30.51-50.87-55.93-65.66-20.06-11.82-44.9-15.47-67.33-8.75m-100.81,67c6.33-4.64,14-6.59,21.71-6.93a186.6,186.6,0,0,1-16.12,31.57c-5.91,9.25-16,14.45-25.66,18.87.34,4.14.62,8.29.87,12.44,5-3.69,10-7.24,15.07-10.82-2.17,9.95,2.22,20.12-.7,30-4.94,16.44-14.86,31.36-16.72,48.69,5-6.37,10.06-12.75,13.81-20,2.23,7.46-1.37,15.34,1.53,22.63,3,8.31,5.78,17.06,4.28,26-.7,11.89-6.15,22.78-7.67,34.49,1.84,5.32,6.7,9.13,9.6,13.92,2.41-7.33,6.78-13.83,8.87-21.31,3.86,6.27,5.89,13.37,8,20.36,2.38,8.05,7.65,14.89,9.73,23.05a69.06,69.06,0,0,1,.82,33.86c4.45,1.93,8.82,4,13.16,6.23-1.88-8.25-.17-16.8-2.12-25.07,5,3.58,7.55,9.3,11.11,14.13,5.44,6.11,14,8.65,18.85,15.39,6.31,9.42,8.24,20.8,12.25,31.21,1,4,5.87,4.57,8.66,6.88-7.12-5.44-3.64-14.62-4-22.1.31-7.46,9.49-4.79,14.34-4.87,8.09,1.19,15.09-3.73,22.82-4.81,7.16.45,13.45,5.66,20.87,4.37,6.12.19,13.45-2.4,18.71,1.75a23.71,23.71,0,0,1,.25,16.72c-4.68,3.67-9.57,7.14-13.37,11.82,8.54-.84,14-6.9,18.1-13.75.57-3.69.63-7.75,3.19-10.74,3.25-3.45,2.93-8.35,4.37-12.56,3.05-2.23,6.38-4.07,9.36-6.44,3.18-2.93,8.35-2.15,11.08-5.75,2.32-1.84,4.37-5.59,7.85-4.62,3,.26,3.36,3.65,4.66,5.73a34.08,34.08,0,0,0,11.82-24.28c-.59-4.5-3.14-8.44-4.66-12.68,3.3-4.51,6.78-9,12.05-11.31-1.12-4.11-1.25-8.52,2-11.72,5-4.76,3.53-13.6,10.59-16.35a119,119,0,0,0,9.83,11.59c4.2-5.22,6.36-11.74,7.37-18.29,1-9.21-7-15.93-8.43-24.53,1.14-5.49,2.73-11.32,8.56-13.43-2.1-2.87-4.28-5.73-6.38-8.61a62.69,62.69,0,0,1,6.93-5.17c.68-3.75-1.29-9.68,3.81-10.76,3.29-1.52,5.9,2.88,8.78,4.13-4-9.3-13.16-16.78-11.28-27.86-2.11-1.61-4.21-3.24-6.2-5,2.5-4,2.35-8.49,1.59-13,5-7.1,2.2-15.77-1-23,2.23-.87,4.32-3.1,6.87-2.63,2.58,2.16,4.63,4.87,6.9,7.33q3.06-4.26,6.1-8.56c-2.52-3.18-4.91-6.57-8.09-9.13-4-3.3-9.6-2.78-14.09-5-2.24-2.35-3.79-5.23-5.55-7.92-6.27-3.94-14.28-10.56-10.32-18.8-3.09-5.63-6.78-11.31-7.65-17.75-.68-.76-1.37-1.49-2-2.23l-6.38,3.56c26.51,45.43,33.6,100.75,24,152.11C368.47,343.3,352.13,380.2,324,406.63c-18.32,17.47-42.94,29.21-68.56,28.81-28.24.06-54.7-14.7-73.46-35.13-25.59-27.65-40.21-63.94-46.27-100.77-7.9-49.6,0-102.43,26-145.78-8.65-4.94-14.2-13.56-22.42-19.07-5.36,9.09-5.59,19.76-6.31,30m263.21-18.1c2.6,5.24,9,6,12.86,9.88,2,3.26-.56,7-1,10.38,7.69,9.4,2.8,22.14,2.8,33.07,1.54-.81,3.07-1.63,4.62-2.46.27-2.29.55-4.57.86-6.86a114.17,114.17,0,0,0,7.17-13.41c-1.83-3.67-4-7.21-5.28-11.11.27-4.83,2.35-10.06-.32-14.59-2.54-3-6.86-4.45-8.3-8.35-1.49-3.26-2.84-6.57-4.37-9.81-1.48,5.38-3.77,10.57-9,13.26M94.15,181c-.19,8.9,2.67,18.2,9.64,24.11,1.76-11.22.47-22.79,3.33-33.87,1.65-8.31,6.93-15.66,6.93-24.33,0-4.57-3.9-7.67-6.34-11.1C100.89,150,94.37,165,94.15,181M359.61,149.5c5.93,2.67,12.54,2.58,18.77,4a132,132,0,0,0-.87-16.4c-6.4,3.48-11.88,8.33-17.9,12.36m20.7-11.8a71,71,0,0,1,.47,17.84c2.28,2.14,4.51,4.34,6.73,6.56-1.59,1.89-3.2,3.77-4.81,5.66,1.82,4.62,6.44,6.23,10.38,8.54a73.4,73.4,0,0,1,1.32,7.8c4.83,5,10.29,9.53,14,15.53,0-8.78,1.31-17.55.55-26.36-6.1-3.69-3.6-10-1.69-15.28-3.73-2-7.7-3.62-11.25-5.93-1.45-2.14-2.27-4.64-3.69-6.82-4-2.46-8.28-4.56-12-7.54m-265.2,20.42c-6.44,11.27-7,24.58-7.56,37.21,1.61,2.35,3.17,4.76,4.7,7.16,4.91-6.55,10.23-12.91,13.69-20.39,6.58-13.47,3.22-29,7.54-43.09-6.76,5.66-14.11,11.17-18.37,19.11m247.64-4.05a153.74,153.74,0,0,0,8.68,16.34c-.93,1.8-1.84,3.6-2.75,5.4a42.36,42.36,0,0,0,11.37,11c2.51,3.85,4.79,8.87,10.09,9.06,6.63.94,11.52,5.68,16.4,9.79-1.72-11.48-15.62-15.55-16.38-27.39-5.68-1.68-9.11-6.21-10.45-11.81,1-1.18,3.16-3.51,4.2-4.66-5.91-5.27-13.37-7.47-21.16-7.69m-228.38,14c-2.1,3.39-2.78,7.41-4.18,11.1-3,9.3-9.53,16.8-14.93,24.75,5.32-2.72,10.76-5.45,15.17-9.56,9.42-9.3,14.36-22,19.87-33.77-5.61,1.57-12.08,2.65-15.93,7.48m278.91,34.17c-3,6.29-6.15,12.55-10.64,18a76.22,76.22,0,0,1,6.67,6.78c-2.05,2.41-4.87,3.9-7.43,5.65,1.37,5.09,3.64,9.86,5.29,14.84-.53,2.75-2.31,5-3.53,7.47,2.16,2.74,4.83,5.2,6.23,8.46,1.24,6.48.25,13.13.71,19.66a61.36,61.36,0,0,0,6.17-14.75c1.82-7.41,5.93-13.92,9.07-20.78-3-5.45-4.62-11.53-.45-16.87-6.27-6.5-3.58-15.38-3.83-23.36-.53-3.59-4.83-9.41-8.26-5.07M90.7,228.55c-2.08,12.39,2.35,24.55,6.32,36.08,2.3,2,4.51,4.13,6.69,6.29-.57-23.3,11.93-46,4.87-69.24-6.52,8.48-15.89,15.78-17.88,26.87M424.23,223a67.66,67.66,0,0,1,4,7.11,74.77,74.77,0,0,1-2.52,8c1,4.2,3.88,8.62,1.59,12.88-3.07,6.89-6.74,13.54-9,20.79,4.47-3.88,9.7-6.65,14.55-10,1.95-3.14,2.38-7.18,5.17-9.81,1.4-2.12,4.47-3.5,4.3-6.36-1.31-4.13-4.06-7.58-5.59-11.59a61.54,61.54,0,0,1,3.6-8.15,96.63,96.63,0,0,0-4.79-16.49A128.1,128.1,0,0,1,424.23,223M78.33,211.91c-1.15,9.16-2.71,18.44-1.51,27.68,1.78,13.75,8.73,27,20,35.36-1.91-10.94-7.6-20.87-8.9-31.95-.93-5.92,0-12-.86-17.87-1.93-5-5.58-9-8.69-13.22M389.44,214c1.93,6.67,3.39,13.5,3.14,20.49-.87,1.33-1.72,2.67-2.57,4a18.85,18.85,0,0,1-1.16,11.8c1.82,1.26,3.68,2.53,5.51,3.82.34,4.38-.6,9.28,2.14,13.09a82.91,82.91,0,0,1,10.21,20.64,120.69,120.69,0,0,0,.76-19.75c0-5.27-4.7-8.7-6.71-13.2a72.69,72.69,0,0,1,3.36-7.54c-2.14-5.23-5.46-10.59-4.45-16.46a59.74,59.74,0,0,1,5.83-4.49A154.51,154.51,0,0,1,389.44,214M112.63,230.18c-2.31,17.07-9.6,34.74-3.88,51.82,4.3-12.88,9.86-25.28,14.94-37.86,3.88-9,2.39-18.83,1.27-28.18-4.92,3.88-12.31,6.91-12.33,14.22m-20.09,74c3.37,16.08,13.06,30,23.25,42.55-.83-11.72.12-23.42.23-35.11-.32-15.17-8.84-28.11-16.1-40.81-2.12,11.21-10,21.55-7.38,33.37m23.14-11.56c1.08,7.64,3.88,15.08,3.33,22.9-.58,11.61-1.17,23.28.38,34.85,5.29-14.57,10.61-30,8.43-45.72-2.16-8.54-5.8-16.78-5.74-25.78-2.9,4.11-7.16,8.26-6.4,13.75M406,290.73c.44,2.42.74,4.87,1,7.35a109.8,109.8,0,0,0-10.93,9.28l5,6.57-6.84,3.47c1.48,9.37,4.42,18.56,4.72,28.06-1.27,5.48-5.57,9.7-7.58,14.93,9.85-4.51,14.08-15.57,19.09-24.47,2.84-3.56,7.6-5.12,10.21-8.85-.19-3.16-.87-6.27-.93-9.43,2.18-1.91,4.68-3.45,6.9-5.32,2.18-5.53,2.65-11.57,3.33-17.44-5-3.62-7.23-9.28-7.82-15.31-5.53,3.47-10.57,7.67-16.08,11.16m-18.64,5.06c1.44,2.87,5.89,5.87,3.68,9.43-2.77,3.92-5.63,7.78-7.71,12.16,3.05,6.8,7.44,13.16,8.77,20.62.95,9.7-4,18.52-9,26.4,6.06-4.75,9.45-12,12.58-18.8.55-10.14-4.05-19.74-4.3-29.81,1.59-1.1,3.24-2.13,4.92-3.11-1.13-2-2.25-4.05-3.35-6.1a83.48,83.48,0,0,1,11.4-10.51c-1.28-5.78-4.05-11.15-8.92-14.72-3.06,4.85-1.23,12.33-8.05,14.44M73.86,288.68C79,300.71,78,315,86.29,325.63c7.86,10.7,17.15,21,29.24,27.05-10.53-16.4-24.64-32.07-26.4-52.39.93-8.63-9.38-9.41-15.27-11.61M433,296.39c-1,5.87-2.12,11.71-3.16,17.56-2.45,1.72-4.91,3.39-7.37,5.07.59,4.08,3.1,9.57-1.55,12.18-5.25,3.56-10.1,7.75-12.18,14,4.64-1.21,9.94-1.42,13.56-5,3.07-3.22,7.48-3.81,11.65-4.57,1-5.66-1.24-10.81-3.87-15.62,3.3-2.1,6.73-4,10.13-5.95-.56-1-1.72-3-2.29-4,2.79-5.21,3.56-11.1,4.13-16.89-3,1-6,2.08-9.05,3.16M117.54,351c0,11.14-6.5,22.71-1.08,33.43,6.91,14.09,18.78,24.81,30.15,35.3-3-10.23-4.11-20.79-5.89-31.23-3.07-14.87-13.41-26.51-23.18-37.5m19,17.27c1.84,7,6.08,13.22,7.22,20.48,1.59,9.41,2.82,18.9,5,28.22,3.12,1,6.29,1.87,9.45,2.76,1.91-13.81,1.55-28.54-5.28-41-4.76-8.54-7.39-18-10.18-27.29-2.63,5.32-7.12,10.57-6.17,16.87M361.88,378c-3.84,3.35-7.84,6.55-11,10.57,1.54,3.94,4,7.7,4.26,12-.3,5.89-2.52,11.46-3.78,17.16,8.23-7.22,6.11-19.22,12.82-27.25l-3.51-6.23c2.71-4.21,4.57-8.91,7.28-13.09a65,65,0,0,1,9.24-1.27c.91-2.27,3.12-4.37,2.69-7-2.56-4.05-5.95-7.54-8.83-11.38-1.65,9.51-10.53,16.27-9.13,26.42m28.37-14.72c-5.34,1.59-8.71,6.27-13,9.49a66.22,66.22,0,0,1-7.93,1.06,86.89,86.89,0,0,1-5.36,11c1.36,2,2.69,4.07,4,6.11-7.56,6.25-5,17.07-11.06,24.21-5.11,7.76-12.9,13.29-17.84,21.19,8.35-5.19,13.9-13.69,22.2-19a101.6,101.6,0,0,0,17-14.2c0-3.18-.47-6.46.55-9.53,4.89-2.27,10.44-.64,15.65-1.06,1.09-6.25.89-12.67,2.36-18.84.74-3.9,5.51-3.92,8.35-5.57.21-4.37.38-8.77.44-13.14-4.87,3.25-9.68,6.74-15.42,8.27m9.38,10.42c-.95,6.7-.63,13.71-3.07,20.13-4.32,3.35-10.36,1.12-15.43,1.57-.27,3.37,2.12,7.77-1.08,10.29-9.68,10.43-23.11,16.47-32.14,27.59,5.47-1.89,11.3-3.69,15.2-8.28,8.62-9.18,21.31-15.6,34.15-13.61,1.86-3.85,4.15-7.45,6.19-11.18-.24-4.48-2.42-9.58.84-13.54a64.05,64.05,0,0,1,7.06.23c4.72-5.21,7.43-11.82,9-18.6-.55-.4-1.67-1.17-2.22-1.57-6.61.93-12.46,4.37-18.5,7m-305.11-.78c8,10.25,8.51,24.91,18.94,33.43,11.56,9.87,24.42,18.69,38.79,23.9-4.94-7.08-12.06-12.1-18-18.2-9.24-9.26-18.43-19.34-22.52-32-1.61-7.58-11.4-5.86-17.18-7.09m95.82,30.8c3.06,2.59,6.17,5.15,9.26,7.72,37,.48,73.86-.94,110.79-1,5.89.12,9.32-5.47,13.54-8.65-44.52.74-89.05,2.1-133.59,1.95m11.95,9.9c4.86,2.58,9.26,7.56,15.24,7,27.84-.13,55.72-.21,83.52-1.76,3.88-1.54,7.1-4.32,10.51-6.67-36.42.53-72.85,1.55-109.27,1.4m-27.12-1.25c.2,5.12-.72,10.78,2.17,15.36,2.24,3.37,5.63,5.74,8.53,8.49,8.95,7.89,14.67,18.8,24.12,26.21-2.48-8.83-5-17.77-9.24-25.91-3.16-6.4-10-9.38-15.39-13.47-4.1-2.84-7-6.91-10.19-10.68M151,421.1c2.88,7,4.93,14.34,7.18,21.59,2.25,7.94,9.79,12.62,16.72,16.12,14.15,6.78,29.68,9.91,44.91,13.3-5.86-3.43-11.82-6.84-16.52-11.8-9.26-9.57-16.17-21.74-28-28.56A161.19,161.19,0,0,0,151,421.1m67.2,1.78c24.41,12.22,54.79,11.84,78.65-1.57-26.21.57-52.44,1.52-78.65,1.57m102.32,7.9q-5.19,3.84-10.58,7.33c-.61,5.17-2.05,10.19-5.5,14.22a49.19,49.19,0,0,1-6.85,16.52c3.75-2.31,7.91-4.21,11-7.48,2.2-3.24,3.36-7.07,4.87-10.65,2.31-.36,4.6-.68,6.91-1,1.2-3.31,1.25-7.69,4.66-9.66,2.69-1.91,6-.39,9-.36,1-2.1,2.05-4.18,3.09-6.25-.4-4.07-.59-8.14-1.12-12.19-4.92,3.6-8.9,8.8-15.4,9.54m18.56-.74c2.58.63,3.49-.38,2.75-3-2.58-.64-3.49.38-2.75,3m-1.55,8.79-2.5,6.25c-2.27-1.36-4.53-2.75-6.78-4.11-3.62,2.94-4.68,7.39-5.64,11.72-2.3.14-4.57.25-6.82.4-1.95,4.28-3.17,9.26-7.14,12.22-7.65,6.59-18,7.72-27.27,10.74,8.12-.27,16.42-.16,24.33-2.22,8.22-3,15.84-7.73,24.53-9.47l3.8,6.53c6.33-.87,5.78-7.48,8.49-11.74,4,.08,8.14,3.22,11.91,1.16,1.4-4.76,2.9-9.53,6.78-12.9.27-5.34,3.88-9.11,7.62-12.52-.42-1.57-1.24-4.7-1.63-6.27-9.7,3.89-19.09,9.26-29.68,10.21M238.31,446c-5.7.32-11.42-.13-17.12-.17q-.28,9.47-.36,18.9A104.56,104.56,0,0,1,240,475.89c1.65-1.81,3.3-3.65,5-5.47C239,464,233,457.56,226.66,451.58c.51-.51,1.53-1.52,2.06-2,3.43,3.43,6.9,6.85,10.31,10.3,4.58-2.25,9.26-5,14.52-4.94,6.78,0,13.26,2.33,19.57,4.53,4.88-2.45,9.5-5.4,14.47-7.69-2.28,4.88-7.16,7.23-11.67,9.62-3.64,1.74-5.13,5.75-7.31,8.88,2.12,1.59,4.22,3.18,6.36,4.77,6.14-5.3,11.93-11,18.18-16.12.84-4.33.25-8.78.12-13.14-6.33-.78-12.67-.28-19,0-6.66.49-12.4-3.69-18.82-4.56-5.85,1.11-11.14,4.39-17.14,4.73m-99.24,7.84c13,6.71,24,17,37.93,21.95,19.19,7.63,40.06,3.18,60,2.46-14.62-3.27-29.58-5.05-43.92-9.52-13.31-4-27.21-9.07-36.27-20.21a67.34,67.34,0,0,0-17.74,5.32m102,8.13c1.72,2,3.48,4,5.26,6,6.82-.43,13.85-1.55,20.57.21,1.23-2.25,2.44-4.49,3.67-6.7-9.49-3.7-20.49-5.5-29.5.51m102.61.57c-.72,3.59-.55,8.75-5.08,9.81-4.58,2.46-8.28-1.46-11.08-4.55-8,2.88-15.3,7.39-23.5,9.6-8.64,1.46-17.48,1-26.1,2.58,10.27,1,20.49,2,30.59,4.26,10.39-1,21-1.61,31.15,1.67,4.62-3.22,7.71-7.86,10.63-12.58,2.4.36,4.75,1,7.12,1.63a34.84,34.84,0,0,1,13.8-8c-5-1-10.05-2-15.07-3a46,46,0,0,1-12.46-1.42m-92.95,7.44c-2.26,1.66-4.47,3.43-6.67,5.19,1.44,5.17,3.07,10.45,6.72,14.56,4.64-.64,9.32-.32,14-.32,3.67-3.54,5-8.69,6.91-13.22-3.26-2.4-6.55-4.72-10-6.89a18.64,18.64,0,0,1-11,.68m18.63,14c10.63,4.61,22.37,4.11,33.67,4.23.06-.59.19-1.78.25-2.37-8.14-1.89-16.51-1.87-24.77-2.84a17,17,0,0,0-9.15,1m-61.93,3.3A35.71,35.71,0,0,0,217.53,499c6.44-3.84,14.19-3,21.12-5.19,3.46-1.65,7.59-5.17,5.72-9.45-12.07,3.62-24.6,2.88-37,2.9m60.43.28c1.41,3.17,2.66,7.05,6.27,8.34,7.12,2.21,15.32.6,21.61,5.32A50.38,50.38,0,0,0,306.51,491c-13-.67-25.91-.87-38.7-3.51M181,495.63c3.25,1.85,6.68,3.48,9.56,5.91-.83,2.06-1.76,4.07-2.76,6.08,12.31.64,25.47,3.08,36.85-3.15a78.68,78.68,0,0,1-14.81-8.86c-9.51,2.14-19.28,1.4-28.84,0m121.72,3.31a80.41,80.41,0,0,1-15.36,7.31c13,4.11,26.66-.43,39.9,2.16-2.71-3.8-5.3-8.05-.76-11.59-7.93.68-15.81,1.95-23.78,2.12Z" style="fill:#2c241a"/><path d="M256.38,10.7c16.17,18.05,40.77,23.83,61.94,33.84,14.08,7.11,27.92,15.65,38.05,28,10.57,12.65,15.91,28.77,26.82,41.19,4.2,5,9.68,8.54,14.9,12.35-11.09,4.77-23.78,6.72-33.06,15a58,58,0,0,1-15.21,9.41c-14.94-23.56-35.66-44.83-62.35-54.52-23.78-8.92-51.21-6.44-73.38,5.75-21.14,11.06-37.75,29.07-50.63,48.88-8.71-5.17-14.18-14.29-23.18-19.09-6.27-3.52-12.75-6.68-18.75-10.66,18.6-13,26.21-35.36,40.91-51.81a103.7,103.7,0,0,1,39.62-28.51C221,32.54,242.87,27.33,256.38,10.7m-2.54,12.48c.19,1,.58,2.94.77,3.92q3.61-1.62,7.2-3.29l-8-.63m-.38,35.7c2.1,1.8,4.43,3.33,6.53,5.13-2.5,7.2-10.79,12.37-18.29,9.76-6.61-6.12-1.1-15.63-.17-22.94a39.41,39.41,0,0,0-4,25.66c1.48,6,9.32,7.05,13.92,4.11,7.16-4.71,10.34-14,9.09-22.25-1.87-3.16-4.43-6-5.22-9.64,7.1.59,8.33-5.89,8.37-11.38-1.35.91-4,2.69-5.33,3.6-.6-4-1.06-8-1.59-12-.91,10-1.91,20-3.31,30M222.61,40.3c-.91,9.34,2.27,18.26,5.13,27,.34-9.28-2.56-18.18-5.13-27M195.45,55.43c.51,9,4.18,17.37,8.2,25.31-.85-8.94-4.49-17.24-8.2-25.31M320,61.25c.78.94,2.29,2.82,3.07,3.77,3.69-1.58,5.83-4.45,5.28-8.64q-4.23,2.32-8.35,4.87M213.59,70.83c-.22,5.61-3.22,10.42-5.3,15.46,2.33-2.28,6.42-3.81,6.46-7.56.41-6.8,2.9-13.26,3.12-20.08-2.25,3.73-4.11,7.75-4.28,12.18m51.35,1.93c3.14,4.78,8.59,7.1,13.58,9.45,11,4.81,24,7.84,35.2,1.9-2.42,4.77-7.23,9.2-6.53,15,3.71,3.07,7.1-1.57,10.43-3-1-.63-3-1.84-4-2.45-.57-8.84,8-15.09,12.82-21.7,10.47.74,20.7,3.16,31,4.75-6.85-5.45-16.13-5.19-24.41-6.1-9.22-1.62-13.81,8.32-20.3,12.9-16,0-34.49-4.54-44.64-17.86a50.87,50.87,0,0,0-3.18,7.12m-80.66-5.34c1.28,7.22,7.1,12.41,8.93,19.38.14,8.14-7.27,17.12-15.92,15.55-4.89-3.58-5.55-10.1-7.84-15.25,1.32,6.31,2.5,13,6.51,18.26,2,2.8,5.59,5.09,9.17,4,6.59-1.8,10.64-8.83,10.47-15.42-.17-9.92-4.77-19.29-11.32-26.55m41.07,14.32L218.57,81c-.24,2.59-.47,5.19-.68,7.78,1.9.16,3.79.29,5.7.44.27-1.38.8-4.15,1.08-5.53l6.06,1.38c.36-1.63,1.1-4.88,1.48-6.51-1.33-.68-4-2-5.3-2.71-.4,1.46-1.18,4.41-1.56,5.87m101.46,22.48c3.35-.11,6.42-1.57,9.51-2.71-1.46-1.85-2.94-3.73-4.38-5.59,3.33-6.32,7.71-12,11.44-18.06-7.46,7.08-15.83,15.57-16.57,26.36M178,83.18c-.08,2.48,0,5,.13,7.46l6.29.19c0-2.54-.1-5.08-.17-7.59q-3.13-.15-6.25-.06m144.52,31.61a62.81,62.81,0,0,0,6.17-3.15,52.38,52.38,0,0,0-.43-6.26c-3.51,2.25-8.81,4.22-5.74,9.41Z" style="fill:#fff6b1"/><path d="M253.84,23.18l8,.63q-3.58,1.67-7.2,3.29c-.19-1-.58-3-.77-3.92m-.38,35.7c1.4-9.94,2.4-19.94,3.31-30,.53,4,1,8,1.59,12,1.33-.91,4-2.69,5.33-3.6,0,5.49-1.27,12-8.37,11.38.79,3.69,3.35,6.48,5.22,9.64,1.25,8.28-1.93,17.54-9.09,22.25-4.6,2.94-12.44,1.88-13.92-4.11a39.41,39.41,0,0,1,4-25.66c-.93,7.31-6.44,16.82.17,22.94,7.5,2.61,15.79-2.56,18.29-9.76-2.1-1.8-4.43-3.33-6.53-5.13M222.61,40.3c2.57,8.79,5.47,17.69,5.13,27-2.86-8.71-6-17.63-5.13-27M195.45,55.43c3.71,8.07,7.35,16.37,8.2,25.31-4-7.94-7.69-16.29-8.2-25.31M320,61.25q4.13-2.53,8.35-4.87c.55,4.19-1.59,7.06-5.28,8.64-.78-1-2.29-2.83-3.07-3.77M213.59,70.83c.17-4.43,2-8.45,4.28-12.18-.22,6.82-2.71,13.28-3.12,20.08,0,3.75-4.13,5.28-6.46,7.56,2.08-5,5.08-9.85,5.3-15.46m51.35,1.93a50.87,50.87,0,0,1,3.18-7.12C278.27,79,296.72,83.5,312.76,83.5c6.49-4.58,11.08-14.52,20.3-12.9,8.28.91,17.56.65,24.41,6.1-10.34-1.59-20.57-4-31-4.75-4.85,6.61-13.39,12.86-12.82,21.7,1,.61,3,1.82,4,2.45-3.33,1.47-6.72,6.11-10.43,3-.7-5.83,4.11-10.26,6.53-15-11.23,5.94-24.22,2.91-35.2-1.9-5-2.35-10.44-4.67-13.58-9.45m-80.66-5.34c6.55,7.26,11.15,16.63,11.32,26.55.17,6.59-3.88,13.62-10.47,15.42-3.58,1.06-7.14-1.23-9.17-4-4-5.27-5.19-12-6.51-18.26,2.29,5.15,3,11.67,7.84,15.25,8.65,1.57,16.06-7.41,15.92-15.55-1.83-7-7.65-12.16-8.93-19.38m41.07,14.32c.38-1.46,1.16-4.41,1.56-5.87,1.32.66,4,2,5.3,2.71-.38,1.63-1.12,4.88-1.48,6.51l-6.06-1.38c-.28,1.38-.81,4.15-1.08,5.53-1.91-.15-3.8-.28-5.7-.44.21-2.59.44-5.19.68-7.78l6.78.72m101.46,22.48c.74-10.79,9.11-19.28,16.57-26.36-3.73,6.08-8.11,11.74-11.44,18.06,1.44,1.86,2.92,3.74,4.38,5.59-3.09,1.14-6.16,2.6-9.51,2.71M178,83.18q3.12-.09,6.25.06c.07,2.51.13,5.05.17,7.59l-6.29-.19c-.09-2.48-.21-5-.13-7.46m144.52,31.61c-3.07-5.19,2.23-7.16,5.74-9.41a52.38,52.38,0,0,1,.43,6.26,62.81,62.81,0,0,1-6.17,3.15m-88,62.4c2.44,5,4.68,12.24,11.44,12.39,4.89,1,8-3.54,11.1-6.44,2.69,3,5.19,7.4,9.9,6.7,6-.34,8-6.8,10.78-11,1.93,5.83.95,14.09-5.47,16.67-5.17,2.61-10.84.19-15.86-1.56-7.53,3.37-16.87,3.51-22.46-3.41a131.82,131.82,0,0,1,.57-13.33m12,26.53c3.07-3.29,6.8-5.87,10.23-8.76,3,3.12,7.27,5.36,9.41,9.18.34,30.63-1.23,61.29-.91,91.93,28.11-22.76,33-67.5,12.54-96.78,10.6,7.81,18.35,19.15,22.74,31.5,6.4,18.14,3.79,38.94-6.28,55.24-5.42,9.4-13.45,16.88-21.73,23.71,9.51,3.89,19.74,4.8,29.91,4.93-12.28,7.14-26.9,4.47-40.38,5-1.74,3.12-3.49,6.23-5.21,9.36-2.37-3.09-4.3-6.56-7.18-9.19-12.93-1.44-28.54,3.07-39-6.95,9.9.68,20.3,1.44,29.56-2.94-11.48-11-23.08-22.82-27.89-38.42-9.66-25.48.07-56.59,22.66-71.8-21.87,28.45-16.95,74.49,12.62,95.85.13-30.61-1.54-61.23-1.1-91.82m-59.26,28.11c8.52-16.31,24.28-28.41,41.57-34.17-13.43,13.3-27.52,27.79-31.4,47.05-5.17,21.3,3.22,42.33,10.57,62-23-16.15-33.64-49.2-20.74-74.86m98.41-33.62c17.1,6.33,32.42,19,40.22,35.65,12.1,25.75.42,58.84-23.29,73.57,5-12.55,11.17-24.88,12.89-38.46,3-16.25-1.09-33.33-10.11-47.06-5.32-8.89-13.16-15.78-19.71-23.7Z" style="fill:#e30612"/><path d="M396.14,146.55c5.25-2.69,7.54-7.88,9-13.26,1.53,3.24,2.88,6.55,4.37,9.81,1.44,3.9,5.76,5.34,8.3,8.35,2.67,4.53.59,9.76.32,14.59,1.31,3.9,3.45,7.44,5.28,11.11a114.17,114.17,0,0,1-7.17,13.41c-.31,2.29-.59,4.57-.86,6.86-1.55.83-3.08,1.65-4.62,2.46,0-10.93,4.89-23.67-2.8-33.07.46-3.37,3-7.12,1-10.38-3.82-3.92-10.26-4.64-12.86-9.88M94.15,181c.22-16,6.74-31,13.56-45.19,2.44,3.43,6.32,6.53,6.34,11.1,0,8.67-5.28,16-6.93,24.33-2.86,11.08-1.57,22.65-3.33,33.87-7-5.91-9.83-15.21-9.64-24.11m268.6-27c7.79.22,15.25,2.42,21.16,7.69-1,1.15-3.16,3.48-4.2,4.66,1.34,5.6,4.77,10.13,10.45,11.81.76,11.84,14.66,15.91,16.38,27.39-4.88-4.11-9.77-8.85-16.4-9.79-5.3-.19-7.58-5.21-10.09-9.06a42.36,42.36,0,0,1-11.37-11c.91-1.8,1.82-3.6,2.75-5.4a153.74,153.74,0,0,1-8.68-16.34m-228.38,14c3.85-4.83,10.32-5.91,15.93-7.48-5.51,11.78-10.45,24.47-19.87,33.77-4.41,4.11-9.85,6.84-15.17,9.56,5.4-7.95,11.88-15.45,14.93-24.75,1.4-3.69,2.08-7.71,4.18-11.1M424.23,223a128.1,128.1,0,0,0,11.33-13.59,96.63,96.63,0,0,1,4.79,16.49,61.54,61.54,0,0,0-3.6,8.15c1.53,4,4.28,7.46,5.59,11.59.17,2.86-2.9,4.24-4.3,6.36-2.79,2.63-3.22,6.67-5.17,9.81-4.85,3.31-10.08,6.08-14.55,10,2.22-7.25,5.89-13.9,9-20.79,2.29-4.26-.63-8.68-1.59-12.88a74.77,74.77,0,0,0,2.52-8,67.66,67.66,0,0,0-4-7.11M78.33,211.91c3.11,4.26,6.76,8.25,8.69,13.22.84,5.9-.07,12,.86,17.87,1.3,11.08,7,21,8.9,31.95-11.23-8.31-18.18-21.61-20-35.36-1.2-9.24.36-18.52,1.51-27.68M389.44,214a154.51,154.51,0,0,0,16.06,12.42,59.74,59.74,0,0,0-5.83,4.49c-1,5.87,2.31,11.23,4.45,16.46a72.69,72.69,0,0,0-3.36,7.54c2,4.5,6.67,7.93,6.71,13.2a120.69,120.69,0,0,1-.76,19.75,82.91,82.91,0,0,0-10.21-20.64c-2.74-3.81-1.8-8.71-2.14-13.09-1.83-1.29-3.69-2.56-5.51-3.82A18.85,18.85,0,0,0,390,238.5c.85-1.35,1.7-2.69,2.57-4,.25-7-1.21-13.82-3.14-20.49M112.63,230.18c0-7.31,7.41-10.34,12.33-14.22,1.12,9.35,2.61,19.22-1.27,28.18-5.08,12.58-10.64,25-14.94,37.86-5.72-17.08,1.57-34.75,3.88-51.82m3.05,62.42c-.76-5.49,3.5-9.64,6.4-13.75-.06,9,3.58,17.24,5.74,25.78,2.18,15.68-3.14,31.15-8.43,45.72-1.55-11.57-1-23.24-.38-34.85.55-7.82-2.25-15.26-3.33-22.9m271.71,3.19c6.82-2.11,5-9.59,8.05-14.44,4.87,3.57,7.64,8.94,8.92,14.72A83.48,83.48,0,0,0,393,306.58c1.1,2.05,2.22,4.07,3.35,6.1-1.68,1-3.33,2-4.92,3.11.25,10.07,4.85,19.67,4.3,29.81-3.13,6.83-6.52,14-12.58,18.8,5.06-7.88,10-16.7,9-26.4-1.33-7.46-5.72-13.82-8.77-20.62,2.08-4.38,4.94-8.24,7.71-12.16,2.21-3.56-2.24-6.56-3.68-9.43M73.86,288.68c5.89,2.2,16.2,3,15.27,11.61,1.76,20.32,15.87,36,26.4,52.39-12.09-6-21.38-16.35-29.24-27.05C78,315,79,300.71,73.86,288.68M433,296.39c3-1.08,6-2.12,9.05-3.16-.57,5.79-1.34,11.68-4.13,16.89.57,1,1.73,3,2.29,4-3.4,1.93-6.83,3.85-10.13,5.95,2.63,4.81,4.91,10,3.87,15.62-4.17.76-8.58,1.35-11.65,4.57-3.62,3.54-8.92,3.75-13.56,5,2.08-6.23,6.93-10.42,12.18-14,4.65-2.61,2.14-8.1,1.55-12.18,2.46-1.68,4.92-3.35,7.37-5.07,1-5.85,2.17-11.69,3.16-17.56M136.53,368.28c-.95-6.3,3.54-11.55,6.17-16.87,2.79,9.3,5.42,18.75,10.18,27.29,6.83,12.5,7.19,27.23,5.28,41-3.16-.89-6.33-1.78-9.45-2.76-2.14-9.32-3.37-18.81-5-28.22-1.14-7.26-5.38-13.47-7.22-20.48M361.88,378c-1.4-10.15,7.48-16.91,9.13-26.42,2.88,3.84,6.27,7.33,8.83,11.38.43,2.6-1.78,4.7-2.69,7a65,65,0,0,0-9.24,1.27c-2.71,4.18-4.57,8.88-7.28,13.09l3.51,6.23c-6.71,8-4.59,20-12.82,27.25,1.26-5.7,3.48-11.27,3.78-17.16-.22-4.34-2.72-8.1-4.26-12,3.2-4,7.2-7.22,11-10.57m37.75-4.3c6-2.6,11.89-6,18.5-7,.55.4,1.67,1.17,2.22,1.57-1.57,6.78-4.28,13.39-9,18.6a64.05,64.05,0,0,0-7.06-.23c-3.26,4-1.08,9.06-.84,13.54-2,3.73-4.33,7.33-6.19,11.18-12.84-2-25.53,4.43-34.15,13.61-3.9,4.59-9.73,6.39-15.2,8.28,9-11.12,22.46-17.16,32.14-27.59,3.2-2.52.81-6.92,1.08-10.29,5.07-.45,11.11,1.78,15.43-1.57,2.44-6.42,2.12-13.43,3.07-20.13m-305.11-.78c5.78,1.23,15.57-.49,17.18,7.09,4.09,12.7,13.28,22.78,22.52,32,6,6.1,13.09,11.12,18,18.2-14.37-5.21-27.23-14-38.79-23.9-10.43-8.52-10.92-23.18-18.94-33.43m80.65,39.45c3.16,3.77,6.09,7.84,10.19,10.68,5.41,4.09,12.23,7.07,15.39,13.47,4.28,8.14,6.76,17.08,9.24,25.91-9.45-7.41-15.17-18.32-24.12-26.21-2.9-2.75-6.29-5.12-8.53-8.49-2.89-4.58-2-10.24-2.17-15.36M320.5,430.78c6.5-.74,10.48-5.94,15.4-9.54.53,4.05.72,8.12,1.12,12.19-1,2.07-2.09,4.15-3.09,6.25-2.95,0-6.27-1.55-9,.36-3.41,2-3.46,6.35-4.66,9.66-2.31.34-4.6.66-6.91,1-1.51,3.58-2.67,7.41-4.87,10.65-3,3.27-7.21,5.17-11,7.48a49.19,49.19,0,0,0,6.85-16.52c3.45-4,4.89-9.05,5.5-14.22q5.38-3.5,10.58-7.33m-181.43,23a67.34,67.34,0,0,1,17.74-5.32c9.06,11.14,23,16.21,36.27,20.21,14.34,4.47,29.3,6.25,43.92,9.52-19.94.72-40.81,5.17-60-2.46-13.95-4.9-24.92-15.24-37.93-21.95m204.56,8.7a46,46,0,0,0,12.46,1.42c5,1,10.05,2,15.07,3a34.84,34.84,0,0,0-13.8,8c-2.37-.59-4.72-1.27-7.12-1.63-2.92,4.72-6,9.36-10.63,12.58-10.13-3.28-20.76-2.69-31.15-1.67-10.1-2.22-20.32-3.26-30.59-4.26,8.62-1.54,17.46-1.12,26.1-2.58,8.2-2.21,15.53-6.72,23.5-9.6,2.8,3.09,6.5,7,11.08,4.55,4.53-1.06,4.36-6.22,5.08-9.81Z" style="fill:#f7a70b"/><path d="M380.31,137.7c3.69,3,8,5.08,12,7.54,1.42,2.18,2.24,4.68,3.69,6.82,3.55,2.31,7.52,3.92,11.25,5.93-1.91,5.32-4.41,11.59,1.69,15.28.76,8.81-.59,17.58-.55,26.36-3.67-6-9.13-10.51-14-15.53a73.4,73.4,0,0,0-1.32-7.8c-3.94-2.31-8.56-3.92-10.38-8.54,1.61-1.89,3.22-3.77,4.81-5.66-2.22-2.22-4.45-4.42-6.73-6.56a71,71,0,0,0-.47-17.84m-265.2,20.42c4.26-7.94,11.61-13.45,18.37-19.11-4.32,14.07-1,29.62-7.54,43.09-3.46,7.48-8.78,13.84-13.69,20.39-1.53-2.4-3.09-4.81-4.7-7.16.55-12.63,1.12-25.94,7.56-37.21m298.17,44.11c3.43-4.34,7.73,1.48,8.26,5.07.25,8-2.44,16.86,3.83,23.36-4.17,5.34-2.52,11.42.45,16.87-3.14,6.86-7.25,13.37-9.07,20.78a61.36,61.36,0,0,1-6.17,14.75c-.46-6.53.53-13.18-.71-19.66-1.4-3.26-4.07-5.72-6.23-8.46,1.22-2.47,3-4.72,3.53-7.47-1.65-5-3.92-9.75-5.29-14.84,2.56-1.75,5.38-3.24,7.43-5.65a76.22,76.22,0,0,0-6.67-6.78c4.49-5.42,7.61-11.68,10.64-18M90.7,228.55c2-11.09,11.36-18.39,17.88-26.87,7.06,23.27-5.44,45.94-4.87,69.24-2.18-2.16-4.39-4.26-6.69-6.29-4-11.53-8.4-23.69-6.32-36.08m1.84,75.61C89.9,292.34,97.8,282,99.92,270.79c7.26,12.7,15.78,25.64,16.1,40.81-.11,11.69-1.06,23.39-.23,35.11-10.19-12.55-19.88-26.47-23.25-42.55M406,290.73c5.51-3.49,10.55-7.69,16.08-11.16.59,6,2.78,11.69,7.82,15.31-.68,5.87-1.15,11.91-3.33,17.44-2.22,1.87-4.72,3.41-6.9,5.32.06,3.16.74,6.27.93,9.43-2.61,3.73-7.37,5.29-10.21,8.85-5,8.9-9.24,20-19.09,24.47,2-5.23,6.31-9.45,7.58-14.93-.3-9.5-3.24-18.69-4.72-28.06l6.84-3.47-5-6.57A109.8,109.8,0,0,1,407,298.08c-.21-2.48-.51-4.93-1-7.35M117.54,351c9.77,11,20.11,22.63,23.18,37.5,1.78,10.44,2.93,21,5.89,31.23-11.37-10.49-23.24-21.21-30.15-35.3-5.42-10.72,1.06-22.29,1.08-33.43M390.25,363.3c5.74-1.53,10.55-5,15.42-8.27-.06,4.37-.23,8.77-.44,13.14-2.84,1.65-7.61,1.67-8.35,5.57-1.47,6.17-1.27,12.59-2.36,18.84-5.21.42-10.76-1.21-15.65,1.06-1,3.07-.57,6.35-.55,9.53a101.6,101.6,0,0,1-17,14.2c-8.3,5.27-13.85,13.77-22.2,19,4.94-7.9,12.73-13.43,17.84-21.19,6-7.14,3.5-18,11.06-24.21-1.36-2-2.69-4.09-4-6.11a86.89,86.89,0,0,0,5.36-11,66.22,66.22,0,0,0,7.93-1.06c4.28-3.22,7.65-7.9,13-9.49M151,421.1a161.19,161.19,0,0,1,24.32,10.65c11.8,6.82,18.71,19,28,28.56,4.7,5,10.66,8.37,16.52,11.8-15.23-3.39-30.76-6.52-44.91-13.3-6.93-3.5-14.47-8.18-16.72-16.12-2.25-7.25-4.3-14.56-7.18-21.59M339.06,430c-.74-2.65.17-3.67,2.75-3,.74,2.65-.17,3.66-2.75,3m-1.55,8.79c10.59-.95,20-6.32,29.68-10.21.39,1.57,1.21,4.7,1.63,6.27-3.74,3.41-7.35,7.18-7.62,12.52-3.88,3.37-5.38,8.14-6.78,12.9-3.77,2.06-7.95-1.08-11.91-1.16-2.71,4.26-2.16,10.87-8.49,11.74l-3.8-6.53c-8.69,1.74-16.31,6.44-24.53,9.47-7.91,2.06-16.21,1.95-24.33,2.22,9.26-3,19.62-4.15,27.27-10.74,4-3,5.19-7.94,7.14-12.22,2.25-.15,4.52-.26,6.82-.4,1-4.33,2-8.78,5.64-11.72,2.25,1.36,4.51,2.75,6.78,4.11l2.5-6.25M238.31,446c6-.34,11.29-3.62,17.14-4.73,6.42.87,12.16,5,18.82,4.56,6.33-.28,12.67-.78,19,0,.13,4.36.72,8.81-.12,13.14-6.25,5.16-12,10.82-18.18,16.12-2.14-1.59-4.24-3.18-6.36-4.77,2.18-3.13,3.67-7.14,7.31-8.88,4.51-2.39,9.39-4.74,11.67-9.62-5,2.29-9.59,5.24-14.47,7.69-6.31-2.2-12.79-4.57-19.57-4.53-5.26,0-9.94,2.69-14.52,4.94-3.41-3.45-6.88-6.87-10.31-10.3-.53.49-1.55,1.5-2.06,2C233,457.56,239,464,245,470.42c-1.65,1.82-3.3,3.66-5,5.47a104.56,104.56,0,0,0-19.18-11.21q.06-9.45.36-18.9c5.7,0,11.42.49,17.12.17m12.37,24a18.64,18.64,0,0,0,11-.68c3.41,2.17,6.7,4.49,10,6.89-1.95,4.53-3.24,9.68-6.91,13.22-4.66,0-9.34-.32-14,.32-3.65-4.11-5.28-9.39-6.72-14.56,2.2-1.76,4.41-3.53,6.67-5.19m-43.3,17.29c12.39,0,24.92.72,37-2.9,1.87,4.28-2.26,7.8-5.72,9.45-6.93,2.16-14.68,1.35-21.12,5.19a35.71,35.71,0,0,1-10.15-11.74m60.43.28c12.79,2.64,25.74,2.84,38.7,3.51a50.38,50.38,0,0,1-10.82,10.15c-6.29-4.72-14.49-3.11-21.61-5.32-3.61-1.29-4.86-5.17-6.27-8.34M181,495.63c9.56,1.38,19.33,2.12,28.84,0a78.68,78.68,0,0,0,14.81,8.86c-11.38,6.23-24.54,3.79-36.85,3.15,1-2,1.93-4,2.76-6.08-2.88-2.43-6.31-4.06-9.56-5.91m121.72,3.31c8-.17,15.85-1.44,23.78-2.12-4.54,3.54-2,7.79.76,11.59-13.24-2.59-26.87,1.95-39.9-2.16a80.41,80.41,0,0,0,15.36-7.31Z" style="fill:#fef481"/></svg>