<?xml version="1.0" encoding="UTF-8"?>
<svg id="Layer_1" xmlns="http://www.w3.org/2000/svg" version="1.1" viewBox="0 0 512 512">
  <!-- Generator: Adobe Illustrator 29.2.1, SVG Export Plug-In . SVG Version: 2.1.0 Build 116)  -->
  <defs>
    <style>
      .st0 {
        fill: #29166f;
      }
    </style>
  </defs>
  <path class="st0" d="M32.7,33h146.1v207.1c2.3-9.3,6.1-18.1,11.4-26.1,8.7-12.9,20.9-23,35.1-29.1,40.4-17,86.9,1.9,103.9,42.3,1.8,4.3,3.3,8.8,4.3,13.4.2-39.3,0-78.7,0-118-.1-5.4.2-10.9-.2-16.3-3.2-12.3-9-24.2-17.8-33.5-10.3-11.1-25.1-17.2-40-18.8-10.5-1.3-21.2-.5-31.7.6,25.1-12.3,52.8-19,80.7-21.1,11.9-1,23.9-.5,35.9-.6,60.4-.3,111.4,45,118.3,105,.9,6.6.6,13.3.6,19.9v321h-145.6v-120c0-27.9.2-55.8-.1-83.6-5.7,26.9-26.7,49.7-52.8,58-41.8,13.5-86.6-9.4-100.1-51.2-.7-2.2-1.3-4.4-1.8-6.6v119.5c.1,3.6-.2,7.3.1,10.9,2.8,10.7,7.7,20.6,14.4,29.3,8.1,10,19.2,17.2,31.7,20.4,13,3.6,26.7,3.6,40,1.9l1.3.9c-10.2,4.5-20.5,8.8-31.2,11.6-16.4,4.7-33.3,7.5-50.3,8.5-10.6.8-21.1.3-31.7.4-51.3.7-97.3-31.7-113.9-80.3-3-8.7-4.9-17.8-5.8-26.9-.9-12.7-.6-25.4-.7-38.1V33M267.3,457.4h0"/>
</svg>