<?xml version="1.0" encoding="UTF-8"?>
<svg id="Layer_1" xmlns="http://www.w3.org/2000/svg" version="1.1" viewBox="0 0 512 512">
  <!-- Generator: Adobe Illustrator 29.2.1, SVG Export Plug-In . SVG Version: 2.1.0 Build 116)  -->
  <defs>
    <style>
      .st0 {
        fill: #a88b53;
      }
    </style>
  </defs>
  <path class="st0" d="M26.1,26.1c42.5,0,84.9,0,127.4,0,3.8-.4,6,3.2,8.4,5.5l94.2,94.2c32.4-32.6,64.9-65.1,97.4-97.5,1.2-1.6,3.2-2.4,5.1-2.2,42.4,0,84.8,0,127.2,0,.1,109.3.1,218.5,0,327.8,0,44,.2,87.9-.1,131.8-23.8.6-47.7.1-71.6.3H78.6c-17.5-.2-35,.3-52.4-.3-.2-153.2-.2-306.4,0-459.6M74.6,74.5c0,121,0,242,0,363,121,0,241.9,0,362.9,0,0-120.4,0-240.7,0-361.1.5-1.9-1.7-2-3-1.9-18.9,0-37.8,0-56.7,0-1.5,0-3,.6-3.9,1.8-27.8,28-55.8,55.8-83.6,83.8,16.2,16.2,32.4,32.4,48.6,48.6.9,1,2.1,1.4,3.4,1.3,30.1.2,60.2-.3,90.4.3-14.3,19.2-29.1,37.9-43.7,56.9-19.6.2-39.2-.1-58.9.1,11.1,11,22.2,22,33.1,33.1-2.3,3.6-5.5,6.3-8.5,9.3-32.1,32.2-64.3,64.4-96.5,96.6-.5,0-1.6.2-2.1.3-27.8-27.9-55.7-55.6-83.5-83.5-30.7-.2-61.5.2-92.2-.2,2.5-5.1,6.5-9.1,9.9-13.7,10.3-13.4,20.7-26.7,30.9-40.2,1.3-1.6,2.7-3.9,5.1-3.4,18.9,0,37.8,0,56.7,0-11-11.2-22.3-22.2-33.3-33.4,23.7-24.3,48-47.9,71.8-72.1-27.2-27.8-55-55-82.3-82.7-1.4-1.3-2.8-3.1-5-2.8h-59.7M186.2,264c-1.5,1-1,3,.3,3.9,23.4,23.6,47,47,70.4,70.5,23-23.2,46.2-46.3,69.4-69.4.8-1,2.6-2.4.9-3.5-23.7-23.8-47.4-47.5-71.2-71.2-23.2,23.3-46.5,46.6-69.8,69.8h0Z"/>
</svg>