<?xml version="1.0" encoding="UTF-8"?>
<svg id="Layer_1" xmlns="http://www.w3.org/2000/svg" version="1.1" viewBox="0 0 512 512">
  <!-- Generator: Adobe Illustrator 29.2.1, SVG Export Plug-In . SVG Version: 2.1.0 Build 116)  -->
  <defs>
    <style>
      .st0 {
        fill: #289925;
      }
    </style>
  </defs>
  <path class="st0" d="M183.9,52c63.1-11.5,130.9,9.9,177,54.4-32.1,37.3-58.6,79.1-78.7,124-4,8.9-6.9,18.2-11.8,26.6-14.2-27-32.8-52.4-58.3-69.7-19.9-13.9-43.4-22-67.7-23.2-3.5-.1-6.8.9-10.2,1.6,4.8,9.8,11,18.9,14.8,29.2,11.1,28.6,16,59.1,24.7,88.5,8,28.1,19.5,55.7,37.1,79.2,15,19.9,33.5,36.9,54.6,50.2,3,2,8.5,5.1,10.3,0,2.4-11.6,2.8-23.5,5.3-35.1,12.9-66.5,41.3-129.7,80.5-184.9,32.2-44.6,72.7-84.9,122.9-108.7,5.3-2.3,10.6-5.7,16.6-5.3,0,6.7-5.1,11.9-7.5,18-15.3,33.2-23.1,69.1-32.1,104.3-11.6,45.8-22.2,92.3-42.7,135-21.5,45-58.1,82.8-103.2,104.5-44.5,21.6-96.4,28.3-144.6,17-46.7-10.7-89-38.4-117.9-76.5C-16,290,1.9,160.3,92.9,91.2c26.7-20.2,57.9-33.7,91-39.2Z"/>
</svg>