<?xml version="1.0" encoding="UTF-8"?>
<svg id="Layer_1" xmlns="http://www.w3.org/2000/svg" version="1.1" viewBox="0 0 512 512">
  <!-- Generator: Adobe Illustrator 29.2.1, SVG Export Plug-In . SVG Version: 2.1.0 Build 116)  -->
  <defs>
    <style>
      .st0 {
        fill: #e4e418;
      }

      .st1 {
        fill: #0a5f3c;
      }
    </style>
  </defs>
  <path class="st1" d="M329.8,284.5c-1.1,7.1-2.9,14.1-5.5,20.8-16,43.2-46.8,69.6-91.6,79.6-32.3,7.1-64.6,6.6-96.5-2.9-37.4-11.2-63.6-35.4-79.4-70.9-10.1-23-15.3-47.8-15.2-72.9-.1-64.5-.1-128.9,0-193.4,0-2.2,0-4.3.4-6.4,1.2-5.8,4.2-8.7,10-9.7,1.9-.3,3.8-.5,5.7-.5h231.7c11.4,0,20.9,3.6,28.8,11.7,16.4,16.7,33,33.4,49.5,50.1,1.2,1.3,3.1,2.5,2.4,4.5-.8,2.2-3.2,2.1-5.1,2.2-6.7.5-13.5.3-20.2.3h-210.5c-6.8-.1-9.5,2.2-10.8,8.8-.5,2.5-.7,5-.6,7.5,0,47.9-.4,95.8.1,143.7.5,52.4,44.3,101.9,102.5,101.9,21.5,0,41.8-4.4,60.1-16.2,16.2-10.5,28.9-25.6,36.3-43.4,2.1-4.8,5.1-9.2,6.7-14.2.1-.3.5-.5,1-.4Z"/>
  <path class="st1" d="M337.4,483.9c-38.1,0-76.3,0-114.5,0-11.9,0-22-3.7-30-12.5-.8-.9-1.7-1.7-2.5-2.5l-45.2-45.7c-.9-.9-1.8-1.9-2.6-2.9-1.9-2.4-1.5-3.5,1.5-4.4.8-.3,1.7-.4,2.5-.5,2.3-.1,4.6-.3,7-.3,72.6,0,145.2,0,217.8.1,2.3,0,4.7.2,7,0,6.2-.3,9.2-3.1,10.2-9.2.4-2.3.5-4.6.5-7,0-48,.2-96,0-144-.2-25.2-9.4-47.2-25.7-66.1-16.8-19.6-38-31.9-63.7-34.8-33.6-3.8-64.2,3.5-89,28.1-8.9,8.9-16,19.5-20.9,31.2-1.9,4.5-4.6,8.7-6.5,13.2-.1.3-.2.9-.8.7-.9-.3-.2-.8-.1-1.3,11.9-51.9,42.5-86,94.9-98.6,31.6-7.8,64.7-7.2,96,1.6,41.9,11.8,69.7,39.2,85.2,79.3,8,21.1,12.1,43.5,11.9,66.1v192.4c0,2.2,0,4.5-.5,6.7-1.1,5.6-4.1,8.6-9.7,9.6-2.2.4-4.5.6-6.7.5l-116,.2Z"/>
  <circle class="st0" cx="255.8" cy="255.8" r="78.5"/>
</svg>