<?xml version="1.0" encoding="UTF-8"?>
<svg id="Layer_1" xmlns="http://www.w3.org/2000/svg" version="1.1" viewBox="0 0 512 512">
  <!-- Generator: Adobe Illustrator 29.2.1, SVG Export Plug-In . SVG Version: 2.1.0 Build 116)  -->
  <defs>
    <style>
      .st0 {
        fill: #aa7346;
      }

      .st1 {
        fill: #157215;
      }
    </style>
  </defs>
  <path class="st1" d="M256,26c34.2,34.2,68.4,68.4,102.6,102.6,4.1,4.2,8.5,8.2,12.3,12.6-29,.5-57.9,0-86.9.2-47.5,0-94.9,0-142.4,0,1.7-3.1,4.6-5.4,7-7.9,32.9-32.9,65.8-65.8,98.6-98.6,3-3,6-5.8,8.7-9M140.3,141.9c.2,2.8.3,5.7.3,8.5-.1,73.5.2,147-.2,220.4-38.3-38.1-76.5-76.2-114.6-114.5,38.3-38,76.4-76.1,114.4-114.4M371.1,191.5c.1-16.8-.2-33.7.2-50.5,35.1,35.7,70.7,70.8,106,106.2,3,3.2,6.7,5.9,8.9,9.7-4.2,3.3-7.7,7.4-11.6,11.1-22.3,22.3-44.6,44.6-66.9,66.9-11.9,12.2-24.4,23.9-36,36.4-.3-1.6-.5-3.3-.6-5v-174.9M141.7,372.1c76.1-.3,152.2-.1,228.3,0-2,2.5-4.2,4.9-6.5,7.2l-83.3,83.3c-7.7,7.8-15.7,15.3-23.1,23.4h-1.9c-37.7-38.1-75.9-75.6-113.5-113.8h0Z"/>
  <path class="st0" d="M213.3,175.8c16.3-8.7,34.7-12.3,53.1-10.4,6.5,1.1,13,2.6,19.3,4.5,1.3.6,2.6,1.2,3.9,1.8,2.7.9,5.1,2.2,7.9,2.9v.8c1.1.5,2.4,1,3.7,1.5,3.5,2.4,7.2,4.6,10.6,7.1,2.3,2.2,4.9,4.2,7.4,6.2l2.3,2.4c3.1,3.4,5.8,7.1,9.1,10.4,0,.4-.2,1.3-.2,1.8h1.2c.9,1.9,2.1,3.7,3.6,5.3l-.2,1.8h1.5c0,.7-.3,1.9-.4,2.5h1.8c-.2.5-.6,1.7-.8,2.3h1.8l-.6,2.4h1.2c.8,3.2,2.7,6,2.8,9.4h.7c1.7,7.1,4.1,14.2,3.9,21.6,0,6.2.3,12.4-.4,18.6-1,5.5-2.3,10.9-4.1,16.2-.6,1.9-1.2,3.8-1.8,5.6h-.7c-.3,3.1-2.1,5.7-3.5,8.4-.5,1.2-1,2.4-1.5,3.6l-1.9,1.7c-.2.5-.5,1.6-.7,2.1-2.1,2.5-4.1,5.1-5.7,7.9l-.5-.2c-3.7,5.2-8.2,9.7-13.4,13.3v.6c-2.8,1.8-5.5,4-8.6,5.6-.4.4-1.2,1.2-1.5,1.6l-3.9,1.3v.9c-3.5,1.8-7.5,2.4-10.6,4.7l-3.1.4c-13.5,5.6-28.6,5.5-43,4.2-8.6-1.9-17.2-4-25.1-8.1-2.6-1-4.6-3.2-7.5-3.4l.2-.8c-2.5-1.2-4.9-2.6-7.3-4.1l.3-.6c-1.6-.8-3.2-1.9-4.5-3.2-1.1-.7-2.2-1.5-3.2-2.4-.8-.8-1.6-1.6-2.4-2.3s-1.5-1.6-2.2-2.4c-1.1-.6-1.9-1.6-2.1-2.9l-.6.2c-1-1.7-2.2-3.3-3.6-4.6-.4-1.5-1.5-2.6-2.9-3.1.1-.4.3-1.1.4-1.4-2.5-1-3.1-4-4.9-5.8,0-.4,0-1.2,0-1.7l-1.5-.2c.1-.6.3-1.7.4-2.3h-1.8c0,0,.6-2.2.6-2.2l-1.6-.2c.1-.6.3-1.7.4-2.2h-1c-6-15.8-9.4-32.9-6.6-49.7,1.2-6.2,2.4-12.5,4.8-18.4,2.3-6.2,5.2-12.1,8.8-17.7,1.8-2.2,3.3-4.6,4.7-7.1l.5.2c1.7-3,4.4-5.2,6.7-7.7,2.9-2.8,5.5-5.9,9-7.9l-.2-.6c4.6-2.6,8.6-6.1,13.4-8.3"/>
</svg>