<svg xmlns="http://www.w3.org/2000/svg" xmlns:xlink="http://www.w3.org/1999/xlink" viewBox="0 0 512 512"><defs><linearGradient id="a" x1="-66.14" y1="47.82" x2="590.57" y2="474.28" gradientUnits="userSpaceOnUse"><stop offset="0" stop-color="#b6762a"/><stop offset="0.63" stop-color="#f1ef9a"/><stop offset="1" stop-color="#b6762a"/></linearGradient></defs><path d="M234.71,27.44,234.24,0h42.18l-.11,27.33h28.43l.07,55,55.44,0,29.59,34.77-15.36.44-14.55,21.63,10.65.14.06,19.57,19.69.18.1,26.14L410,185.1v35.51c10.1-.3,17.29,3.19,20.93,14.47,19.17-1.22,30.46,22.14,36.29,46.29l-13.48-6-46-.22-4.32,8.9,19.7-.11.2,17.39h15.25l.14,19.93-15.53,0,.05,13-24,.27V343l-19.66.22,0,98.68-83.32.06-.09,39.28H278.54v30.71l-46.07.06V481.28H214.91v-39.4l-83.4-.09.24-98.7-19.79,0,.28-8.71-24.43-.06-.11-13.19L72.57,321l-.07-19.6H87.71L87.87,284l21.28,0-4-9-43.17-.25a34.37,34.37,0,0,0-17.14,7.12c3.2-18.7,9.28-44.73,35.84-46.75,2.27-8.27,7.54-15.44,20.49-14.82l-.23-35.16,20,.07-.08-26.22,19.55-.12.07-17.51,10.78-.05-15.13-24-15.13,0,30.55-32.94h54.65l-.06-56.66Z" style="fill-rule:evenodd;fill:url(#a)"/><polygon points="252.1 215.93 252.15 238.09 230.29 224.72 230.29 115.2 215.09 92.16 214.87 38.4 243.45 38.4 243.42 9.85 267.57 9.96 267.4 38.73 296.12 38.73 296.12 92.16 280.82 115.03 280.87 224.61 261 237.87 261.23 215.83 267.52 208.81 267.74 51.65 243.56 51.59 243.53 209.33 252.1 215.93" style="fill:#202d14;stroke:#373435;stroke-miterlimit:22.925600000000003;stroke-width:0.216px;fill-rule:evenodd"/><polygon points="147.03 104.13 153.6 95.4 208.31 95.37 221.5 119.54 221.61 233.29 249.94 251.09 250.05 327.68 217.15 327.68 217.2 255.39 182.03 222.05 181.92 137.13 162.23 104.24 147.03 104.13" style="fill:#202d14;stroke:#373435;stroke-miterlimit:22.925600000000003;stroke-width:0.216px;fill-rule:evenodd"/><polygon points="149.11 117.42 158.13 117.42 173.59 143.65 173.42 220.22 164.75 220.27 164.64 143.58 149.11 117.42" style="fill:#202d14;stroke:#373435;stroke-miterlimit:22.925600000000003;stroke-width:0.216px;fill-rule:evenodd"/><polygon points="147.08 198.46 155.68 198.49 155.79 220.29 146.97 220.37 147.08 198.46" style="fill:#202d14;stroke:#373435;stroke-miterlimit:22.925600000000003;stroke-width:0.216px;fill-rule:evenodd"/><path d="M63.72,264c1.69-7.3,6.49-15,13.07-17.24l15-.1c-1-6.53,1.08-11.4,7.13-15.27l78.69-.21,28.66,28.65-.05,68-26.27-.18-41.71-63.42Z" style="fill:#202d14;stroke:#373435;stroke-miterlimit:22.925600000000003;stroke-width:0.216px;fill-rule:evenodd"/><polygon points="118.36 275.21 131.56 275.15 166.68 327.57 151.51 327.74 118.36 275.21" style="fill:#202d14;stroke:#373435;stroke-miterlimit:22.925600000000003;stroke-width:0.216px;fill-rule:evenodd"/><polygon points="111.9 305.93 112.13 314.38 131.67 314.49 124.89 305.81 111.9 305.93" style="fill:#202d14;stroke:#373435;stroke-miterlimit:22.925600000000003;stroke-width:0.216px;fill-rule:evenodd"/><polygon points="363.85 104.13 357.28 95.4 302.57 95.37 289.38 119.54 289.27 233.29 260.94 251.09 260.83 327.68 293.73 327.68 293.68 255.39 328.85 222.05 328.96 137.13 348.65 104.24 363.85 104.13" style="fill:#202d14;stroke:#373435;stroke-miterlimit:22.925600000000003;stroke-width:0.216px;fill-rule:evenodd"/><path d="M447.52,263.85c-1.69-7.31-6.49-15.06-13.07-17.25l-15-.1c1-6.53-1.07-11.39-7.12-15.26l-78.7-.22-28.71,28.85.11,67.82,26.27-.18L373,264.1Z" style="fill:#202d14;stroke:#373435;stroke-miterlimit:22.925600000000003;stroke-width:0.216px;fill-rule:evenodd"/><polygon points="393.3 275.32 380.1 275.26 344.98 327.68 360.15 327.85 393.3 275.32" style="fill:#202d14;stroke:#373435;stroke-miterlimit:22.925600000000003;stroke-width:0.216px;fill-rule:evenodd"/><polygon points="398.99 305.98 399.13 314.57 379.62 314.66 386.02 305.91 398.99 305.98" style="fill:#202d14;stroke:#373435;stroke-miterlimit:22.925600000000003;stroke-width:0.216px;fill-rule:evenodd"/><polygon points="225.78 441.72 226 470.29 243.53 470.32 243.42 500.87 267.74 500.87 267.7 470.35 285.18 470.26 285.05 441.85 267.55 441.85 267.46 459.02 243.6 459.17 243.37 441.77 225.78 441.72" style="fill:#202d14;stroke:#373435;stroke-miterlimit:22.925600000000003;stroke-width:0.216px;fill-rule:evenodd"/><polygon points="140.41 338.76 140.63 430.67 370.58 430.71 370.53 338.78 140.41 338.76" style="fill:#202d14;stroke:#373435;stroke-miterlimit:22.925600000000003;stroke-width:0.216px;fill-rule:evenodd"/><polygon points="355.21 198.46 363.81 198.49 363.92 220.29 355.1 220.37 355.21 198.46" style="fill:#202d14;stroke:#373435;stroke-miterlimit:22.925600000000003;stroke-width:0.216px;fill-rule:evenodd"/><polygon points="361.9 117.42 352.88 117.42 337.42 143.65 337.59 220.22 346.26 220.27 346.38 143.58 361.9 117.42" style="fill:#202d14;stroke:#373435;stroke-miterlimit:22.925600000000003;stroke-width:0.216px;fill-rule:evenodd"/><path d="M328.33,398.23v1.1c0,2,.56,3.4,1.68,4.18a4.16,4.16,0,0,0,2.36.66c.71,0,1.35-.76,1.91-2.27.1-.35.21-.74.34-1.18s.29-.66.5-.66.38.25.38.74a4.89,4.89,0,0,1-.12.88c-.07.39-.14.71-.19.95a21.81,21.81,0,0,1-2.51,6.71c-1,1.59-2.06,2.38-3.13,2.38a3.47,3.47,0,0,1-3.47-2.2,14.15,14.15,0,0,1-.95-5.57Z" style="fill:#eff1bf;fill-rule:evenodd"/><path d="M334.33,422.53a3.1,3.1,0,0,1-.12,1.58,10.47,10.47,0,0,1-.83,1.9,7.17,7.17,0,0,1-1.57,1.95,1.66,1.66,0,0,1-1,.59,2.87,2.87,0,0,1-1-.67c-.53-.44-1-.81-1.44-1.13a10.23,10.23,0,0,1-1.11-.92,1.22,1.22,0,0,1-.46-.73q.47-1,.69-1.47c.51-1.07.89-1.86,1.14-2.34.46-.74.92-1.5,1.37-2.28.11-.15.26-.36.46-.66a3,3,0,0,0,.46.37c.15.1.35.22.61.36a14.3,14.3,0,0,1,2.13,1.91A3.23,3.23,0,0,1,334.33,422.53Z" style="fill:#eff1bf;fill-rule:evenodd"/><path d="M328.33,398.23c-.4,1.27-.81,2.52-1.22,3.74q-.84,2-2,2,0-.88.84-7.66c.56-4.53,1-8,1.37-10.38.05-.2.46-1.2,1.22-3s1.37-3.18,1.83-4.1l.31-.15a3.56,3.56,0,0,1-.08,1.17l-.31,1.91L329,390.68c-.26,1.8-.43,3.37-.53,4.69S328.33,397.64,328.33,398.23Z" style="fill:#eff1bf;fill-rule:evenodd"/><path d="M313.66,398.23v1.1c0,2,.56,3.4,1.68,4.18a4.14,4.14,0,0,0,2.36.66c.71,0,1.35-.76,1.9-2.27.11-.35.22-.74.35-1.18s.29-.66.49-.66.38.25.38.74a4.67,4.67,0,0,1-.11.88c-.08.39-.14.71-.19.95a21.81,21.81,0,0,1-2.51,6.71c-1,1.59-2.06,2.38-3.13,2.38a3.47,3.47,0,0,1-3.47-2.2,14.15,14.15,0,0,1-1-5.57Z" style="fill:#eff1bf;fill-rule:evenodd"/><path d="M319.45,365.66a3.17,3.17,0,0,1-.11,1.57,11.41,11.41,0,0,1-.84,1.91,7.37,7.37,0,0,1-1.57,1.95,1.63,1.63,0,0,1-1,.58,2.78,2.78,0,0,1-1-.66c-.53-.44-1-.82-1.44-1.13a11.54,11.54,0,0,1-1.11-.92,1.17,1.17,0,0,1-.46-.74c.31-.63.54-1.12.69-1.46.51-1.08.89-1.86,1.14-2.35.46-.73.92-1.49,1.37-2.27l.46-.66a3.73,3.73,0,0,0,.46.37c.15.09.35.22.61.36a13.75,13.75,0,0,1,2.13,1.91A3.23,3.23,0,0,1,319.45,365.66Z" style="fill:#eff1bf;fill-rule:evenodd"/><path d="M313.68,398.23l-.46,1.83a10.5,10.5,0,0,1-.72,2,4.48,4.48,0,0,1-1.11,1.58c-.4.34-.71.44-.91.29a31.49,31.49,0,0,1,.27-3.85c.17-1.44.29-2.38.34-2.82l.07-.81a.41.41,0,0,0-.07-.29c0-.05-.15,0-.31.14s-.53.69-1,1.32q-1.44,1.91-2.13,2.79a28.76,28.76,0,0,1-5.72,5.21,30.49,30.49,0,0,1-7.31,3.81,63.31,63.31,0,0,1-8.81,2.38,51.73,51.73,0,0,1-10.25,1h-1.14a32.22,32.22,0,0,1-5.34-.36c-2.18-.39-3.67-1-4.45-1.95a6.14,6.14,0,0,1-1.19-4.14,35.36,35.36,0,0,1,.35-4.84c.23-1.66.54-2.49.95-2.49.15,0,.27.47.34,1.43A4.25,4.25,0,0,0,266.2,403q2.06,2.19,10,2.2c2.9,0,5.21-.08,6.94-.22q12.5-1,20.42-5.8a18.25,18.25,0,0,0,5.87-5.06,18,18,0,0,0,2.52-5.42l1.06-4.18a29.19,29.19,0,0,1,1.68-3.74c.66-1.32,1.09-2.17,1.3-2.53a3.84,3.84,0,0,1,.76-1v1.1c-.26,1.07-.43,1.9-.53,2.49l-1.61,7.7q-.45,3.15-.68,5.76C313.76,396,313.68,397.35,313.68,398.23Z" style="fill:#eff1bf;fill-rule:evenodd"/><path d="M319.84,371.87a74.2,74.2,0,0,1,7.16-6q4.88-3.74,9.75-7.55,3.51-2.79,6.71-5.65c1.53-1.37,3.53-3.22,6-5.57q5.72-5.28,5.72-5.43a1.4,1.4,0,0,1-.15.66,12.5,12.5,0,0,1-1.45,3.08,26.78,26.78,0,0,1-2.06,3.08c-.81,1-1.69,2-2.63,3s-1.69,1.77-2.25,2.31q-1.14,1.1-3.89,3.44c-1.37,1.18-3.42,2.89-6.17,5.14-1.93,1.56-3.66,2.91-5.18,4-2,1.51-4.07,3-6.1,4.47l-5.26,4c-.76.59-1.48,1.14-2.17,1.65s-1.08.7-1.18.55a20.4,20.4,0,0,1,1.37-2.93A9.88,9.88,0,0,1,319.84,371.87Z" style="fill:#eff1bf;fill-rule:evenodd"/><path d="M252,400.08c1.07-1.07,1.7-1.73,1.91-2a11.51,11.51,0,0,0,1.9-3.12,23.72,23.72,0,0,0,1.34-4.91,28.63,28.63,0,0,0,.57-4.73c0-1.32,0-2.7,0-4.14s.11-2.92.26-4.44.08-2.22.08-2.56a1.47,1.47,0,0,0-.08-.59l-.38.14-2.74,6.53a5.7,5.7,0,0,0-.38,2c0,.85-.08,1.84-.08,3l.08,4.92a11.8,11.8,0,0,1-.76,4.69,7.37,7.37,0,0,1-.88,1.43,3.38,3.38,0,0,1-.88.85Z" style="fill:#eff1bf;fill-rule:evenodd"/><path d="M261.15,368.29a77.33,77.33,0,0,1,7.16-6q4.88-3.73,9.76-7.56c2.34-1.85,4.57-3.74,6.71-5.64q2.28-2.06,6-5.58,5.71-5.28,5.71-5.42a1.45,1.45,0,0,1-.15.66,12.29,12.29,0,0,1-1.45,3.08,26.37,26.37,0,0,1-2.06,3.08c-.81,1-1.69,2-2.63,3s-1.69,1.77-2.24,2.31q-1.14,1.1-3.89,3.45-2.05,1.76-6.17,5.13c-1.93,1.57-3.66,2.91-5.19,4q-3,2.26-6.09,4.47l-5.26,4L259.21,373c-.69.51-1.08.69-1.18.55a19.5,19.5,0,0,1,1.37-2.94A10.07,10.07,0,0,1,261.15,368.29Z" style="fill:#eff1bf;fill-rule:evenodd"/><path d="M252,400.06l-.45.37c-.87.44-1.44.72-1.72.84a4.26,4.26,0,0,0-.84.52c-.28.22-.62.52-1,.91a1.9,1.9,0,0,1-.91.3,2.55,2.55,0,0,0-1,.33,12.16,12.16,0,0,0-1.37,1.06,4.41,4.41,0,0,1-1.49.95,3.43,3.43,0,0,1-.87,0c-.33,0-.7-.06-1.11-.11-.86,0-2,1.08-3.43,3.23s-3.1,3.22-5,3.22c-2.28,0-3.89-1.29-4.8-3.88a8.4,8.4,0,0,1-.38-1.87,18.56,18.56,0,0,1-.15-2l3.2-5.72a7.2,7.2,0,0,0,.84,3.74,4.9,4.9,0,0,0,4.57,2.27,5.28,5.28,0,0,0,3.05-.88c1.06-.78,2.16-1.56,3.28-2.34a14.05,14.05,0,0,0,2,.14,2.66,2.66,0,0,0,1.83-.88q.47-.51,1-1a.77.77,0,0,0,.92.14,3.25,3.25,0,0,0,1.6-1.17c.25-.34.51-.71.76-1.1a2.13,2.13,0,0,0,1.07.15l.45-.22c.11.24.21.5.31.77a2.4,2.4,0,0,1,.15.84,1.77,1.77,0,0,1-.15.66C252.21,399.57,252.11,399.82,252,400.06Z" style="fill:#eff1bf;fill-rule:evenodd"/><path d="M240.72,366.64a3.1,3.1,0,0,1-.12,1.58,10.84,10.84,0,0,1-.83,1.91,7.49,7.49,0,0,1-1.57,1.94,1.69,1.69,0,0,1-1,.59,2.78,2.78,0,0,1-1-.66q-.8-.66-1.44-1.14a9.35,9.35,0,0,1-1.11-.92c-.3-.29-.46-.53-.46-.73.31-.64.54-1.12.69-1.47q.76-1.61,1.14-2.34c.46-.74.92-1.49,1.37-2.28.1-.14.26-.36.46-.66a3,3,0,0,0,.46.37l.61.37a14.35,14.35,0,0,1,2.13,1.9,3.28,3.28,0,0,1,.69,1.54Zm7.85-.44h0a3.1,3.1,0,0,1-.12,1.58,11.78,11.78,0,0,1-.84,1.91,7.09,7.09,0,0,1-1.56,1.94,1.66,1.66,0,0,1-1,.59,2.78,2.78,0,0,1-1-.66c-.53-.44-1-.82-1.45-1.14a10,10,0,0,1-1.1-.92,1.15,1.15,0,0,1-.46-.73c.31-.64.53-1.13.69-1.47q.76-1.6,1.14-2.34c.46-.74.92-1.49,1.37-2.28.1-.14.26-.36.46-.66a3,3,0,0,0,.46.37l.61.37a14.35,14.35,0,0,1,2.13,1.9,3.28,3.28,0,0,1,.69,1.54Zm-4-9.09h0a3.32,3.32,0,0,0-.68-1.54,14.48,14.48,0,0,0-2.14-1.91l-.61-.36a2.93,2.93,0,0,1-.45-.37c-.21.29-.36.51-.46.66-.46.78-.92,1.54-1.37,2.27-.25.49-.64,1.27-1.14,2.35l-.69,1.47a1.17,1.17,0,0,0,.46.73c.3.29.67.61,1.1.95s.92.72,1.45,1.14a2.64,2.64,0,0,0,1,.62,1.69,1.69,0,0,0,1-.58,7.13,7.13,0,0,0,1.56-2,11.72,11.72,0,0,0,.84-1.9A3,3,0,0,0,244.6,357.11Z" style="fill:#eff1bf;fill-rule:evenodd"/><path d="M230.59,398.23c-.41,1.27-.82,2.52-1.22,3.74q-.84,2-2,2,0-.88.84-7.66c.55-4.53,1-8,1.37-10.38.05-.2.45-1.2,1.22-3s1.37-3.18,1.83-4.1l.3-.15a3.29,3.29,0,0,1-.08,1.17l-.3,1.91-1.3,8.95c-.25,1.8-.43,3.37-.53,4.69S230.59,397.64,230.59,398.23Z" style="fill:#eff1bf;fill-rule:evenodd"/><path d="M223.22,402.21l-1.06,2.71a16.51,16.51,0,0,1-1.64,2.75,7.87,7.87,0,0,1-1.56,1.69,13.32,13.32,0,0,1-2.29,1c-.56.19-1.09.39-1.6.58-1.22.39-2,.66-2.44.81a10.5,10.5,0,0,1-2.44.51l-.3-.15c0-.34.91-1.07,2.74-2.2l3-2c.51-.34,1.07-.76,1.68-1.25a17.61,17.61,0,0,0,1.94-1.83,6,6,0,0,0,1.41-2.27,2,2,0,0,1,.08-.44l-2,.15a3.26,3.26,0,0,1-2.29-.85,2,2,0,0,1-.76-1.87,6.54,6.54,0,0,1,.38-1.39c.2-.54.66-1.52,1.37-2.94a17.71,17.71,0,0,1,1.37-2.34c.66-.88,1.3-1.32,1.91-1.32a3.52,3.52,0,0,1,2.67,1.24,4.33,4.33,0,0,1,1.14,3,10.46,10.46,0,0,1-.15,1.76c-.11.59-.19,1.1-.27,1.54s-.19,1-.34,1.58A9.07,9.07,0,0,1,223.22,402.21Z" style="fill:#eff1bf;fill-rule:evenodd"/><path d="M210.3,392.43a19.06,19.06,0,0,1-.38,2.93c-.26,1.37-.51,2.57-.76,3.6l-.92,3.59c-.51,1.37-.91,2.37-1.22,3a24.91,24.91,0,0,1-1.25,2.27,5.65,5.65,0,0,1-1.19,1.36,14.12,14.12,0,0,1-2.05,1.21l-2.75,1.1a18,18,0,0,1-1.79.44,13,13,0,0,1-1.79.29c-.25,0-.41-.09-.46-.26a.76.76,0,0,1,.16-.62,7.69,7.69,0,0,1,1.94-1.83c1-.79,2.07-1.54,3.09-2.28,1.16-1,2-1.83,2.59-2.42a16.61,16.61,0,0,0,2.28-3,9.33,9.33,0,0,0,.65-1.51c.28-.75.73-2,1.33-3.7l.92-2.64a14.16,14.16,0,0,1,.46-1.43c.2-.56.45-.84.76-.84A1.6,1.6,0,0,1,210.3,392.43Z" style="fill:#eff1bf;fill-rule:evenodd"/><path d="M195.51,393a17.6,17.6,0,0,1-.38,2.93c-.25,1.37-.5,2.57-.76,3.6l-.91,3.59c-.51,1.37-.92,2.37-1.22,3a23.43,23.43,0,0,1-1.26,2.27,5.42,5.42,0,0,1-1.18,1.36,14,14,0,0,1-2.06,1.21l-2.74,1.1a15.82,15.82,0,0,1-1.8.44,12.75,12.75,0,0,1-1.79.29c-.25,0-.4-.08-.45-.26a.79.79,0,0,1,.15-.62,7.69,7.69,0,0,1,1.94-1.83q1.56-1.17,3.09-2.28c1.17-1,2-1.83,2.59-2.42a16.64,16.64,0,0,0,2.29-3,9.58,9.58,0,0,0,.64-1.51c.28-.75.73-2,1.34-3.7l.91-2.64c.1-.39.26-.87.46-1.43s.46-.84.76-.84A1.54,1.54,0,0,1,195.51,393Z" style="fill:#eff1bf;fill-rule:evenodd"/><path d="M200.76,376.39a3.1,3.1,0,0,1-.12,1.58,10.25,10.25,0,0,1-.84,1.91,6.91,6.91,0,0,1-1.56,1.94,1.66,1.66,0,0,1-1,.59,2.78,2.78,0,0,1-1-.66q-.79-.66-1.44-1.14a10.23,10.23,0,0,1-1.11-.92c-.3-.29-.46-.53-.46-.73q.47-.94.69-1.47.76-1.61,1.14-2.34c.46-.74.92-1.49,1.37-2.28.11-.14.26-.36.46-.66a3,3,0,0,0,.46.37l.61.37a13.83,13.83,0,0,1,2.13,1.9A3.28,3.28,0,0,1,200.76,376.39Z" style="fill:#eff1bf;fill-rule:evenodd"/><path d="M190,370.11a9.61,9.61,0,0,1-.46,1.73q-.3.84-1,2.34c-.49,1-.78,1.58-.88,1.73-.41.58-.76.88-1.07.88l-.57-.41a.9.9,0,0,0-.49-.18,6.18,6.18,0,0,0-2.44.73,13.42,13.42,0,0,0-3.13,2.2,20.11,20.11,0,0,0-3.08,3.16,4.44,4.44,0,0,0-1,1.9,2.07,2.07,0,0,0,.53,1.25l1.37.66c.36.15.68.27,1,.37a3,3,0,0,1,.8.44c.81.53,1.21,1.61,1.21,3.22a26.78,26.78,0,0,1-1.29,7.59,27.24,27.24,0,0,1-3.43,7.45,26.14,26.14,0,0,1-2.51,2.93,16.31,16.31,0,0,1-3.13,2.49,13.38,13.38,0,0,1-7.39,2.06c-3.25,0-5.62-1-7.09-3.08a9.61,9.61,0,0,1-1.6-3.26,12.56,12.56,0,0,1-.46-3.27,23.17,23.17,0,0,1,.31-3.85,27.25,27.25,0,0,1,.91-3.78,48,48,0,0,1,2.36-5.94q1.38-2.85,2.21-4.62l1.76-3.59c.2-.39.42-.78.65-1.17s.41-.59.57-.59c.35,0,.53.22.53.66a1.83,1.83,0,0,1-.15.81c-.31.73-.55,1.33-.73,1.79s-.54,1.26-1.1,2.39c-.31.58-.76,1.56-1.37,2.93-.31.68-.61,1.37-.92,2.05q-2.21,5.58-2.21,8.36a5.65,5.65,0,0,0,2.17,4.66,9.67,9.67,0,0,0,6.14,1.72,14.37,14.37,0,0,0,6.32-1.46,13.17,13.17,0,0,0,3.81-2.68,15.22,15.22,0,0,0,2.33-3,5.07,5.07,0,0,0,.8-2.49c0-.44-.36-.77-1.07-1s-1.22-.37-1.52-.44a5.71,5.71,0,0,1-1.07-.41,4.38,4.38,0,0,1-1.75-1.32,3.53,3.53,0,0,1-.61-2.2,14,14,0,0,1,1.45-5.39,27.88,27.88,0,0,1,4-6.41,41.61,41.61,0,0,1,3.88-4.18c.61-.54,1.4-1.16,2.37-1.87a22.76,22.76,0,0,1,2.82-1.8,8.53,8.53,0,0,1,2.66-1.1,1.59,1.59,0,0,1,.54.44A.6.6,0,0,1,190,370.11Z" style="fill:#eff1bf;fill-rule:evenodd"/></svg>