<?xml version="1.0" encoding="UTF-8"?>
<svg id="Layer_1" xmlns="http://www.w3.org/2000/svg" version="1.1" viewBox="0 0 512 512">
  <!-- Generator: Adobe Illustrator 29.2.1, SVG Export Plug-In . SVG Version: 2.1.0 Build 116)  -->
  <defs>
    <style>
      .st0 {
        fill: #00aec5;
      }

      .st1 {
        fill: #b01117;
      }
    </style>
  </defs>
  <path class="st1" d="M399.3,416.8h-147c-6.5,0-96.1-152.5-96.1-160.8s39.3-61.5,35.3-61.9c-6.1-.7-61.1,0-61.1,0,0,0-78.8,129.7-78.8,134.5s76.4,139.9,78.8,139.9h59.8c3.4,0-77.1-132.5-76-137.2.8-3.6,9.6-18.9,13.2-23.4s93.1,160.6,98.8,160.6h149.1s32.3-51.6,24.1-51.6Z"/>
  <path class="st1" d="M318.2,53.7c4.1,7,71.2,121.2,74.5,126.7,3.3,5.6-82.8,160.1-89.9,164.3s-72.8-2.7-71.3.9c2.5,5.6,31,52.7,31,52.7,0,0,151.7,2.2,155.8-.2,4.1-2.4,81.9-136.7,80.7-138.8l-30.3-51.5c-1.7-2.9-75.2,133.6-79.7,135.1-3.5,1.1-21.1,1.4-26.9.5-5.8-.9,91.2-161.7,88.3-166.6-5.1-8.8-75.5-128.5-75.5-128.5,0,0-60.8-1.7-56.7,5.4Z"/>
  <path class="st1" d="M45.3,302.3l74.5-126.7c3.3-5.6,180.2-5.5,187.3-1.3s33.1,65,35.5,61.8c3.7-4.9,31-52.7,31-52.7,0,0-71.9-133.6-76-136.1s-159.3-5-160.5-3l-30.3,51.5c-1.7,2.9,153.3.7,156.8,3.9,2.7,2.5,11.5,17.8,13.5,23.3s-185.7-1.1-188.5,3.8L13,255.4s28.1,54,32.3,46.9Z"/>
  <path class="st0" d="M313.8,257.9c0-32.3-26.1-58.4-58.4-58.4s-58.4,26.1-58.4,58.4,26.1,58.4,58.4,58.4h0c32.3,0,58.4-26.1,58.4-58.4Z"/>
</svg>