<?xml version="1.0" encoding="UTF-8"?>
<svg id="Layer_1" xmlns="http://www.w3.org/2000/svg" version="1.1" viewBox="0 0 512 512">
  <!-- Generator: Adobe Illustrator 29.2.1, SVG Export Plug-In . SVG Version: 2.1.0 Build 116)  -->
  <defs>
    <style>
      .st0 {
        fill: #2f3394;
      }
    </style>
  </defs>
  <path class="st0" d="M240.8,27.4c4.5-3.4,10-6.2,15.9-5.9,5.7.2,11,2.7,14.8,6.9,6.6,6.9,13.8,13.2,20.4,20.1,5.3,4.5,9.8,9.8,15,14.4.8.8,1.6,1.7,2.3,2.6-13.8.6-27.7,0-41.5.3-4.2.3-8.4.4-12.7.3l-65.4,65.4c-5.8,5.7-11.4,11.7-17.4,17.1-11.9,11.9-23.8,23.9-35.8,35.7v-54.6c8-7.5,15.5-15.5,23.3-23.1,7-6.2,13.1-13.3,20.2-19.5,8.2-8.4,16.9-16.4,25.2-24.8,7.9-7.1,15.1-14.9,22.7-22.3,4.6-4,8.5-8.6,13-12.6M79.1,81.9c6.3,0,12.5,0,18.8,0,5.6.6,11.3.2,16.9.3,13.7,0,27.5-.1,41.2,0-4.2,5.3-9.5,9.5-14.3,14.4-7.7,7.9-16,15.2-23.7,23.2-.1,13.7.4,27.4-.4,41v67.6c-.1,6.9.3,13.7-.3,20.6,0,12.3,0,24.6,0,36.9-13.1-13-26-26-39-39,.2-10.4-.3-20.8.4-31.1v-65.4c.1-8.1-.3-16.2.4-24.2v-44.5M257,92c3.1-3,6-6.1,9.1-9.1,56,0,111.9,0,167.9,0v75.9c-7.8-6.9-14.9-14.7-22.4-21.9-5.5-4.8-10.5-10.2-15.7-15.3h-127.4c-13.8-.1-27.6.2-41.3-.2,3.8-4.4,8.1-8.3,12.2-12.4,6.2-5.3,11.5-11.6,17.7-17M332.1,139c18.3-.2,36.7,0,55,0,6.1,6.4,12.7,12.2,18.8,18.5,4.8,4.6,9.2,9.5,14.2,13.8,10.3,10.3,20.6,20.6,30.9,30.9,8.7,8,16.7,16.6,25.2,24.8,4.9,4.2,9.1,9,13.8,13.4,5.5,5.8,8.7,14.6,5.9,22.4-2,5.8-6.9,9.7-11.3,13.7-10.9,10.9-21.8,21.8-32.7,32.6v-39.1c-.5-4.8-.3-9.7-.4-14.5-5.1-4.3-9.3-9.5-14.4-13.7-7-7.1-14.5-13.9-21.5-21.1-5.3-4.5-9.8-9.8-15-14.4-3.6-3.3-6.8-6.9-10.4-10.3-5.3-4.5-9.8-9.8-15-14.4-6.9-7.1-14.3-13.7-21.2-20.7-5.5-4.8-10.2-10.4-15.8-15.1-2.3-2-4.4-4.2-6.3-6.7M243.1,156.3c27.9-3.4,57.2,4.7,79,22.5,20.4,16.3,34.4,40.8,37,67,3.3,28-6.8,57-26,77.6-18.9,20.3-45,32.3-72.7,33.3-4.9-.1-9.8.2-14.7-.3-17.4-1.6-34.1-7.5-48.6-17.2-20.6-13.9-36.3-35.2-42.1-59.5-2.9-10.8-3.2-22.2-2.4-33.3,2.7-27.8,18-53.9,40.5-70.2,14.7-10.8,31.9-17.6,50-19.8M20.7,242.7c13.1-13,26-26.2,39.2-39.1.3,13.5,0,27,.1,40.4.3,4.3.5,8.7.3,13,5.6,5.7,11.6,11,17.2,16.8,4.5,3.9,8.5,8.2,12.7,12.3,5.2,4.6,9.8,9.9,15.1,14.4,6.4,6.6,13.3,12.7,19.7,19.3,4.6,3.9,8.7,8.5,13.1,12.6,4.1,3.6,7.6,7.6,11.6,11.3,4.8,4,8.8,8.8,13.4,12.9,3.5,3.2,6.7,6.7,10.1,10,2.4,1.9,4.5,4,6.5,6.3l-.3.9c-18.1.2-36.1,0-54.2,0-2.3-2.3-4.6-4.6-7-6.8-5.9-5.6-11.4-11.7-17.5-17-8.1-8.1-16.2-16.2-24.3-24.3-11.6-10.7-22.2-22.5-33.9-33.1-5.7-5.6-11.2-11.4-17.1-16.8-4.5-4.1-8.3-9.1-9.9-15-1.6-6.6.4-13.5,5.2-18.2M391.7,224.1c10,10.1,20.5,19.6,30.4,29.7,3,2.9,6.4,5.4,8.9,8.8.8,2.4.3,4.9.4,7.3.1,7.6-.3,15.2.3,22.8,0,7.3,0,14.7,0,22,.7,9.3.2,18.7.4,28,.7,9.1.2,18.1.4,27.2.7,9.1.2,18.1.4,27.2.8,10.2,0,20.4.5,30.6h-14.1c-9.8.7-19.7.1-29.5.4-10.8.9-21.7-.4-32.4.7-.1-.3-.5-.8-.6-1,8.3-8.3,16.8-16.4,24.7-25,4.1-4.1,8.3-8.3,12.4-12.4,0-3.6,0-7.2-.3-10.8-.3-9.6.3-19.2-.4-28.7v-21.3c-.7-9.3-.2-18.7-.4-28-.9-10.5.2-21.1-.7-31.7,0-7.6,0-15.2,0-22.8-.7-7.6-.2-15.3-.4-23M347.1,356.5c9.3-10,19.2-19.4,28.8-29.1,0,6.8-.3,13.6.3,20.4,0,11.3,0,22.7,0,34l-27.7,27.7c-7.3,7.4-15,14.4-22.2,21.9-5.6,5.9-11.8,11.2-17.5,17.1-8.7,8.7-17.3,17.5-26.3,25.9-5.1,4.7-9.3,10.6-15.6,13.7-5.7,2.9-12.8,3.5-18.5.5-3.2-1.3-5.4-4-8-6.1-7.3-7.1-14.6-14.3-22.1-21.2-4.7-4.9-9.9-9.2-14.4-14.2,17.8-1.2,35.8-.2,53.7-1,29.8-29.8,59.6-59.6,89.5-89.4M76.5,349.8c4.4,4.3,8.6,8.8,13.2,12.8,8.4,8.4,16.9,16.8,25.3,25.2h124.1c4.7,0,9.3-.2,13.9.3,10.2.2,20.4-.2,30.5.2-5.3,5.8-11.2,10.9-16.7,16.5-3.8,4.1-8.2,7.5-12,11.6-3.3,3.5-7,6.5-10.3,10h-68.6c-2.5,0-4.9-.4-7.3-.4h-91.9c0-25.4,0-50.9,0-76.3"/>
</svg>