<?xml version="1.0" encoding="UTF-8"?>
<svg id="Layer_1" xmlns="http://www.w3.org/2000/svg" version="1.1" viewBox="0 0 512 512">
  <!-- Generator: Adobe Illustrator 29.2.1, SVG Export Plug-In . SVG Version: 2.1.0 Build 116)  -->
  <defs>
    <style>
      .st0 {
        fill: #f25920;
      }
    </style>
  </defs>
  <path class="st0" d="M28,27.8h456v456.3c-152,0-304,0-456,0V27.8M93.2,93.1v326.2h325.5c0-108.7,0-217.4,0-326.1-108.5,0-217,0-325.5,0M246.6,194.9c3.1-1.4,6.2-2.6,9.4-3.5,3.4,1,6.6,2.3,9.9,3.7,30.5,12.2,60.9,24.5,91.4,36.5,15.6,6.4,31.2,12.7,46.9,18.9.7.4,2,.5,1.9,1.7,0,22.9,0,45.8,0,68.7-9.3-3-18.2-7.2-27.4-10.6-40.2-16.2-80.5-32.2-120.8-48.4-3.1-1.1-6,1-8.7,2-22.7,9.2-45.5,18.1-68.1,27.3-25.1,9.8-49.9,20.3-75.1,29.8v-69.6c4.2-2,8.5-3.7,12.9-5.1,16.3-6.7,32.7-13.3,49.1-19.7,26.2-10.5,52.5-21.1,78.7-31.6"/>
</svg>