<?xml version="1.0" encoding="UTF-8"?>
<svg id="Layer_1" xmlns="http://www.w3.org/2000/svg" version="1.1" viewBox="0 0 512 512">
  <!-- Generator: Adobe Illustrator 29.2.1, SVG Export Plug-In . SVG Version: 2.1.0 Build 116)  -->
  <defs>
    <style>
      .st0 {
        fill: #f7941f;
      }

      .st1 {
        fill: #00a652;
      }
    </style>
  </defs>
  <path class="st1" d="M115.9,155.2c47-46.3,93.4-93.4,140.5-139.8,17.9,17.2,35.2,35,52.9,52.5,10.9-8.6,21.2-18.2,34.5-23,0,18.2-3.9,37.4,3.5,54.8,5,12.5,15.4,21.4,24.7,30.6,41.5,41.9,83.5,83.3,125,125.3-17,18.9-36.6,35.4-53.3,54.7,9.8,9.6,18.6,20.4,23.1,33.6-24.2-2-52.3-4.7-71.2,13.9-46.8,45.9-92.8,92.7-139.4,138.8-18.1-17.2-36.4-34.4-52.9-53.2,43.6-45,88.2-89,132.3-133.4,17.7-18.2,43.7-25.9,68.5-20.2,12.6,2.2,23.4,9.3,34.6,15.2-42.8-44.8-87.8-87.4-131.1-131.6-16.3-17.2-22.6-42.5-17.5-65.6,2.2-11.3,8.1-21.2,12.8-31.5-42.5,41.9-84.3,84.6-126.6,126.7-12.9,13-30.9,21.1-49.3,21-35.4,1.2-68.4-23.4-81.5-55.6,23.8,2.1,51.8,5,70.6-13.2M15.1,255.6c17.8-17.3,35-35.3,52.9-52.4,45.2,44.2,89.6,89.1,134.5,133.6,18.8,18.1,25.6,46.8,18.5,71.7-7,26.7-27.7,48.2-52.8,59,.9-23.8,5-51.8-13.4-70.6-36.7-37.4-74.2-74-110.9-111.5-9.6-10.1-20.3-19-28.9-29.9Z"/>
  <path class="st0" d="M238.8,179.9c21.1-3.9,43.9.1,61.3,13,26,18.1,38.1,53.3,29.5,83.6-9.6,35.3-46,61.2-82.7,56.4-37.5-3-69.2-36.8-69.6-74.5-2-36.7,25.5-71.7,61.5-78.6Z"/>
</svg>