<?xml version="1.0" encoding="UTF-8"?>
<svg id="Layer_1" xmlns="http://www.w3.org/2000/svg" version="1.1" viewBox="0 0 512 512">
  <!-- Generator: Adobe Illustrator 29.2.1, SVG Export Plug-In . SVG Version: 2.1.0 Build 116)  -->
  <defs>
    <style>
      .st0 {
        fill: #701e72;
      }
    </style>
  </defs>
  <path class="st0" d="M117.4,58.8c24.2-1.2,47.5,9.2,62.7,28,14.9,18,20.3,43.2,14.6,65.8-10.1,40.5-51.1,65.1-91.6,55.1-20.8-5.2-38.5-19-48.5-38-19.5-36.9-5.5-82.7,31.4-102.2,9.7-5.1,20.4-8.1,31.4-8.7M259.4,62.2c.6-1.3,1.4-2.6,2.2-3.8-23.6,109.1-47.2,218.3-70.9,327.4-4.9,22.5-9.7,44.9-14.6,67.4H51.2C120.7,322.9,190.1,192.6,259.4,62.2M275.1,58.7h43.9c-24,110.7-48,221.3-71.9,332-4.4,20.8-9.1,41.7-13.5,62.5h-44c28.5-131.5,57-263,85.5-394.5M333,58.7h124.9c-70.1,131.6-140.1,263.3-210.2,394.9,1.8-9.8,4.2-19.5,6.2-29.3,26.3-121.9,52.7-243.7,79.1-365.6M336.8,324.5c27.6-28.2,72.3-30.3,102.4-4.8,31.9,26.9,36,74.6,9.2,106.5-26.9,31.9-74.6,36-106.5,9.2-6.6-5.5-12.2-12.1-16.5-19.6-17.4-29.5-12.7-67,11.4-91.3"/>
</svg>