<?xml version="1.0" encoding="UTF-8"?>
<svg id="Layer_1" xmlns="http://www.w3.org/2000/svg" version="1.1" viewBox="0 0 512 512">
  <!-- Generator: Adobe Illustrator 29.2.1, SVG Export Plug-In . SVG Version: 2.1.0 Build 116)  -->
  <defs>
    <style>
      .st0 {
        fill: #009c4b;
      }
    </style>
  </defs>
  <path class="st0" d="M38,160c4.2,5.1,8,9.7,11.8,14.3,4.8,5.9,10.6,10.7,18,12.7,4.5,1.2,9.1,1.8,13.8,1.9,9.5.4,19,.5,28.5.3,9.4-.2,18.6,2.7,26.3,8.1,6.5,4.4,12.2,9.9,16.9,16.2,24.2,31.9,48.5,63.8,72.7,95.6,1.7,2.2,3.4,4.4,5.1,6.5,3.8-2,32-29.6,36.2-35.3-.4-.9-.9-1.8-1.5-2.7-20.3-26.3-41-52.2-60.7-78.8-12.6-17-29.6-24.1-49.5-26.7-8.7-1.2-17.4-2.1-25.9-3.8-16.8-3.2-30.2-12.5-41.1-25.3-7.6-8.9-14.5-18.5-21.7-27.8-.6-1-1.2-2-1.8-3l18.5-22c1.7,2.1,3,3.5,4.1,4.9,7.5,10,15,20,22.5,29.9.7.9,1.4,1.8,2,2.7,10.4,14.8,24.7,23.1,42.6,25.8,13.8,2.1,27.4,5.1,41.1,7.8,13,2.6,23.1,9.8,31.1,20.3,19.2,25.1,38.5,50.2,57.9,75.3.8,1,1.7,1.9,2.5,2.8,3.5-1.7,30.9-28.7,35.4-35-.5-.9-1-1.8-1.6-2.7-16-20.6-32.2-41-48.1-61.7-7.7-10-17.8-15.6-29.9-18-2.8-.4-5.5-.6-8.3-.6-15.3-.5-30.4-2-45.1-6.9-8.2-2.6-15.4-7.6-20.7-14.4-15.2-19.6-30.4-39.2-45.5-58.8-.7-.9-1.3-1.8-2.2-3.4l23.4-14.4c1.4,1.6,2.4,2.7,3.3,3.9,12,15.4,23.9,30.9,36,46.3,3.9,5,8.3,9.5,12.4,14.4,8.1,9.6,18.9,13.5,30.9,15,10.2,1.2,20.3,2.3,30.5,3.3,18.5,1.7,33.2,10,44.5,24.8,12.5,16.3,25.1,32.4,37.7,48.5,1.1,1.4,2.3,2.8,4,4.8,12-12,23.4-23.8,35.3-36.1-10.9-13.6-20.8-27.4-32.1-39.9-9.7-10.6-23.1-15.2-37.3-17.3-11.3-1.7-22.4-3.6-33.5-5.7-12-2.3-22.8-6.9-31.1-16.2-5.3-5.8-10.6-11.5-15.4-17.7-10.7-13.6-21.2-27.4-31.8-41.2-1.3-1.6-2.4-3.3-3.9-5.3.9-.7,1.9-1.2,3-1.6,7.1-1.6,14.2-3,21.3-4.5,3.3-.9,6.8.4,8.6,3.3,7.4,9.8,15,19.5,22.8,29,4.6,5.6,9.6,10.9,14.3,16.4,10.2,11.7,23.3,18.5,38.3,21.4,8.2,1.6,16.6,2.3,24.8,3.5,6.6,1,13.3,1.9,19.8,3.3,7.9,1.6,15,6.1,20,12.5,9.3,11.7,18.8,23.1,28.3,34.7,1.3,1.6,2.6,3.1,3.9,4.5,4.1-2.3,31.7-30,34.9-35.1-1-1.4-2.1-2.9-3.2-4.3-4.8-5.9-9.9-11.7-14.5-17.8-3.8-5.2-9.5-8.6-15.9-9.4-7-1.1-14-1.9-21-2.4-10.8-.8-21.6-1-32.2-3.3-6.5-1.4-12.5-3.9-17.4-8.3-4.7-4-9.1-8.3-13.2-12.9-8.7-10.2-17-20.8-25.4-31.3-.9-1.1-1.6-2.4-2.5-3.8,66.9,6.1,160.7,57.3,194.2,163,33.3,104.5-9.1,218.2-102.8,275.3-92,56.6-213,42.9-289.7-32.1C9.8,347.3,3.1,235.4,38,160Z"/>
</svg>