<?xml version="1.0" encoding="UTF-8"?>
<svg id="Layer_1" xmlns="http://www.w3.org/2000/svg" version="1.1" viewBox="0 0 512 512">
  <!-- Generator: Adobe Illustrator 29.2.1, SVG Export Plug-In . SVG Version: 2.1.0 Build 116)  -->
  <defs>
    <style>
      .st0 {
        fill: #fecb05;
      }

      .st1 {
        fill: #940509;
      }
    </style>
  </defs>
  <path class="st1" d="M295.8,46.6c15.2-5.1,30.4-12.4,46.7-12.5,3.8-.7,3.7,4.1,4.7,6.5,4.7,17.6,11.4,34.6,15.2,52.4-1.3,3.6-5.9,2.5-8.7,3.4-35.8,4-70.4,14.8-102.1,31.9-35.2,19.8-65.1,50.8-79.4,89-11.1,25.2-14.6,53.2-14,80.5-.9,26.9,6.6,53.2,16.1,78.1-16.3-29.5-26.3-62.2-30.9-95.5-.9-23-2.1-46.4,4-68.9,5.1-26.8,17.4-51.8,33-74,29.2-40,69.8-71.5,115.4-90.8M289.3,157.6c8.4-1.1,16.6,2,24.8,3.4,55.2,10.7,107,42.8,137.4,90.6,30.5,49.1,41.9,108.8,36.1,166-1.7,19.7-7.5,38.8-13.4,57.6-.8,4.1-5.8,2.4-8.5,2.1-19-4.4-37.7-10.2-56.6-15.2,17-35,29.3-73.1,30.5-112.2.6-23-1.3-46.4-9.6-68-15-44.5-49.8-79.8-89.6-103.5-9.6-4.5-19.2-9-29-13-7.2-3-15.3-3.5-22-7.8M264.9,213.1c22.7-4.7,48-1.5,66.7,12.8,22.8,15.9,35.2,44.4,33.5,71.9-2.1,14.2-5.5,28.9-14.4,40.5-15.6,21.6-42.1,36.5-69.2,34.4-39.5.6-75.6-33.3-78.2-72.6-2.7-25.4,6.7-50.6,25.4-68.1,10.5-8.9,22.7-16.1,36.2-18.9M269.4,218.2c-21.3,4.7-41.2,18.2-51.1,38-6.4,12.8-10.6,27.2-9.3,41.6,2.4,17.8,9.4,35.3,22.8,47.6,20.4,20.6,53.9,27.7,80.5,15.7,18.5-6.7,33.1-22.2,40.8-40.1,16.4-34.7-.9-80.3-35.7-96.2-14.7-7.8-31.7-10.2-48-6.6M35.5,354.3c10.8-10.2,19.8-22.2,30.6-32.5,9.3,10.3,17.3,21.7,27.1,31.5,31.5,34.5,72.4,62.5,118.9,71.2,51.5,9.8,104.9-6.5,147.1-36.2,16.8-11.8,29.9-27.7,43.8-42.6-13,22.2-30.7,41.3-49.3,58.9-31.8,29.7-72.3,48.4-115.6,53.3-20.5.2-41.4,1.9-61.6-2.7-17.2-3.3-34.4-7.5-50.6-14.4-32.8-11.2-62.5-30.5-87.4-54.6-5.6-5.2-11.2-10.4-15.5-16.7,2.6-6.2,8.2-10.4,12.5-15.3"/>
  <path class="st0" d="M269.3,218.2c16.3-3.5,33.3-1.2,48,6.6,34.8,15.9,52,61.5,35.7,96.2-7.6,18-22.2,33.4-40.8,40.1-26.7,11.9-60.1,4.8-80.5-15.7-13.3-12.3-20.3-29.9-22.8-47.6-1.3-14.4,2.8-28.8,9.3-41.6,9.9-19.8,29.8-33.3,51.1-38"/>
</svg>