<?xml version="1.0" encoding="UTF-8"?>
<svg id="Layer_1" xmlns="http://www.w3.org/2000/svg" version="1.1" viewBox="0 0 512 512">
  <!-- Generator: Adobe Illustrator 29.2.1, SVG Export Plug-In . SVG Version: 2.1.0 Build 116)  -->
  <defs>
    <style>
      .st0 {
        fill: #009aae;
      }
    </style>
  </defs>
  <path class="st0" d="M274.8,44.2c9.6-11.5,23.3-19.2,38-22.2-4.8,4.6-10.6,9-11.5,16.1-2,11.1,6.4,20.3,13.9,27.4,28,28,55.8,56.1,83.9,84.1,8.6,8.4,16.7,17.6,21.6,28.6,5.7,12.3,8.1,26.7,3.9,39.8-3.9,14.3-16.4,26.3-31.3,28.5-10.7,2.3-21.5-.6-31.7-3.8-8.9-2.9-19-3.2-27.4,1.3-10.2,5.1-18,13.6-26.1,21.3-35.5,35.7-71.1,71.4-106.6,107.1-17.5,17.6-36.2,35.1-59.2,45.1-14.5,6.4-30.1,9.8-45.9,10.2,4.7,8.5,10.5,17.4,20.2,20.7,13.4,4.4,27.8.6,40.2-5,24.7-11.9,46.1-29.6,65.1-49.1,31.6-31.5,63.2-62.9,94.8-94.3,14.2-14.8,32.1-28.3,53.3-29.5,27.5-2.7,54.7,17.3,61.7,43.8-5.2-5-11.5-9.7-19.1-9.5-12.7,0-22.6,9.2-30.8,17.9-39.9,39.6-79.3,79.7-119.4,119.1,4.9,4.5,10.9,8.3,17.8,8.4,11,1,21-5.3,28.5-12.9,24.1-24.3,48.3-48.6,72.6-72.8,9.3-9.3,18.2-19.2,29.6-25.8,10.6-6.3,23.4-10.5,35.8-8.2,23.1,4.5,41.3,25.8,44.1,48.8-3.9-4.2-7.8-9.6-13.9-10.2-9.7-1.6-17.9,4.9-24.4,11.3-30.8,30.6-61.5,61.3-92.2,92-21.9,20.9-58.8,22.9-82.9,4.5-9.7-7.4-16.8-17.9-20.1-29.7-18.9,18.9-42.3,34-68.6,39.9-22.4,5.7-47.1,3.6-67.5-7.7-20.4-11.2-34.8-31.3-40.8-53.5-18.1-4.2-35-14.3-45.6-29.7-12.8-18.6-16.6-42.5-12.1-64.5,4.3-22.6,15.4-43.3,29.1-61.6,2.8-3.6,5.3-7.7,9.4-10.1,6.3-9,14.3-18.1,25.5-20.5,9.9-2.7,20.5-1.2,29.3,4-5.4-9.4-7.2-21.1-3.2-31.4,3.9-12.3,14.7-21.8,27.2-24.6,8.5-1.2,17.7-1.3,25.3,3.2,16.4,7.7,25,28.5,18.9,45.5-4.9,14.3-17.8,24.4-32.9,25.8-7.5.9-14.8-1.9-21.5-4.8,4.7,9.3,5.7,20.1,2.8,30.2-3.8,11.6-12.9,20.7-24.5,24.5-10.9,3.2-23.4,1.8-32.7-5-10-6.9-16-18.2-16.1-30.4-.4-4.9,1.6-9.5,1.9-14.3l-1.4.2c-16.1,22.7-30.6,48-33.4,76.2-1.5,14.2,4.2,30.4,17.5,37.2,13.1,8,29.4,6.1,43.2,1.1,20.7-7.9,39.1-21,55.3-35.9,38.3-38.4,76.6-76.8,114.9-115.2,15.9-15.4,38.3-25.5,60.7-21.8,16.4,1.9,28.2,14.5,42,22,5.2,2.3,11.8,6,17.1,2,2.6-1.4,1.8-4.7,1.7-7.1-2.4-8.2-8.5-14.5-14.3-20.4-26.2-26.1-52.3-52.1-78.5-78.2-10.7-10.6-19.6-23.6-22.7-38.5-2.7-14.1,2.3-28.8,11.5-39.5h0Z"/>
</svg>