<?xml version="1.0" encoding="UTF-8"?>
<svg id="Layer_1" xmlns="http://www.w3.org/2000/svg" version="1.1" viewBox="0 0 512 512">
  <!-- Generator: Adobe Illustrator 29.2.1, SVG Export Plug-In . SVG Version: 2.1.0 Build 116)  -->
  <defs>
    <style>
      .st0 {
        fill: #f29200;
      }
    </style>
  </defs>
  <path class="st0" d="M133.7,27h76.5c14.6,10.9,29.3,21.6,44.4,31.5-9.1-10.2-18.9-19.8-27.2-30.6,12.4,0,25-1.2,37.4.3,6.9,4.4,10.5,12.2,16.1,18-2-6.2-4.4-12.1-6.7-18.2,8.8-.2,17.7-1.1,26.6,0,3.6.1,4.4,4.2,5.6,6.9,5.4,14.9,11.7,29.5,17,44.5-16.7,6.6-30.2,19.5-40.1,34.2-49.9-28.9-100.5-56.6-149.7-86.6M28.3,29.6h54.5c4.1,0,8.1,1,11.7,2.9,62.2,28.5,124.8,56.2,186.8,85-8.4,16.9-10.3,36.4-8.5,55-81.7,21.1-162.9,43.9-244.6,65.3,0-19.6,0-39.2,0-58.9,51.5-6.3,102.8-14.6,154.4-20.1-15.8-2.9-31.9-2.6-47.8-4-35.4-2.1-70.6-5-106-6.4-1.1-16.4-.6-32.9-.3-49.3,43,6,86,11.1,129,16.9,10.9,1.8,22,3,33,3.6-53.7-15.2-107.4-31-161.1-46.3-2.6-14.4-.6-29.1-.9-43.7M315.6,29.7c8.5,0,17-.2,25.4.4,1,5.2,2.6,10.3,4.8,15.1-.2-5.2-.1-10.4.3-15.5,7.6,0,15.1-.1,22.7-.2-.1,6.4-.7,12.7-.8,19.1,3.3-5.8,4.6-12.4,6.4-18.8,8.9-.1,17.9-.1,26.8,0-5,16.1-12.1,31.5-17.5,47.4-18.6-5.6-38.4-5.6-56.9.2-3.3-16-7.7-31.7-11.1-47.7M412.8,30c10.5-.6,21.1-.3,31.6-.3-8,15.7-18.7,29.8-26.9,45.4,14.5-14.7,28-30.4,42.2-45.4,7.9,0,15.7,0,23.6-.1.4,7.2,1.6,14.4,0,21.5-.2,1.7-1.7,2.6-2.8,3.7-15,12.1-30,24-45.1,36,16.9-5.9,31.7-16,48.3-22.5.2,11.2.2,22.4,0,33.5-17.8,5.7-34.6,14.3-52.8,18.6-9.4-18.1-24.5-33.5-43.7-41,6.6-17.4,17.6-32.5,25.6-49.2M433.1,124.3c17.1-3,33.7-8.6,50.8-11.4,0,7.5,0,15-.3,22.6-9.1,2.4-18.2,4.8-27.3,7.3,9.1,2.4,18.4,3.8,27.5,6,0,7.5,0,15-.1,22.5-6.5.3-13,.5-19.5,1,6.4,3.4,13.1,5.8,19.8,8.5-.3,10,0,20-.4,30-17.1-7-34.2-14.1-51.1-21.4,8.2-20.6,8-44.2.7-65M28.3,272.4c82.3-31.4,164-64.2,246.2-96,4.9,19.5,17.2,36.8,33.4,48.6-40.8,69.1-81.5,138.2-122.2,207.3-9.9,17.1-19.6,34.3-30.4,50.8-21.4,1.2-42.9.5-64.3.2,43-64.6,88.7-127.4,131.4-192.1-33.9,33.4-67.3,67.3-101,100.8-31.2,30.9-63,61.2-93.1,93.1-.2-33.7-.8-67.3.2-101,4.6-4.8,10.1-8.5,15.3-12.5,42.3-33.1,84.6-66.2,126.9-99.3,7.4-5.8,15.1-11.2,21.6-18-29.8,16-60.7,30.3-90.8,45.9-24.4,12.4-48.7,24.8-73.3,36.7-.1-21.5-.4-43,.1-64.4M430.3,194.1c17.7,10.9,35.9,20.9,53.2,32.4.8,10.2.3,20.4.1,30.6-11.1-4.8-21.7-10.4-32.3-16.1,10,15.3,22.3,28.9,32,44.4,1.4,13,.3,26.1.4,39.1-18.1-13.6-32.8-31.2-50.7-45.1,15.6,30.1,34.4,58.4,50.1,88.4,1.6,34.5.5,69.1.6,103.6.3,3.1-.3,6.1-1.7,8.9-33.9-81.2-67.4-162.7-101.7-243.8,9.5-4.7,19.6-8.7,27.8-15.7,9.2-7.2,15.8-17,22.2-26.7M312.2,227.6c18.8,11.3,41.8,14.2,63.3,10.3,20.3,81.8,43.5,162.8,63.6,244.7-16.8-.7-33.7,1.4-50.5-.8-9.8-45.7-19.3-91.6-28.8-137.4-1.6-7.3-2.7-14.7-5.3-21.6.2,6.5.6,13.1.3,19.6-.8,16-.4,32-.8,48-.4,30.6-1.1,61.2-1.2,91.7-17.2.5-34.5,1-51.7,0,3-50.9,7.5-101.8,10.7-152.7l1.6-.6-1.5-.6c-16.1,50.9-29.4,102.6-44.4,153.8-20.8,1.2-41.6.4-62.4.4,7.9-21.2,16.9-41.9,25.7-62.7,27.3-64,53.5-128.4,81.3-192.1h0Z"/>
</svg>