<?xml version="1.0" encoding="UTF-8"?>
<svg id="Layer_1" xmlns="http://www.w3.org/2000/svg" version="1.1" viewBox="0 0 512 512">
  <!-- Generator: Adobe Illustrator 29.2.1, SVG Export Plug-In . SVG Version: 2.1.0 Build 116)  -->
  <defs>
    <style>
      .st0 {
        fill: #2e3192;
      }

      .st1 {
        fill: #f38220;
      }
    </style>
  </defs>
  <path class="st0" d="M344.1,256.1c0-48.7-39.5-88.1-88.1-88.1s-88.1,39.5-88.1,88.1,38.6,87.2,86.6,88.1c.8,0,1.5,0,1.5,0,0,0,.8,0,1.5,0,48-.8,86.6-39.9,86.6-88.1ZM181.1,262.1h27c.8,9.3,2.9,18.4,6.2,27.2h-25.7c-4.1-8.3-6.8-17.5-7.5-27.2h0ZM330.8,249.1h-28c-.5-9.1-2.3-18-5.2-26.8h25.6c4.1,8.2,6.8,17.2,7.7,26.8ZM289.8,249.1h-27.4v-26.8h21.3c3.4,8.7,5.5,17.7,6.1,26.8h0ZM262.5,209.4v-20.7c6,6.6,11,13.5,15.1,20.7h-15.1ZM249.5,209.4h-16.9c4.4-8,10.1-15.8,16.9-23.1v23.1ZM249.5,222.4v26.8h-28.7c.5-9,2.4-18,5.8-26.8h22.9,0ZM207.8,249.1h-26.7c.9-9.6,3.5-18.6,7.7-26.8h24c-2.9,8.8-4.6,17.7-5,26.8h0ZM221.1,262.1h28.4v27.2h-21.2c-3.8-8.9-6.3-18-7.2-27.2ZM249.5,302.3v19.1c-5.6-6.2-10.5-12.6-14.5-19.1h14.5ZM262.5,302.3h13.7c-3.8,6.4-8.4,12.6-13.7,18.6v-18.6ZM262.5,289.3v-27.2h27.2c-.8,9.2-3.2,18.3-6.9,27.2h-20.3ZM302.7,262.1h28.2c-.8,9.7-3.4,18.9-7.5,27.2h-26.7c3.2-8.9,5.3-18,6-27.2ZM314.9,209.4h-22.6c-4.4-9.1-10.2-17.8-17.2-26.1,16,4.2,29.9,13.5,39.8,26.1ZM234.2,184.1c-6.6,8-12,16.5-16.2,25.3h-20.9c9.4-11.8,22.3-20.8,37.1-25.3h0ZM196.8,302.3h23.3c4.9,9.4,11.3,18.4,19.1,27-17.1-3.9-31.9-13.6-42.4-27ZM272.3,329.4c7.6-8.7,13.9-17.7,18.8-27.1h24.2c-10.6,13.5-25.6,23.3-42.9,27.1Z"/>
  <path class="st0" d="M256,92.3c42.8,0,81.8,16.3,111.2,43-5.8-56.3-53.3-100.3-111.2-100.3s-105.4,44-111.2,100.3c29.3-26.7,68.4-43,111.2-43Z"/>
  <path class="st0" d="M90.8,257.4c0-43.5,16.8-83,44.3-112.5-56,6.1-99.6,53.5-99.6,111.1s42.1,103.3,96.6,110.7c-25.7-29.1-41.4-67.4-41.4-109.3h0Z"/>
  <path class="st0" d="M375.4,143.4c28.3,29.6,45.7,69.8,45.7,114s-15.1,78.9-40.1,107.8c53.9-8,95.4-54.4,95.4-110.6s-44.3-105.8-101-111.2h0Z"/>
  <path class="st0" d="M256,422.5c-42.3,0-80.8-15.9-110.1-42,7.5,54.5,54.2,96.5,110.7,96.5s104.1-42.7,110.9-97.9c-29.4,27-68.6,43.4-111.6,43.4h0Z"/>
  <path class="st1" d="M293.7,119.1h-1.3c-10.6.3-19.8,7.3-22.9,17.4l-5.5,17.7c-1.6,5.2,1.6,10.7,6.9,11.8h0c14.1,2.9,27.6,8.4,39.8,16.2h.1c4.5,2.9,10.4,1.4,13-3.2l9.1-16.1c5.3-9.5,3.8-21.3-3.7-29.2h0c-9.3-9.6-22.2-14.9-35.5-14.6h0Z"/>
  <path class="st1" d="M379.5,185.9l-.9-.9c-7.7-7.3-19.1-8.8-28.5-3.9l-16.4,8.6c-4.8,2.5-6.4,8.7-3.4,13.2h0c7.9,12.1,13.6,25.5,16.7,39.6v.2c1.2,5.2,6.5,8.3,11.6,6.9l17.8-5c10.5-2.9,17.8-12.4,18-23.3h0c.2-13.4-5.1-26.2-14.8-35.4h0Z"/>
  <path class="st1" d="M392.8,293.7v-1.3c-.3-10.6-7.3-19.8-17.4-22.9l-17.7-5.5c-5.2-1.6-10.7,1.6-11.8,6.9h0c-2.9,14.1-8.4,27.6-16.2,39.8h0c-2.9,4.6-1.3,10.6,3.3,13.2l16.1,9.1c9.5,5.3,21.3,3.8,29.2-3.7h0c9.6-9.3,14.9-22.2,14.6-35.5h0Z"/>
  <path class="st1" d="M326.1,379.5l.9-.9c7.3-7.7,8.8-19.1,3.9-28.5l-8.6-16.4c-2.5-4.8-8.7-6.4-13.2-3.4h0c-12.1,7.9-25.5,13.6-39.6,16.7h-.2c-5.2,1.2-8.3,6.5-6.9,11.6l5,17.8c2.9,10.5,12.4,17.8,23.3,18h0c13.4.2,26.2-5.1,35.4-14.8h0Z"/>
  <path class="st1" d="M218.2,392.9h1.3c10.6-.3,19.8-7.3,22.9-17.4l5.5-17.7c1.6-5.2-1.6-10.7-6.9-11.8h0c-14.1-2.9-27.6-8.4-39.8-16.2h-.1c-4.5-2.9-10.4-1.4-13,3.2l-9.1,16.1c-5.3,9.5-3.8,21.3,3.7,29.2h0c9.3,9.6,22.2,14.9,35.5,14.6h0Z"/>
  <path class="st1" d="M132.5,326.1l.9.9c7.7,7.3,19.1,8.8,28.5,3.9l16.4-8.6c4.8-2.5,6.4-8.7,3.4-13.2h0c-7.9-12.1-13.6-25.5-16.7-39.6v-.2c-1.2-5.2-6.5-8.3-11.6-6.9l-17.8,5c-10.5,2.9-17.8,12.4-18,23.3h0c-.2,13.4,5.1,26.2,14.8,35.4h0Z"/>
  <path class="st1" d="M119.1,218.2v1.3c.3,10.6,7.3,19.8,17.4,22.9l17.7,5.5c5.2,1.6,10.7-1.6,11.8-6.9h0c2.9-14.1,8.4-27.6,16.2-39.8h0c2.9-4.6,1.3-10.6-3.3-13.2l-16.1-9.1c-9.5-5.3-21.3-3.8-29.2,3.7h0c-9.6,9.3-14.9,22.2-14.6,35.5h0Z"/>
  <path class="st1" d="M185.9,132.5l-.9.9c-7.3,7.7-8.8,19.1-3.9,28.5l8.6,16.4c2.5,4.8,8.7,6.4,13.2,3.4h0c12.1-7.9,25.5-13.6,39.6-16.7h.2c5.2-1.2,8.3-6.5,6.9-11.6l-5-17.8c-2.9-10.5-12.4-17.8-23.3-18h0c-13.4-.2-26.2,5.1-35.4,14.8h0Z"/>
</svg>