<?xml version="1.0" encoding="UTF-8"?>
<svg id="Layer_1" xmlns="http://www.w3.org/2000/svg" version="1.1" viewBox="0 0 512 512">
  <!-- Generator: Adobe Illustrator 29.2.1, SVG Export Plug-In . SVG Version: 2.1.0 Build 116)  -->
  <defs>
    <style>
      .st0 {
        fill: #be9c39;
      }

      .st1 {
        fill: #031c45;
      }
    </style>
  </defs>
  <path class="st0" d="M322.8,13c22.8,15.6,41.9,38.2,48.9,65.4,7.4,31.9-.4,66.4-19.1,93-6.2,8.1-13.2,15.5-21,22.1-23.4,20.1-51.5,34.3-73.2,56.5-9.4,9.8-18.1,20.7-22.9,33.5-7.4,18.8-7.2,40.7,1.8,58.8-24.4-17.7-41.3-45.7-45-75.7-1.1-7.9-1.1-16,.2-23.9,3.3-21,11.6-41.5,25.1-58,5.6-6.8,11.9-13.1,18.8-18.7,14.3-11.5,30.7-20,46.1-29.7,17.3-11.8,32.2-27.6,41.7-46.4,7.4-14.4,10.7-30.6,9.5-46.8-1.2-10.7-6.2-20.5-10.8-30.1M296.3,284.2c20.7-5,42.9,12,44.7,32.9.5,8.5-.8,17.5-5.6,24.7-7.4,11.8-21.7,19.4-35.8,17.5-6.7-.4-13.2-2.8-18.6-6.9-12.1-9.2-18.4-26-14.5-40.9,3.5-13.9,15.9-24.3,29.7-27.3Z"/>
  <path class="st1" d="M307.5,231.6c5.9-2.4,12.5-3.7,18.8-2.4,12.1,2.4,22.2,10.4,34.1,13.4,5.1,1.3,10.4,1.4,15.5.2,6.8-2,11.3-7.8,15.7-12.8-3.1,10.5-6.8,22.1-16.4,28.5-7.6,4.5-16.5,6-25.2,4.4-12.4-2.3-23.1-9.3-34.9-13.1-9.6-2.7-19.2,1.4-27.9,5.4,3.7-9.8,10.2-19.3,20.1-23.7M352.9,268.4c9.4-3.4,19.7-3.3,29,.3,9.6,3.9,17.3,11.4,21.4,20.9,4.4,10.1,5.6,21.4,5.6,32.3.3,11.8,4,24.2,12.6,32.7,5.2,4.2,11.6,6.2,17.5,9.2-14.3,5.5-32.1,4.1-43.7-6.6-5.1-5.2-9.8-11.1-12.2-18.1-5.5-15.5-3-32.5-8.3-48-1.8-5-4.2-10.1-8.3-13.7-4-3.6-9.1-6.2-13.7-9.1M118.6,281.6c28.4-6.3,59.4,5.2,78.1,27.2,11.2,13.4,19.4,28.9,29.4,43.1,7.3,10.4,15.9,20.1,26.8,26.9,4.4,2.5,8.8,5.3,13.7,6.8,11,3.3,22.6,1.6,33.7.1-10,10.8-22.5,19.5-36.5,24-11.4,3.6-23.6,4.4-35.3,2.1-15.5-3-29.4-11.6-40.5-22.7-7.7-7.8-14.3-16.6-19.6-26.2-7.1-12.5-13.6-25.9-24.4-35.7-12.1-11.7-28.2-19.9-45.3-20.4-9-.3-17.9,2-25.7,6.6,12-14.4,27.2-27.1,45.6-31.9M376.1,333.8c8.3,13.2,11.9,28.9,10.4,44.4-1.5,12.3-6.8,23.8-15.1,33-13.3,14.7-32.5,22.4-51.6,26-13.4,2.9-26.5,8.4-36.9,17.5-6,5.3-10.9,11.8-14.4,19.1-3.4,7.9-2.9,16.8-4,25.2-7.6-12.6-14.1-26.7-13.5-41.7,1.3-25.5,19-48.7,42.4-58.2,15.4-6.2,31.8-9.6,47-16.6,10.6-4.8,20.6-11.7,27.7-21.2,5.6-8,6.9-18,8.1-27.5"/>
</svg>