<?xml version="1.0" encoding="UTF-8"?>
<svg id="Layer_1" xmlns="http://www.w3.org/2000/svg" version="1.1" viewBox="0 0 512 512">
  <!-- Generator: Adobe Illustrator 29.2.1, SVG Export Plug-In . SVG Version: 2.1.0 Build 116)  -->
  <defs>
    <style>
      .st0 {
        fill: #73cbcc;
      }

      .st1 {
        fill: #01509a;
      }
    </style>
  </defs>
  <path class="st0" d="M240.2,27.2c5.4-3.9,11.9-6.9,18.7-6.1,14.9,1,29.1,15.3,25.8,30.7-6.3,34-12.8,68.1-17.5,102.4-6.4-.2-12.8-.4-19.2-.6-5.6-32.9-10.8-65.8-17.3-98.5-1.9-10,1.1-21.5,9.4-27.9M177.3,69.5c-9-14.3,1.4-35.7,17.9-38.4,12.3-2.7,28.1,3.2,31.3,16.4,6.3,35.1,12.2,70.3,18.5,105.4-6.8,1.2-13.6,2.4-20.4,3.6-15.6-29.1-31.5-58.1-47.2-87.1M288,50.4c1.8-9.4,9.5-17.7,19.1-19.3,6.6-.7,13.8-1,19.7,2.5,11.2,6.1,18.3,21,12.4,33-17.3,31.8-34.4,63.7-52.4,95.1-6-2.3-11.9-4.7-17.7-7.3,7.5-34.5,12.1-69.5,18.9-104.1M132.3,64.9c10.5-9.9,30.9-11.2,39.2,2.1,8.8,12.5,15.4,26.3,22.4,39.8,9,17.3,19.2,34,28.3,51.3-6.2,3.7-12.4,7.3-18.7,10.7-16.8-16.7-35.6-31.3-52.3-48.1-8.1-8-18.4-14.3-24.1-24.5-5.6-10-3.3-23.6,5.3-31.2M347.5,62.7c10.7-8.1,27.5-6.5,36.4,3.6,3.9,4.8,6.9,10.8,7,17.1.3,8.1-3.4,16.1-9.5,21.5-25.9,23.6-52.1,46.7-77.5,70.8-4.9-3.8-9.8-7.7-14.7-11.5,17.1-29.6,32.5-60,49.6-89.6,2.5-4.3,4.7-8.9,8.8-12M102.3,100.8c6.5-2.2,14-3.6,20.3,0,8.1,4.3,14.4,11.3,21.2,17.4,18.7,18.3,38.5,35.5,58.2,52.7-5.2,5.3-10.2,10.8-15.1,16.3-20.6-8.9-41.5-17-61.7-26.8-8.6-4.2-18.3-5.9-26.5-10.9-9.7-5.7-14.8-18-12.3-28.8,1.8-8.6,7.6-16.6,16-19.8M386.8,104.5c12.8-11.5,34-3.4,40.5,11.2,4.9,9.9,1.9,22.9-6.3,30.2-8.8,7.5-20.7,9.4-30.8,14.4-24.2,11.8-50,20.3-73.9,32.8-3.1-4.6-7.7-8.6-8.9-14.3-.6-3.8,3.3-5.8,5.7-8.1,24.9-21.8,48.9-44.5,73.8-66.2M63.9,185.8c-4.5-14,4.5-31.2,19.3-34.1,12-2.5,23,4,33.6,8.5,22.9,10.5,46.4,19.5,69.2,30.1-3.2,6.9-5.4,14.3-8.4,21.3-29.8-1.5-59.5-5-89.2-6.9-10.9-.6-22-7.9-24.5-19M407.8,155.9c7.8-3.8,17-5.3,25.6-3.1,12.2,3.1,20.5,16.4,18.5,28.7-1.5,12.1-11.7,23.1-24.2,23.6-34.7,2.6-69.4,6.3-104.2,7.7-1.9-5.6-3.7-11.1-5.6-16.7,29.2-15.2,60.3-26.1,90-40.3M236.1,175.7c16.3-3.6,35-1.5,48,9.7,5,4.7,9.8,9.9,13.2,16,9.3,16.7,8.5,38.9-2.9,54.4-4.6,5.9-9.8,11.7-16.4,15.5-15.9,9.4-36.7,9.6-52.9.9-9.2-4.8-16.1-12.9-21.3-21.7-15.3-27.6,1.4-67.4,32.3-74.8"/>
  <path class="st1" d="M19.8,227.6c28.4-15.4,62.2-12.2,92.7-6,31.1,8.4,60.9,22.3,86,42.7,27.6,23.4,50.5,51.8,69.7,82.3,21.6,34.5,38.3,72,51.6,110.5-37.8.8-75.7.2-113.5.4-17.8.6-33.4-14.2-36.9-31-11.4-42.9-20.5-87.1-40.8-127-7.1-15.3-19.6-27.5-33.2-37.2-22.9-16-49.7-24.9-75.6-34.7M348.2,241.9c32.1-17.7,69-27.7,105.8-25,13.2,1.2,27.1,3,38.2,10.9-20.7,8.2-41.9,15.4-61.3,26.3-13.5,7.5-26.2,17-36.1,29-6.2,7.2-10.1,16.1-14.2,24.5-15.8,34-24.6,70.6-33.6,106.8-2.1,16.3-9,33.4-23.9,41.8-16.7-45.4-38.1-89.2-64.6-129.7,23.5-34,53.2-64.7,89.8-84.6M194.4,460.5c2-.7,4.2-.6,6.4-.7,38.3,0,76.6,0,115,0,4.2,0,8.4-.3,12.6.3,4.9.9,8.4,5.8,8.1,10.7-.2,5.6,1.4,12.2-2.7,16.8-2.3,2.8-6.2,3.5-9.7,3.4-42,0-84,0-126,0-5.6.2-10.6-4.8-10.4-10.4-.2-7-1.6-17.1,6.7-20.1"/>
</svg>