<?xml version="1.0" encoding="UTF-8"?>
<svg id="Layer_1" xmlns="http://www.w3.org/2000/svg" version="1.1" viewBox="0 0 512 512">
  <!-- Generator: Adobe Illustrator 29.2.1, SVG Export Plug-In . SVG Version: 2.1.0 Build 116)  -->
  <defs>
    <style>
      .st0 {
        fill: #ffcc29;
      }

      .st1 {
        fill: #c6393b;
      }
    </style>
  </defs>
  <path class="st1" d="M252.6,64.1c1.6-.6,3.3-.2,4.5,1.1,20,20.2,39.9,40.3,59.8,60.5,1.5,1.3,2.2,3.6,1,5.3-1.6,1.9-3.4,3.7-5.2,5.4-59.9,59.1-119.8,118.3-179.6,177.5-1.4,1.4-2.8,2.8-4.3,4.1-1.6,1.1-3.8.9-5.2-.6-20-20.3-40.1-40.5-60.1-60.8-1.7-1.5-1.8-4-.4-5.6.1-.1.2-.2.4-.4L248.2,68c1.4-1.3,2.7-3,4.4-3.9M383.6,193.9c1.6-.9,3.6-.5,4.8.9,20,20.3,40.1,40.5,60.1,60.8,1.7,1.5,1.8,4,.4,5.6-.1.1-.2.2-.4.4-62.5,61.8-125.1,123.5-187.6,185.2-1.4,1.7-3.9,1.9-5.6.5-.1-.1-.3-.3-.4-.4-20-20.1-39.9-40.3-59.8-60.5-1.5-1.3-2.2-3.6-1-5.3,1.6-1.8,3.2-3.5,5-5.1l183.3-181.1c.4-.4.8-.7,1.3-1"/>
  <path class="st0" d="M125.7,125.3h58.9c-19.6,19.4-39.2,38.7-58.8,58.1,0-19.4,0-38.7,0-58.1M320.4,125.3h69.7v67.2c-1.5-1.4-2-3-4.2-3.5-2.7-.7-6.7,3.2-8.6,5.2-5.5,5.5-11.1,10.9-16.6,16.4-.6.8-1.6.7-2.5.7h-115.9c24.1-23.8,48.2-47.7,72.3-71.4,2.1-2.2,7-6.2,7.4-9.4.5-2.7.2-3.3-1.5-5.2M132.9,319.4c4.9-4.8,9.7-9.8,14.8-14.4,39.2-.1,78.4,0,117.6,0-25.3,25.1-50.7,50.2-76.1,75.2-3,2.9-2.6,7.9,0,10.9h-63.5c0-21.8,0-43.5,0-65.3-.2-1,.8-1.1,1.5-1.4,2.4-1,3.9-3.2,5.8-4.9M322.9,391.1c22.4-22.1,44.8-44.2,67.2-66.3,0,22.1,0,44.2,0,66.3h-67.2Z"/>
</svg>