<?xml version="1.0" encoding="UTF-8"?>
<svg id="Layer_1" xmlns="http://www.w3.org/2000/svg" version="1.1" viewBox="0 0 512 512">
  <!-- Generator: Adobe Illustrator 29.2.1, SVG Export Plug-In . SVG Version: 2.1.0 Build 116)  -->
  <defs>
    <style>
      .st0 {
        fill: #7d4e32;
      }

      .st1 {
        fill: #d7b45a;
      }
    </style>
  </defs>
  <path class="st1" d="M227.2,183.7c-4.1,1.5-6.8,1-9.4,1-27.1.7-54.2,2.8-81.1,6.2-24.5,3.2-48.5,7.9-71.7,16.6-9.6,3.6-18.8,8.1-26.3,15.4-10.9,10.5-10.4,22.1,1.4,31.8,10.3,8.5,22.4,13.6,34.9,17.6,28.2,9.1,57.4,12.6,86.7,15.5,25.4,2.6,50.9,3.5,76.4,2.8,32.9-.7,65.6-4.5,97.7-11.5,28.8-6.4,57-14.7,83.8-27,4.9-2.1,9.8-4.5,14.5-7.1,2.6-1.6,5.8-1.9,8.7-.8,21.8,6.8,43.5,13.7,65.3,20.4,1.5.5,3.8.3,3.9,2.2.1,1.9-2.2,2-3.6,2.8-45.3,24.9-93.8,40.5-144.4,49.9-34.4,6.3-69.4,9.8-104.4,10.4-35.8.8-71.6,0-106.8-6.3-42-7.5-82.8-19.4-120.2-40.9-10-5.8-19.4-12.4-26.5-21.7-8.9-11.7-8.2-22.8,2-33.4,9.3-9.7,21.3-15,33.4-20.2,31.1-13.4,63.7-20.6,97.4-23.9,28.3-2.8,56.6-2.7,84.9-.8,1.1.2,2.3.4,3.4.7Z"/>
  <path class="st0" d="M116.8,260.8c6.9,0,13.8,0,20.8,0,40.4.4,80.5-1.9,119.9-11,26.4-6.1,51.9-14.6,74.3-30.4.3-.2.7-.3.9-.6,6.8-9,14.6-7.7,23.7-3.6,12.2,5.6,25,9.8,38.9,15.2-43.5,19.6-89.9,32.1-137.3,37.1-47.4,5.2-94.5,3.6-141.2-6.8Z"/>
  <path class="st0" d="M305,202.3c-51.6,25.4-103.6,38.5-159.9,26.5,5.8-.3,11.5-.6,17.2-1,32.6-2.5,63.1-11.4,90.7-29.2,4.2-2.7,8.3-5.7,12.1-9,2-1.7,3.5-2.3,6.1-1.2,10.7,4.6,21.5,8.9,33.8,13.9Z"/>
</svg>