<?xml version="1.0" encoding="UTF-8"?>
<svg id="Layer_1" xmlns="http://www.w3.org/2000/svg" version="1.1" viewBox="0 0 512 512">
  <!-- Generator: Adobe Illustrator 29.2.1, SVG Export Plug-In . SVG Version: 2.1.0 Build 116)  -->
  <defs>
    <style>
      .st0 {
        fill: #5613a2;
      }

      .st1 {
        fill: #ff0087;
      }
    </style>
  </defs>
  <path class="st0" d="M177.3,90.5c20.9-14.5,45.6-23.8,71.1-25.4,19.9-1,40.3-.3,59.5,5.7,39.6,10.7,75.6,34.6,100,67.6-8.3-4.8-16-10.8-24.7-15-21.2-10.6-44.3-17.7-68-19.3-13.3-2.2-26.6.2-39.8,1.7-18,3.5-35.7,9.5-51.4,19.2-18.1,11.8-34.3,27.1-45.4,45.7-20.3,33.3-25.5,74.8-16.5,112.5,2.4,10.5,6.2,20.6,9.9,30.7-13.6-15.8-24.5-33.6-32.4-52.9-11-27-15-56.4-11.5-85.3,3-21.9,11.2-43.3,24.6-61,7.4-8.8,15.2-17.5,24.6-24.3M118.8,120.5c5.5-5,10.3-10.7,16.8-14.5-3.1,5.4-7,10.4-9.9,15.9-6.7,13.8-13.4,27.8-16.8,42.9-3.1,11.4-5,23.2-5.5,35,.1,11.8-.5,23.8,2.1,35.4,5.5,32.9,22.2,64.1,47.6,85.8,23,19,51.6,31.5,81.6,33.4,7,.6,14.1,1.3,21.2.1,15.1-1,29.9-4,44.1-9.1,5.1-1.7,9.9-4.2,15.1-5.6-13.2,13-29.4,22.3-45.8,30.5-27.2,13.1-57.5,18.5-87.6,15.5-17.3-1.3-34-6.2-49.3-14.4-12.7-7.6-25-16.3-34.7-27.7-9.2-11.8-17.9-24.3-22.7-38.6-13.8-37.1-12.2-78.9.9-116,9.1-25.7,23.8-49.1,43-68.5M246,140.2c32.7-14.4,70.1-20,105-10.5,21.9,6.3,43,17,58.5,34,15.6,15.4,25.9,35.6,31.9,56.5,15.3,58.6-3.8,123.3-44.6,167.4-6.8,6.8-13.5,14.1-21.6,19.2,26.8-38.6,39.4-88,30.1-134.5-6.1-31.5-22.6-61-47.1-81.8-25.8-23-60.8-33.6-94.9-34.1-18.7,1.4-37.6,4.3-55.2,11.1-3.4,1.3-6.7,2.8-10.2,3.7,14-13.2,30.3-23.7,48.1-31.1M339.3,196.7c8.1,7.6,14.4,17,20.2,26.5,12.6,21.1,21.8,44.5,25.1,69,3.5,28.9,1.1,59.5-12.2,85.9-8.7,16.7-20.8,31.9-36.4,42.6-14.9,11.8-33,18.8-51.3,23.2-17.4,2.5-35.1,4.9-52.6,2-31-2.4-60.5-15-86.2-32.2-10.9-6.9-20.2-16-29.2-25.1-3.6-3.9-7.6-7.5-10.2-12.2,13,7.5,25.9,15.4,40.1,20.4,24.1,9.7,50.1,13.7,75.9,11.6,27-2,53.1-12.1,75.1-27.6,17.8-13.6,32.9-31.1,42.5-51.4,10-20.8,14.5-44.1,14.4-67.2-.7-18.2-4.3-36.2-10.5-53.3-1.4-4.1-3.3-8.1-4.5-12.2"/>
  <path class="st1" d="M244.8,185.3c32.4-5.2,68,12.9,80.3,43.8,7.4,17.8,7,38-1.3,55.5-3.9,9.9-11.5,17.4-19,24.6-27,23.3-71,23.7-98,.1-7-6.7-14-13.9-18-22.9-9-18.1-9.7-40.4-1-58.7,9.9-22.8,32.8-38.4,57-42.3h0Z"/>
</svg>