<?xml version="1.0" encoding="UTF-8"?>
<svg id="Layer_1" xmlns="http://www.w3.org/2000/svg" version="1.1" viewBox="0 0 512 512">
  <!-- Generator: Adobe Illustrator 29.2.1, SVG Export Plug-In . SVG Version: 2.1.0 Build 116)  -->
  <defs>
    <style>
      .st0 {
        fill: #960e15;
      }

      .st0, .st1 {
        fill-rule: evenodd;
      }
    </style>
  </defs>
  <path class="st1" d="M240.2,216.8c-3.6-24.2-7.8-32-22.2-52.4,19.4-28.7,30.3-68.5,38-101.9,7.9,33.9,18.5,72.8,38.1,101.8-14.4,20.4-18.6,28.2-22.2,52.5-9.7-9.2-22-9.2-31.8,0h0Z"/>
  <path class="st0" d="M232.8,457.2v-116.5c-56.9-23.3-64.7-59.4-64.7-111.8,22.9,9.3,31.3,19.5,41.8,36.5,2.8-15.4,6.7-27,15.2-39.6,27.4,28.1,26.3,110.1,26.3,122.7v129.6H56.8V187.1c0-28.1,6-73.1,40.8-79.5l9.2,12.4c-33.4,11.9-31.8,55.9-31.8,85.4v251.7h157.9Z"/>
  <path class="st1" d="M184.8,225.9c-17.5-23.6-30-7.5-29.5,23.9-11.4-91.9-32.9-138.6-81.6-178.2,63.7,11.8,114.2,56.1,150.1,142.7-14.7-6.9-35.3-7.8-38.9,11.5h0Z"/>
  <path class="st1" d="M164,105c.7-16.8,8.3-40.5,1.5-52.2-6.4-11.1-19.7-5.7-25.5-.4-16.2-4.2-27.7,11.2-18.7,22.6,10.3,13.1,26,13.4,42.7,30.1h0Z"/>
  <path class="st0" d="M228.5,114.5l-20.6,43.3c-11.6-18.7-20.5-30.3-35.4-45,6-17.1,10.8-37.4,11.2-54.8,12.5,20.7,27.5,39.6,44.8,56.5Z"/>
  <path class="st1" d="M230.2,100.9c-7-14-25.7-28.9-33.3-43.5-4.3-8.2-1.2-21.9,20-18.4,4.7-7.9,20.9-6.1,24.4,3.5,6.8,18.6-4.7,43.2-11.1,58.4h0Z"/>
  <path class="st0" d="M279.2,457.2v-116.5c56.9-23.3,64.7-59.4,64.7-111.8-22.9,9.3-31.3,19.5-41.8,36.5-2.8-15.4-6.7-27-15.1-39.6-27.4,28.1-26.3,110.1-26.3,122.7v129.6h194.7V187.1c0-28.1-6-73.1-40.8-79.5l-9.2,12.4c33.4,11.9,31.8,55.9,31.8,85.4v251.7h-157.9Z"/>
  <path class="st1" d="M327.2,225.9c17.5-23.6,30-7.5,29.5,23.9,11.4-91.9,32.9-138.6,81.6-178.2-63.7,11.8-114.2,56.1-150.1,142.7,14.7-6.9,35.4-7.8,38.9,11.5h0Z"/>
  <path class="st1" d="M348,105c-.7-16.8-8.3-40.5-1.5-52.2,6.4-11.1,19.7-5.7,25.5-.4,16.2-4.2,27.7,11.2,18.7,22.6-10.3,13.1-26,13.4-42.7,30.1h0Z"/>
  <path class="st0" d="M283.5,114.5l20.6,43.3c11.6-18.7,20.5-30.3,35.4-45-6-17.1-10.8-37.4-11.2-54.8-12.5,20.7-27.5,39.6-44.8,56.5h0Z"/>
  <path class="st1" d="M281.8,100.9c7-14,25.7-28.9,33.3-43.5,4.3-8.2,1.2-21.9-20-18.4-4.7-7.9-20.9-6.1-24.4,3.5-6.8,18.6,4.7,43.2,11.1,58.4h0Z"/>
</svg>