<svg xmlns="http://www.w3.org/2000/svg" viewBox="0 0 512 512"><path d="M360.56,245.63c-4.4-6.34,1.78-17.2,9.85-15.72-1.4,2.75-5.34,1.83-7.18,4.11-1.45,1.78-1.1,4.55.1,6.37,1.46,1.39,3.57,1.74,5.39,2.51-2.14,2.06-5,4.83-8.16,2.73m5.23-10.14c.45-1.15,1.85-1.39,2.75-2.07,0,1.83,0,3.67.11,5.49,2.71,0,3.62-2.56,4.57-4.63a26,26,0,0,1,8.48.47c-3.83,2-7.52,4.26-11.53,5.82-2.34-.18-5.62-2.41-4.38-5.08Z" style="fill:#fff"/><path d="M74.93.19C125.88-.19,176.85.14,227.81,0c27.55.12,55.11-.23,82.66.17-.46,2.76-1,5.48-1.56,8.22q-116.27.21-232.52,0C75.82,5.68,75.32,3,74.93.19m2.25,12.64c5.47-.33,11-.21,16.45-.2H292.84c5.11,0,10.23-.07,15.34.16C304.26,37,300.56,61.13,296.77,85.3c-8.58-.32-14.8-8.52-15.63-16.54,2.23-3.37,5.5-6.16,6.59-10.2S289,50.31,290,46.25c1.07-4.72,3.7-8.89,5-13.56a13.89,13.89,0,0,0-4.51,2.51,83.63,83.63,0,0,0-12.17,12.71c-5.28-5.73-10.62-11.53-17-16.1-.34,4,2.66,7.24,3.72,11,2.31,5.6,1.55,11.95,4,17.49,1.37,3.14,3.92,5.52,5.59,8.47a18.53,18.53,0,0,1-12,16.11c-6.53,1.59-14.24.94-19.11-4.15-3.61-3.17-3.61-8.83-7.74-11.52-1.44,7.16,3.43,13.72,9.16,17.39,9.92,6.24,24.78,2.88,30.26-7.73,2.84-3.66,1.8-8.32,2-12.59a12.15,12.15,0,0,1,2.45,2.46c-.31,3.09-1.29,6.47.6,9.3,3,6.23,9.16,10,15.61,11.72q-.42,3-.85,6.06c-53,.3-106.1,0-159.14.14-15.2-.15-30.39.29-45.58-.23-.32-2.09-.63-4.16-.92-6.25C94.7,87.08,100,84,102.7,78.68c2.21-3.15,1.65-7.09.77-10.59.9-.54,1.8-1.08,2.71-1.6-.13,3.68-.82,7.68,1.25,11a20.86,20.86,0,0,0,19.22,12.1c10.75.73,22-8.92,21-20l-2.65,1c-1.79,6.3-5.78,12.53-12.39,14.44-5.3,1-11.42,1.22-16-2.16-5-3.38-7.77-9.33-8.31-15.25a16.62,16.62,0,0,0,6-7.18c2.38-5.32,1.77-11.37,3.76-16.8,1.25-3.91,3.46-7.44,4.51-11.42a13.75,13.75,0,0,0-4.23,2.41A168.8,168.8,0,0,0,105.06,48c-4.66-5.78-9.71-11.64-16.29-15.29.86,4.72,3.41,8.88,4.6,13.49,1.16,4.32,1.27,8.85,2.53,13.13,1.17,3.72,4.3,6.26,6.34,9.46-.74,7.5-6.13,14.46-13.49,16.56-3.89-24.15-8-48.28-11.57-72.48M103.87,21c-.93,4.24-.13,8.58-.27,12.86-1.44-2.85-1.74-6.4-3.92-8.78-.87-.07-2.63-.18-3.51-.23C96,29.79,99.75,33.47,102.68,37c1.09-.55,2.2-1.09,3.3-1.62.73-4,2.11-7.88,1.88-11.95,0-2.14-2.53-1.84-4-2.41M146,23.31c.1,4.21,1.2,8.36,1.08,12.6l2.55.09c-.12-4.26.76-8.44.89-12.66.05-2.7-4.37-2.66-4.52,0m43.57-2c-1.34,4.68.07,9.46,1,14.07,1.15.47,2.29,1,3.44,1.45,3.09-3.27,6.64-7,6.52-11.8l-3.85-.15c-1.32,3.29-2.49,6.65-3.79,10,.08-4.4.53-8.78.44-13.19-1.27-.08-2.54-.2-3.8-.33m43.53-.18c-1.59,4.85.77,9.77.69,14.68,1.7-.06,3.93,1.29,5.21-.37a23.77,23.77,0,0,0,5.54-10l-3.7-.94c-2.09,3.2-3,7-4.48,10.41-.26-3.88.57-7.69.78-11.54-.22-2.1-2.52-1.8-4-2.28m42.58.57c-.29,4.66.88,9.19,1.73,13.73l3.31,1.81c3-3.43,5.89-7.11,7-11.61l-3.37-1.33c-2.31,2.85-3,6.53-4.59,9.76-.36-4.3.74-8.62-.19-12.88l-3.89.52M107.51,36.52c4.1-2.25,6.62-6.79,7.25-11.34-1-.11-2.85-.36-3.81-.49-1.81,3.72-3.41,7.62-3.44,11.83M138.74,25.4c1.38,4.42,3.48,9.28,7.84,11.48-.6-4.32-1.61-8.67-4.12-12.33l-3.72.85m14.55.68c-1.8,3.34-2.57,7.11-3.25,10.81,4.29-2.41,6.93-7.11,7.87-11.82-1.49.16-3.9-.93-4.62,1m28.7-.86c.8,4.45,3.16,9,7.17,11.27.21-4.23-1.55-8.11-3.41-11.8l-3.76.53m43.39-.2c1,4.35,3,10.11,7.77,11.28A37.34,37.34,0,0,0,230,26.15c-.71-1.88-3.17-.87-4.65-1.13m43.18.15c.82,4.5,3.25,9,7.33,11.35,0-4.21-1.49-8.17-3.43-11.84-1,.13-2.93.38-3.9.49M91.83,27c-.7,1.17-1.4,2.35-2.12,3.53a39.88,39.88,0,0,0,11.42,9.25c-2-4.89-4.8-9.77-9.3-12.78m25,.74c-2.65,3.79-5.76,7.44-6.94,12,3.73-2.49,7.54-5.1,10.38-8.61.07-1.17.09-2.34.07-3.51l-3.51.1m16.29-.14a11.71,11.71,0,0,0,1.31,5.48l-3.16,0c1.74,4.44,4,8.68,5.2,13.33.88,4.1,1,8.33,2.28,12.34,1,3.82,3.86,6.7,6.36,9.62a14.29,14.29,0,0,1,6.14-.06c2.12-2,4.32-4.06,5.6-6.75,2.32-4.68,2.19-10,3.38-15,1.11-4.79,3.67-9.05,5-13.75-7.09,3.06-11.6,9.85-16.93,15.18-4.17-5.19-9.66-9.16-13.59-14.54a74.93,74.93,0,0,1,8,6c0-.61.05-1.82.06-2.42a41.27,41.27,0,0,0-6.38-9.06c-1.12-.15-2.24-.25-3.36-.31m26.9.11c-2.76,3.48-5.48,7.06-7.1,11.24a24.42,24.42,0,0,0,10-7.35c1.19-1.13.07-2.73-.1-4l-2.76.14m16.49-.14c-.12.71-.38,2.12-.51,2.82l2.23,3.16-4.25-.9c2.11,5.18,4.8,10.18,5.94,15.7.77,3.75.49,7.73,2.13,11.26,1.45,3.68,4.48,6.45,5.89,10.13a19,19,0,0,1-12,15.15c-5.78,1.3-12.56,1.21-17.3-2.84-4.47-3.25-5.7-8.87-8.37-13.42-.85,1.91-1.77,4-1,6.1A21.8,21.8,0,0,0,164,89c6.15,1.28,13,.73,18.17-3.12,4.58-2.71,6.57-7.84,9.32-12.13,2.41,4.63,4.81,9.68,9.5,12.42,5.05,3.56,11.53,4,17.46,3a21.63,21.63,0,0,0,15.13-13.61c.75-2.86.18-5.83.12-8.73,1.62.58,3.68,2.47,5.05.42C244.1,63,245.36,56,246.11,49.63c.59-6,3.66-11.25,5.77-16.76l-3.32.38c.54-1.23,1.11-2.46,1.67-3.68-.28-.47-.84-1.41-1.13-1.87l-2.4-.16c-2.88,3.4-5.64,7-7,11.32,3.08-1.45,5.7-3.63,8.54-5.46-.76,2.12-2.56,3.54-4.16,5A97.09,97.09,0,0,0,235,47.88c-3.7-4.31-8.12-7.94-11.54-12.49,2.37,1.4,4.63,3,7,4.37-1.31-4.6-4.53-8.2-7.2-12l-3.62-.1a16,16,0,0,0,1.69,6.13c-1.34-.66-2.68-1.31-4-1.94,1.46,4.53,4,8.65,5.24,13.25,1.67,5.21,1.19,11,3.65,16,1.35,3,4.06,5.06,5.41,8-.83,7.79-6.89,15.58-15.05,16.37-4.53.42-9.5.32-13.38-2.37-4.83-2.81-7.42-8.19-8.68-13.44-.37-2.09,1.89-3.2,2.94-4.66,3.83-3.89,4.44-9.61,5.22-14.75.58-6.17,3.62-11.69,5.91-17.33l-3.35.37c.63-1.3,1.26-2.59,1.88-3.88-1.11-.59-2.16-2.13-3.57-1.55-3.72,3.1-6.14,7.44-7.84,11.9,3-1.93,5.89-4.11,8.77-6.27l.08,1.64a57.1,57.1,0,0,0-12.95,12.87c-4.14-5-9.15-9.09-13.28-14,3.05,1.79,5.76,4,8.72,6-1.28-4.63-4.57-8.21-7.19-12.09l-3.28-.2m86.51,0a35.21,35.21,0,0,0,0,3.56,46.94,46.94,0,0,0,10.5,8.68c-1.08-4.69-4.6-8.14-7.06-12.09-1.17,0-2.33-.09-3.47-.15M282.29,39.7a47,47,0,0,0,11.28-9.16c-.71-1.18-1.41-2.37-2.1-3.55-4.5,3-7.09,7.9-9.18,12.71m-181.21-.07a14.58,14.58,0,0,0,4.66,5.58A22,22,0,0,0,109,40.8a6.53,6.53,0,0,0-2.11-3.4c-2.27-.62-4,1.18-5.83,2.23M146.14,37c-.34,1.53-1.5,3-1.12,4.63a36.14,36.14,0,0,0,3.32,3.88c1.22-1.82,3.58-3.38,3.55-5.74-.88-2.52-3.54-2.53-5.75-2.77m41,3.65,3.77,4.4c1.61-1.34,3.14-2.78,4.61-4.26-1.38-1.41-2.3-4.29-4.76-3.46-1.78.12-2.44,2.24-3.62,3.32m45.31-2.52c-2.67,2.31.34,5.13,1.79,7.1q2.4-2.15,4.64-4.43c-1.19-2.32-4-5.15-6.43-2.67m42.83.49c-2.2,2.45.92,4.66,2.32,6.5,1.56-1.44,3.08-2.95,4.57-4.48-1.42-2.24-4.75-5.24-6.89-2m-183.49,62c2-.15,3.95-.29,5.94-.32q86.21,0,172.4,0c7.85.17,15.74-.4,23.56.39.1.74.27,2.2.35,2.94q-101.28.12-202.58,0c.08-.76.25-2.26.33-3m.12,5.61q100.83,0,201.63,0c-8.11,50.28-15.81,100.62-23.76,150.91-3.92,18.88-5.59,39.05.77,57.6,3.85,11.95,12.87,22.41,24.69,27,9.09,3.47,17.67,8.74,23.86,16.35,3.35,4.21,6,9.44,5.47,15-.1,5.19-4.25,9.67-9.08,11.07-5,.89-10.34,1-15-1.13-11.77-4.31-25.62-6.66-37.16-.39-7.47,3.62-12.61,11.85-11.35,20.24,1.94,12.95,13.56,23.55,26.39,25.17,56.31.05,112.63-.06,168.93.05,0,3.35,0,6.69,0,10-18.78.57-37.59.08-56.39.24-109.18-.06-218.36.14-327.55-.09-.13-3.41-.11-6.82.1-10.22q70.85,0,141.66,0c5.4-.07,10.85.39,16.19-.65a11,11,0,0,0-3.13-1.3c-23.93-3-46-16.29-61-34.95-16.81-20.54-25.84-46.25-30.88-72-11.66-71-22.66-142-34.34-212.91m88.53,58.3c-.06,9.22-.42,18.45-.19,27.67a115.33,115.33,0,0,1,13.24-1.91c2.85-7.6,5.33-15.33,8.23-22.91,1-2.27,1.47-5.22-.56-7.09-3.4-3.06-8.38-2.49-12.63-2.46-3.8-.08-8.46,2.3-8.09,6.7m-23.63,4.36c-1.83,2.27-1.14,5.33.14,7.68,3.42,6.84,6.68,13.78,10.06,20.64,3.9-1.36,7.52-3.33,11.25-5-.39-9.09,0-18.2-.65-27.26-.58-4-5.44-3.13-8.34-2.76-4.58,1.13-9.4,3-12.46,6.74m51.52-6.38c-2.56,1.17-3.24,4.05-4.17,6.43-2.43,7.15-5.51,14.07-7.69,21.32,3.9.91,7.81,1.86,11.76,2.6,4.67-4.82,8.28-10.51,12.65-15.59,2.1-2.52,4.72-5.55,3.32-9.07-2.71-5.54-10.26-8.28-15.87-5.69m16.85,13.9c-5,5.41-9.27,11.54-14,17.24a88.48,88.48,0,0,1,7.31,7.93c5.84-3,11.67-6.07,17.41-9.29,3.19-1.78,6.25-5.14,5.74-9a17,17,0,0,0-7.4-9.65c-3.27-1.28-6.88.26-9.08,2.81m-82,2.64c-3.76,3.25-4.82,8.3-5.05,13,6.07,5.76,12.8,10.79,18.79,16.64,2.71-3,5.29-6.17,8-9.2-2.75-8.22-7.31-15.65-10.84-23.53-3.77.2-7.79.73-10.89,3.06M126,207.45c2.67,2.77,6.51,4,9.87,5.69,5.49,2.33,10.49,5.82,16.32,7.29,1.32-3.08,2.53-6.21,3.67-9.36-4.67-4.41-9.75-8.33-14.5-12.64-2.29-1.78-4.44-4.24-7.47-4.59-6.82-1-11,8.32-7.89,13.61m51.2-9.91c-4,1.88-3.52,7.07-2.05,10.47a30,30,0,0,0,11.58,13.89c3.19-.36,6-2.06,9-3.11-.31-5.43-2.84-10.49-2.66-16a55.62,55.62,0,0,0-.46-7.95c-5.22.16-10.61.58-15.44,2.67m19.32-1.32c-.52,7.46-1.46,16.09,3.5,22.35,3.45.63,7,.19,10.45.1a34.57,34.57,0,0,1,4.43-14.88c-3.94-6-11.52-8.21-18.38-7.57m-38.44,18.37c-1.25,3.69,2.36,6.72,5,8.7,5.13,3.34,10.87,6.84,17.19,6.76a52.83,52.83,0,0,0,4.55-5.76c-3.19-3.37-6.86-6.33-9.44-10.22-2.35-3.53-4.27-7.32-6.41-11-5.51,1.4-8.83,6.54-10.88,11.49m-34-1c-3.12,1.92-3.89,5.79-4.28,9.16-.29,2.29-.09,5.17,2.12,6.49,6.18,2.45,13,2.2,19.39,3.66,3.18.72,6.42,1.18,9.64,1.68.08-3.61.3-7.22.41-10.82-6.38-3.11-12.93-5.88-19.45-8.68-2.48-.92-5.13-2.31-7.83-1.49m32.29,7.65c-2,5.58-1.68,11.66-.41,17.34.71,2.66,1.82,5.54,4.32,7,6.72.75,13.36-1.08,20-1.33-.15-3.85-.19-7.71-.1-11.56-8.74-1.79-17.67-4.63-23.86-11.44m33.08,5.13c-4.63,3.56-6.14,10-4.81,15.56.79,3.76,3.42,6.74,6,9.47,4.69,5,8.94,10.36,13.63,15.32,17.42,18.17,34.58,37.56,44.21,61.15,6.88,17.62,8.61,36.84,8.33,55.61,3.44-2.33,6.9-4.83,11-5.78,5.65-1.79,11.69-1.33,17.49-.59-3.87-8.82-5.46-18.38-8.14-27.58-5.9-19.13-12.73-38.14-22.67-55.58-11.92-18.82-27-35.53-37.84-55-3-5.21-4.62-11-6-16.84-7.27-.8-15.16-.16-21.25,4.3m-64.33,9.93c-3.08,3-2.91,7.77-2.24,11.67,1,3.31,5.08,3.12,7.88,3.15,8.66-.36,17.32-.31,26-.32-2.05-4.42-4.45-8.72-5.76-13.46a164.44,164.44,0,0,0-18.15-1.92c-2.57-.08-5.38-.46-7.72.88m38.78,12.08c-3.75,4.59,1.95,12.1,7.41,10.68,5.8-.58,11.36-2.51,17.13-3.34-2.49-3.09-4.78-6.34-7.51-9.2-5.75-.58-11.31,1.68-17,1.86M141,254.21c-4.13.37-8.5.21-12.27,2.2-1.84.56-1.65,2.64-1.37,4.13a13.44,13.44,0,0,0,5.88,7.77c10.43-.78,20.6-3.67,30.62-6.64a94.63,94.63,0,0,1-6.57-9.35c-5.5-.12-10.83,1.52-16.29,1.89m32.5,7c-1.61.52-3.86,1.43-3.48,3.53.17,4.63,5,9.22,9.77,7.63,6.21-1.64,12.52-2.94,18.48-5.37a83.27,83.27,0,0,0-7.57-9c-5.81.66-11.47,2.08-17.2,3.21m-28.68,8.5c-2.68.9-6.15.92-7.81,3.58-.58,3.4,1.55,6.89,4.43,8.59,2.48,1.86,5.48,0,8.09-.55,7.42-2.44,15-4.39,22.47-6.65a18.67,18.67,0,0,1-6.8-9.78c-6.92,1-13.53,3.41-20.38,4.81m41,3.6c-2.07.7-5.27,1.41-5.18,4.18-.57,3.39,2.27,6.42,5.23,7.57,3,.09,5.78-1.35,8.66-2,5-1.53,10.17-2.23,14.89-4.49-2.86-2.82-5-6.63-8.59-8.55-5.14.27-10.05,2-15,3.29M156,282.5c-2.83.87-6.22.95-8.22,3.45-1.67,4.47,2.65,10.17,7.43,8.76,8.9-2.45,17.81-4.95,26.58-7.89-3.72-2-5.38-5.82-6-9.78-6.69,1.49-13.19,3.62-19.78,5.46m36.42,3.66c-3.24,2.39-1.8,7.74,1.22,9.67,2.92,1.16,6.14.28,9.06-.44q8.12-2.53,16.29-4.9a44.74,44.74,0,0,0-8-9.35c-6.17,1.79-12.41,3.28-18.57,5m-31.55,9.66c-4.22.66-3.95,6.11-1.82,8.74,1.94,2.89,5.89,2.16,8.74,1.39,7.76-2.24,15.49-4.58,23.25-6.83a28.58,28.58,0,0,1-5.86-9.81c-8.28,1.39-16.22,4.3-24.31,6.51m40,3c-1.81,3.16-.67,8.2,3,9.53,2.55,1,5.27-.17,7.77-.83,5.56-1.89,11.35-3.09,16.77-5.4a92.81,92.81,0,0,0-7.85-9.17A124.39,124.39,0,0,0,201,298.81m-33.48,9.91c-.06,2.66-1,5.87,1,8.06,2,2.69,5.72,1.87,8.51,1.3,7.93-2.2,15.74-4.86,23.73-6.86-3.05-2.77-5.05-6.37-6.87-10-8.9,2.16-17.63,4.94-26.41,7.5m41.94,1.83c-1,3.38-.91,7.46,2.29,9.66,3.19,1.18,6.64.29,9.7-.89,4.95-1.89,10.27-2.68,15-5a78.08,78.08,0,0,0-6.1-10c-7,2-13.89,4.39-20.94,6.25m-32.86,10.36c-1.78,3.44-.62,8.12,3,9.8,3.47.81,6.84-.92,10.14-1.78,6.28-2.1,12.83-3.36,18.95-5.92a13.71,13.71,0,0,1-4.07-10.66c-9.28,3.07-18.89,5.14-28,8.56M218,323c-4,2.09-1.94,7.53.94,9.65,3.16,1.47,6.69.32,9.78-.78,4.25-1.54,8.67-2.55,13-3.95l.92-1.37c-.88-3.57-2.94-6.68-4.64-9.9-6.59,2.32-13.42,3.89-20,6.35m-30.09,9c-1.67.66-3.87.9-4.69,2.75-1.38,2.85.48,6.19,2.82,7.94,2.19,1.35,4.88.54,7.19,0,7.67-2.34,15.39-4.54,23.11-6.73-2.77-3.11-4.86-6.84-4.6-11.14-7.82,2.8-15.87,4.86-23.83,7.21m39,2.93c-2.09.56-5.08,1.41-4.85,4.15-.77,4.53,4.23,9.21,8.63,7.19,5.56-1.82,11.12-3.6,16.71-5.38a39.18,39.18,0,0,0-3.2-10.94c-5.9,1.2-11.49,3.45-17.29,5M192,345.49c-4.57,1.14-3.48,8.13-.07,10.06,2.81,1.32,6,.36,8.8-.32,7.46-2.31,15-4.44,22.45-6.64-1.58-1.38-3.38-2.6-4.53-4.39-.83-1.86-.86-4-1.22-5.94-8.57,2.08-16.9,5-25.43,7.23m35.48,4.57c-2.91,3.82.43,11,5.53,9.95,6-.73,11.6-3.59,17.54-4.88-.54-3.91-1.42-7.76-2.22-11.62-6.88,2.4-14.05,3.93-20.85,6.55m-29.36,8.65c-1.71.75-4.29.89-4.59,3.19-.84,3.46,1.42,8.38,5.44,8.27,3.55-.09,6.87-1.53,10.27-2.42,5.69-1.87,11.6-3.08,17.11-5.47A15,15,0,0,1,222,351.62c-7.9,2.57-15.89,4.82-23.88,7.09m35.71,3.93c-1.59.7-3.94,1.22-3.79,3.41-1.1,4.4,3.37,9.3,7.89,7.79,4.83-1.32,9.5-3.19,14.3-4.64-.39-3.89-1-7.76-1.65-11.59-5.5,1.95-11.17,3.35-16.75,5m-31.67,9.67c-2,.74-5.44,1.16-5.27,4-.62,3.31,1.73,6.4,4.57,7.82,2.45.35,4.79-.73,7.1-1.39,7.35-2.4,14.87-4.18,22.19-6.66a12.52,12.52,0,0,1-5.39-10.35c-7.85,1.75-15.37,4.73-23.2,6.6m32.11,5.16c-6.1,2-1.85,12.22,3.88,11.1,4.81-1.08,9.33-3.24,14.09-4.54.13-4,.16-8,.08-12-6,1.77-12.14,3.33-18.05,5.45M209.72,385c-3.93,1.13-8,1.88-11.57,4,.28,2.41-.33,5.26,1.5,7.2,1.52,1.51,3.67,3,5.91,2.14,9.09-2.6,18.15-5.29,27.21-8-1.5-1-3.24-1.86-4.38-3.32-1.13-2.06-1.21-4.49-1.71-6.73-5.76,1.22-11.3,3.22-17,4.75m24.85,7.23c-4.77,2.06-2,9.06,1.9,10.51,3.34.82,6.61-.8,9.7-1.84,1.35-.59,3.21-1.07,3.51-2.77.88-3.78,1.48-7.63,2.81-11.29-5.86,2.14-12.12,3.11-17.92,5.39m-32.78,9.76c-5.57,2.28-1.8,11,3.34,10.94a21.06,21.06,0,0,0,5.41-1.25c7.43-2.48,15.18-4,22.44-7-3.68-2-5.19-5.9-5.38-9.93-8.69,2.1-17.16,5-25.81,7.24m119.46-186.2c8.84-5.83,19.84-7.31,30.18-6.13a24.33,24.33,0,0,1,10.7,4.17c-3,1.69-5.05,4.49-6.91,7.34-3.89.73-4.37-5.08-7.87-5.77-4.63-.76-9.25.86-13.39,2.79-3.06,1.55-6.33,4.41-5.78,8.2a16.89,16.89,0,0,0,8.61,12.13c1.25.58,3.21,2.17,1.33,3.32-5,4.62-9.63,11.1-7.58,18.27.89,3.32,4.9,2.76,7.54,3.37-.13.83-.24,1.67-.35,2.52a67.54,67.54,0,0,0-6.51,3.82c1,4.28,4.67,6.75,8.19,8.91-2.31.24-4.62.44-6.93.64.27,2.33.22,5,2,6.75,2.08,2.77,5.65,3.4,8.86,3.91-1.67,1.31-4.52,2.06-4.45,4.62,2.14,4.89,8.34,3.39,12.62,3.8-1,1.59-2.07,3.19-3.05,4.82,3.9,1.12,8,1.33,12,1.9,2.79,23,4.23,46.09,6.89,69.07.51,6.87.82,13.79,2.33,20.54a69.17,69.17,0,0,0-19.58-4.55c-6.92-1.56-14-1.65-21.07-1.91,2.24-7.35,3.61-15.3,1.29-22.82a32.57,32.57,0,0,0-14.6-18.37c-11.55-7.25-26.25-9.51-35.71-20-6.28-6.34-8.16-15.56-8.31-24.18.55-20,8-39.23,19-55.73,8.22-12.14,18.16-23.43,30.52-31.47m43.08,1.68c2.71-1.55,6.18-.52,8.27,1.62,5.42,5.19,13.65,7.73,16.56,15.21-4.52-3.05-9.09-6-13.79-8.74a12.78,12.78,0,0,0-12.06-1.84c-5.39,3.18-7.8,9.41-12.44,13.4-3,1.65-6.92,1.41-10.09.3a16.71,16.71,0,0,1-8.48-12.56c2.57-3.4,6.64-6.21,11.1-5.58,4.44-.1,7,4.1,9.57,7,4.46-2,7.35-6.17,11.36-8.85M356,242c.12-6.95,5.34-15.57,13.21-14.69,2.45-.19,3.59,2.24,4.91,3.84,4.94.13,10.35,1.26,12.92,6-4.17.46-8.68.64-12.15,3.29-3.78,2.41-5.83,6.7-9.56,9.13C360.73,251.23,355.2,247,356,242m4.57,3.6c3.12,2.1,6-.67,8.16-2.73-1.82-.77-3.93-1.12-5.39-2.51-1.2-1.82-1.55-4.59-.1-6.37,1.84-2.28,5.78-1.36,7.18-4.11-8.07-1.48-14.25,9.38-9.85,15.72m5.23-10.14c-1.24,2.67,2,4.9,4.38,5.08,4-1.56,7.7-3.86,11.53-5.82a26,26,0,0,0-8.48-.47c-1,2.07-1.86,4.6-4.57,4.63-.07-1.82-.08-3.66-.11-5.49-.9.68-2.3.92-2.75,2.07m-29.48,13.79c3.49-5.07,9.28-8,15.08-9.58-2.8,14.44-.5,30.15,7.63,42.56,3.07,4.85,7.66,8.42,11.7,12.42a16.36,16.36,0,0,1-11.92,6.72c-.39-.31-1.19-.95-1.6-1.26.79-2.43,1.86-4.75,2.8-7.13-4.49.73-8.93,1.88-13.49,2,2.26-3.56,5.76-6.78,5.46-11.36-3.89,1.51-8.16,2.3-12.26,1.07,3.06-3.05,7.59-5.48,8.08-10.22-3.63-.39-7.25-.88-10.82-1.63,3.15-4.13,7.47-8.1,7.26-13.75a33.93,33.93,0,0,1-9.85-.66c.18-3.12,0-6.55,1.93-9.21m42.57-7.83c3.48-1.76,7.51-1.24,11.27-1-4.15,1.29-9.06.66-12.46,3.81-4.84,4.12-3.11,11.74-7.54,16.23-2.44,3-6.62,2.77-10.06,2.18.14-2.33-.71-5.16,1.12-7,2.63-2.92,6.14-4.81,9.09-7.38,2.84-2.28,5.27-5.17,8.58-6.8m6.39,1.94c7.17-2.86,14,2.34,21.11,3a35,35,0,0,1-2.14,9.53c-3.44-2.28-4.74-6.5-7.95-9s-7.29-2.59-11-3.48m-2.63,6.92c3.6-2.9,9.71-3.28,12.87.48,2.51,2.67,3.42,6.32,4.17,9.81-4.53,1-9,2.24-13.44,3.62-5.1,1.55-10.49,1.12-15.73,1.45,4.72-4.59,6.79-11.33,12.13-15.36m4.75,17.23c4.93-.64,9.17-3.38,13.85-4.89a35.75,35.75,0,0,1-7.95,13c-1.84-1.9-3.36-4.89-6.43-4.57-6.21-.25-13.21-.72-18.59,3-4.07,3.28-1.95,10.14,2.86,11.34a26.54,26.54,0,0,0,11.53-.06c3.36-2.09,5.61-5.6,9.14-7.52-1.85,4-5.14,7.39-6.09,11.85-.73,2.2-.77,4.81-2.47,6.56-2.24,2.76-6.4,2.29-9.38,1.18-1.45-2.05-1.6-4.66-2.67-6.87-2.75-2.37-6.25-4.08-8-7.45-2.23-3.7-1.66-9.37,2.4-11.58,6.62-3.83,14.56-2.32,21.76-4M370.85,276c4.5-2.59,10-2.22,14.87-.94,2.06.29.81,2.92,1,4.23-5-2.44-10.38-3-15.83-3.29M273.38,388.68c9.08-4.73,19.81-2.29,29.09.58,5.47,2,11.4,1.28,17.08,2.16,8.25,1.64,16.74,1.16,25,2.86a85,85,0,0,1,23.92,4.17c5.87,2.21,12.17,2.51,18.39,2.3,4.9.17,8.49-4.16,13.33-4.38,3.14-.46,5.72,2.18,8.84,1.89,2,.06,4.47-.53,6.05,1.15,1.68,2.26,2.57,5,4.21,7.3,2.79,2.09,6.83,2.45,8.85,5.56a47.86,47.86,0,0,1,5.6,11.25l-3.58.2c-4.85-5.49-9.83-10.87-14.38-16.62a27.94,27.94,0,0,0-4.29-4.27,27.73,27.73,0,0,0,2,7.39c-2.84-2.63-5.4-5.52-8.21-8.16-1.37-1.64-3.69-1-5.55-1.27-.6,5.11,5.19,7.75,5,12.72-5.07-.26-8.93-3.88-13.58-5.45a55,55,0,0,0-17.82-2.47c-4.36.15-8.06-2.47-12.13-3.57a124.52,124.52,0,0,0-26.49-3.76c-9.77-1.55-19.69-.68-29.54-1.19-7-.19-13.5-3.56-20.5-3.71-3.8.56-7.95,1.35-10.8,4.15-3.91,4.33-2.89,11.3.74,15.47,3.37,3.82,8.56,5.28,13.4,6.13,9.84.93,19.72-.05,29.58.18s19.9-1.6,29.91-1.38c7.09-.37,14.18,0,21.28.26-.29-.55-.86-1.65-1.15-2.19-5.35-2.36-11.29-2.65-17-2.82q-24.21-.48-48.44-.17c-5.47.06-12.1,1.5-16.31-3-2.42-2-3.06-6.21-.63-8.41,6.72-2.23,13.91-.47,20.76.21,10.36,2.13,21.06.74,31.44,2.77a205.42,205.42,0,0,1,26.77,4.6c11.57,2.5,24.79.74,34.57,8.66a13,13,0,0,0,10.33,3.69c.1-2.76.29-5.49.6-8.23a97.18,97.18,0,0,1,9.87,3.22c4,1.4,6.23,5.34,7.79,9-45.88.63-91.79,0-137.67-.08-7.46-.77-15.5-2.12-21.31-7.27C263,413.6,261.07,405.68,263,399c1.49-4.93,5.85-8.26,10.35-10.33M63.07,443.28c.49-2.74,3.71-2.06,5.75-2.35q175.49,0,351,0c9.15.24,18.35-.57,27.45.59,0,.62.08,1.86.12,2.48-126.53.19-253,0-379.57.11-1.56-.21-3.5.36-4.73-.84M395,452.48l4.07.37a10.82,10.82,0,0,1,.32,6.1l-5.62-.22a6.84,6.84,0,0,1,1.23-6.25M95.17,455.17c3.49-.09,7-.1,10.48-.12.36,8.32-.57,16.71.63,25a73,73,0,0,0,17.29.41c13.35.26,26.75.75,40.08-.14,0-.69-.15-2.06-.2-2.75-1.81-.95-3.65-2.13-5.79-2-11.37-.08-22.76.08-34.14,0-3-.24-6.88.08-8.82-2.84-2.45-3.64-.94-8.23-.79-12.27a3.3,3.3,0,0,0-1.36,2.6,52.32,52.32,0,0,0,.94,11.09c-8-2.28-6.64-14-.52-17.68,3.47-3,8.15-.86,12.15-.54a20.64,20.64,0,0,0-2,5.89c.89,1.77,2.45,3.3,4.58,3.11,11.72.32,23.47-.22,35.21.19a13.08,13.08,0,0,1,10.71,6.61c1.88,5.33.94,11.13,1.13,16.67a71,71,0,0,1-8.86.66c-16.52-.06-33,0-49.55,0-6.15,0-12.49.44-18.43-1.48-2.41-.92-3-3.73-2.83-6,0-8.79-.07-17.57.1-26.34m317.77-.09c3.54,0,7.08,0,10.63,0,.16,8.17-.08,16.33.15,24.51,5.15,1.59,10.57,1.37,15.83.58a133,133,0,0,0,.21-15.07c3.43-.14,6.87-.15,10.31-.09.07,7.83.38,15.67-.2,23.5-6.55.83-13.17.42-19.75.52a54.49,54.49,0,0,1-13.6-1.23c-3.42-.47-3.52-4.61-4-7.27a175.62,175.62,0,0,1,.39-25.44m-217.4.24a89.27,89.27,0,0,1,10.85,0c.46,8.22-.09,16.44.35,24.66,2.19.26,4.39.5,6.6.7A73.11,73.11,0,0,0,213.2,465c3.44,0,6.88,0,10.32.21,1.63,4.87,1.48,10,1.47,15.11,1.62.05,3.24.15,4.86.26a48.12,48.12,0,0,0-.54-15.61c3.58,0,7.17,0,10.76.27,1.09,4.85.68,9.85.8,14.78h5.53a103.48,103.48,0,0,0-.56-15c3.43.07,7-.41,10.3.59,1.41,1.9,1.13,4.37,1.21,6.6,0,5.41-.06,10.82,0,16.24-6.36.95-12.8.57-19.2.61-10.68-.1-21.38.22-32-.12-3.84-.54-9.74-.28-10.33-5.39-.83-9.34-.33-18.79-.21-28.16m65.39-.05c3.54-.16,7.08-.16,10.62,0,.34,8.07.13,16.14.13,24.21,6.79,1.22,13.73.54,20.59.51.11-4.94.14-9.89,0-14.82q5.28-.28,10.56-.06c-.12,7.77-.06,15.55-.05,23.32-6.7,1-13.48.51-20.23.61-6.17,0-12.5.4-18.48-1.45-2.68-1.13-3.2-4.43-3.2-7-.06-8.42-.07-16.86.09-25.28m67.83,3.37c2.23-2.65,6-2.42,9.08-3.15-1.68,2.95-3,6.4-.43,9.3,12.34.48,24.71-.05,37.06.23a13.41,13.41,0,0,1,11.68,6.74c1.1,2.59,1,5.45,1.26,8.19a102.2,102.2,0,0,0,11.07,0c.1-4.95.13-9.9,0-14.85,3.57-.16,7.14-.16,10.73,0-.07,7.77,0,15.55-.07,23.33a65.07,65.07,0,0,1-16.2.32c-2-.22-3.53-1.65-5.06-2.82-1.24,1.7-2.88,3.35-5.19,3.08-16.19.09-32.37-.06-48.57,0a75.12,75.12,0,0,1-10.17-.58c0-2.59,0-5.16,0-7.73,10.62.07,21.24-.2,31.86,0,6.8-.47,13.64.23,20.41-.69,0-.62-.09-1.86-.12-2.49-1.81-1-3.65-2.17-5.8-2-11.37-.07-22.76,0-34.13,0-3.08,0-6.61-.22-8.6-2.93-3.88-3.9-2.13-10.34,1.2-14M67.17,465.17A87,87,0,0,1,84.32,465c3.76.19,6.52,3.83,6.8,7.4.39,5.33.06,10.69.1,16-6.75.89-13.57.59-20.35.54-2.56-.29-5.47-.3-7.58-1.94-1.55-2.42-1.17-5.45-1.51-8.17,6.44,1.86,13.25,1.33,19.85,1-.38-1.55-1-3.25-2.67-3.7-3.93-.88-8-.22-11.86.74,0-3.9,0-7.79.07-11.69m114.58-.24c3.41-.21,6.84-.23,10.25-.12.18,7.64.19,15.27.11,22.92.2,4.23-3.27,7.37-6.77,9.06-3.52,2-7.73,1.33-11.46.45,2-1.61,4.26-3,5.94-5,1.91-2.45,2-5.69,2-8.66,0-6.22-.06-12.43-.1-18.66m95.73,26.89a8.41,8.41,0,0,1,7,1.69c1.72-1.46,4.81-3.15,6.44-.74,1.49,1.83-.14,3.71-1.4,5.1-1.9.45-3.51-.83-5.09-1.64a11.45,11.45,0,0,1-6.66,1.62c-.14-2-.23-4-.26-6m16.19-.24,4.6.05a9.76,9.76,0,0,1-.3,6.2c-1.38.05-2.75.13-4.11.21a5.43,5.43,0,0,1-.19-6.46m140.65.31c2-.06,4-.08,6,0,0,2-.1,3.94-.2,5.92-1.85-.21-4.65,1.06-5.48-1.28-.83-1.4-.18-3.1-.28-4.6M63.12,508.82q192.08-.1,384.13,0c0,1,0,2.11,0,3.17q-192.07,0-384.14,0v-3.14Z" style="fill:#f0c239"/></svg>