<?xml version="1.0" encoding="UTF-8"?>
<svg id="Layer_1" xmlns="http://www.w3.org/2000/svg" version="1.1" viewBox="0 0 512 512">
  <!-- Generator: Adobe Illustrator 29.2.1, SVG Export Plug-In . SVG Version: 2.1.0 Build 116)  -->
  <defs>
    <style>
      .st0 {
        fill: #522d1d;
      }

      .st1 {
        fill: #cf9d2a;
      }
    </style>
  </defs>
  <path class="st1" d="M109.5,75.5h292.1c5,2.3,10.1,4.6,15,7.4,7.9,4.5,13.3,12.5,16.5,20.9,3.6,9.6,2.5,20,2.6,29.9v259.3c0,15.4-7.4,32-22.1,38.6-10.2,5.4-22.1,4.2-33.2,4.3-75.8,0-151.5,0-227.3,0-15.3.2-30.7,1.8-45.9-1-17.5-4.6-31.5-21.5-30.9-40-.2-92.1,0-184.2,0-276.3,0-8.1,1.8-16.4,6.7-23.1,6.4-9.4,16.6-15.2,26.6-20M107.2,91.5c-13.3,6.8-21.4,21.7-21.1,36.5.2,47.6,0,95.3,0,142.9,5.1-6.9,8.7-14.7,13.2-22,10.1-16.2,22-31.7,37.1-43.6,19.8-16.2,46.5-24.2,71.9-19.7,20.4,5.1,38.8,15.6,57.4,25,25.5,13.6,50.6,28.4,77.9,38.5,15.4,5,32.6,9.6,48.3,3.3,14.2-5.3,22.9-19.2,27-33.1,3.2-12,6.2-24.2,6-36.8,0-19.5,0-38.9,0-58.4.1-19.5-17.5-37.3-37-37.1-83.3.1-166.7.1-250,0-10.3.1-21.6-1.3-30.9,4.3M409.3,269.6c-11.2,17.7-25.7,33.7-43.5,44.8-18.4,11.1-40.8,16.5-62,12.4-22.9-5.4-43.4-17.4-64.2-27.9-29-15.2-57.8-32.6-90.3-39.3-15.4-3.6-33.6-.3-44.2,12.1-12.4,13.8-15.3,33-18.4,50.7-1.1,20.4,0,40.8-.5,61.2-.8,15.8,8.5,31.8,23,38.4,9,4.5,19.3,3.2,29,3.3h236.7c8.3-.1,17,.7,25-2,15.2-5.6,26.3-21.5,25.4-37.8-.2-47.1.3-94.2-.3-141.3-5.9,8-9.9,17.2-15.6,25.4h0Z"/>
  <path class="st0" d="M107.2,91.5c9.3-5.6,20.5-4.2,30.9-4.3h250c19.5-.2,37.2,17.6,37,37.1,0,19.5,0,38.9,0,58.4.1,12.5-2.8,24.8-6,36.8-4.1,13.9-12.9,27.8-27.1,33.1-15.7,6.3-32.9,1.7-48.3-3.3-27.2-10.1-52.3-24.9-77.9-38.5-18.6-9.5-37-19.9-57.4-25-25.4-4.6-52.1,3.5-71.9,19.6-15.1,11.9-27,27.4-37.1,43.6-4.5,7.3-8.1,15.1-13.2,22,0-47.6,0-95.3,0-142.9-.4-14.8,7.7-29.7,21-36.5"/>
  <path class="st0" d="M409.3,269.6c5.7-8.1,9.7-17.4,15.6-25.4.6,47.1,0,94.2.3,141.3.9,16.4-10.1,32.3-25.4,37.8-8.1,2.7-16.7,1.8-25,2-78.9,0-157.8,0-236.7,0-9.7-.1-20,1.2-29-3.3-14.5-6.6-23.8-22.6-23-38.4.4-20.4-.6-40.9.5-61.2,3.1-17.6,6-36.9,18.4-50.7,10.7-12.4,28.8-15.7,44.2-12.1,32.5,6.7,61.2,24.1,90.3,39.3,20.8,10.6,41.2,22.6,64.1,27.9,21.3,4,43.7-1.4,62-12.4,17.9-11.1,32.3-27.1,43.5-44.8"/>
</svg>