<?xml version="1.0" encoding="UTF-8"?>
<svg id="Layer_1" xmlns="http://www.w3.org/2000/svg" version="1.1" viewBox="0 0 512 512">
  <!-- Generator: Adobe Illustrator 29.2.1, SVG Export Plug-In . SVG Version: 2.1.0 Build 116)  -->
  <defs>
    <style>
      .st0 {
        fill: #2e428d;
      }
    </style>
  </defs>
  <path class="st0" d="M243.1,44.5h4.2c1.3,41.3,2.8,82.7,4.2,124,2.4.4,3.5-2.9,5.1-4.4,1.7-2.8,5.8-4.6,5.7-8.3V44.5h3.9c6,.7,11.9,1.1,17.9,1.8-1.2,28.2-2.7,56.5-4,84.7-.7,8.1-.4,16.2-1.4,24.3,4.3-2.1,9.2-2.8,13.9-1.9,3.6-34.6,7.1-69.3,10.6-103.9,6.6,1.7,13.1,3.8,19.6,5.6-5.2,36.3-10.9,72.5-16.2,108.8,4.3-.5,8.8-1,13.1.2,6.7-34.1,13.4-68.3,20.3-102.4,6.6,3.4,13.2,6.9,19.7,10.5-7.6,31-15.3,62-23,92.9-.9,3-1.6,6.2-2.1,9.3l.7,1.2c3.1,1.5,6.5,2.4,9.4,4.2,9.9-33.1,19.6-66.2,29.7-99.2,5.5,4.1,10.9,8.3,16.4,12.3-16.5,48.8-33.6,97.5-50.2,146.3-.6,2.3.2,4.6.4,6.9.7,4.2.7,8.5,1.5,12.6l1.1.8c1.9-3.7,3.5-7.6,4.9-11.5,19-47.4,37.9-94.7,56.9-142,4.9,5,9.6,10.2,14.5,15.2-21.6,47.1-43.5,94.2-65.3,141.3,2,2.6,4.8,5.9,3.1,9.4-2.7,4.3-7.9,6.4-10.1,11.1-1.2,3.4,0,7,.9,10.2.9-1.4,1.7-2.7,2.4-4.1,26.5-51.2,53-102.4,79.5-153.7,4,6.1,7.5,12.6,11.4,18.8-28.8,49.7-57.7,99.4-86.7,149,1.6,1.2,3,3.1,5,3.7,1.4.3,2.2-1,2.9-2,28.9-44.5,57.9-88.9,87-133.4,2.3,6.3,5.1,12.6,6.7,19.1-2.2,3.8-5.1,7.2-7.6,10.8-25.7,35.8-51.5,71.7-77.3,107.6-2.6,3.7-6.4,7.4-5.2,12.4.2,2.8,3.8,2.1,4.9.2,30.1-38,59.8-76.4,90.2-114.3,1.3,7.4,2.7,14.8,4,22.2-36.6,42-73.2,84.1-109.9,126-1,1.4-3,3.4-1,4.9,1.4.2,2.9.2,3.9-1,35.8-36.7,71.5-73.4,107.3-110.1v16.9c-.2,1.2.3,2.9-.8,3.8-33.9,32-67.8,64-101.7,96-2.8,4.3-7.3,6.7-10.7,10.5-12.9,12.6-25.6,25.2-38.4,37.8,1.4,0,2.8,0,4.1,0,36.2-32,72.4-63.9,108.7-95.7,12.2-10.5,23.9-21.4,36.3-31.7-1.1,6.6-2.4,13.1-3.7,19.7-.5,2.9-3.5,4.2-5.5,6-42.7,34-85.7,67.7-128.3,101.8,1.6-.3,3.5.2,5-.7,40.9-29.3,81.4-59.1,122.4-88.1-1.7,4.9-3.8,9.6-5.7,14.5-.9,2.1-1.5,4.5-3.6,5.7-20.8,13.8-41.6,27.5-62.5,41.2-13.7,9.2-27.7,17.9-41.2,27.3,1.6-.2,3.2-.6,4.6-1.4,16.9-10.1,34-19.9,50.9-29.9,14-7.9,27.5-16.4,41.6-24-7,13.1-16.2,24.8-26.5,35.5-3.1,3.4-6.9,6-9.8,9.5,1.8,3.4,5.4,5.3,7.5,8.4.4,18.4,0,36.8.1,55.2H107.3c0-17.5-.1-34.9,0-52.4,2.4-2.2,4.9-4.5,7.2-6.8-10.8-9.9-20.7-20.6-29.9-32-3.4-4.3-6.5-8.9-9.2-13.7,32.7,16.7,65.3,33.8,97.9,50.7,1.2.5,2.4.8,3.7,1-4-3.1-8.6-5.4-12.9-8.2-31.5-19.1-62.9-38.2-94.4-57.3-1.4-.7-2.5-1.9-3.2-3.3-2.4-5.3-4.8-10.7-7.1-16.1,17.4,11.1,34.5,22.7,51.7,33.9,24.9,16.5,49.9,32.9,74.8,49.4,1.4.9,3.1,1.4,4.8,1.5-3.8-3.3-8-6.1-12-9.1l-125.2-91.7c-2-7.6-4.1-15.3-5.3-23.1,49.9,40.8,99.6,81.7,149.3,122.7,1.5,1.2,3.5.7,5.2,1-33.9-31.4-68.1-62.4-102.1-93.7-18.3-16.6-36.3-33.5-54.8-50,0-6.3-.1-12.6,0-18.9,7.9,7.2,15.2,15.2,22.9,22.6,46.6,46.7,93.2,93.3,139.8,139.9h2.6c0-.1-135.3-147.8-135.3-147.8-9.6-10.6-19.5-21-28.9-31.7.8-7.8,2.4-15.5,3.8-23.1,55,67.5,110.1,135.1,165.1,202.6h3.1c-54.9-73.3-109.8-146.6-164.8-219.8,2.5-6.4,4.9-12.9,7.4-19.3,18.5,26.8,36.5,54,54.9,80.9,35.6,52.7,71.2,105.4,106.8,158.1h2.8c-52.4-85.3-104.9-170.5-157.3-255.7,4-6.7,8-13.4,12.1-20.1,29.3,53.4,58.5,106.8,87.6,160.3,1.9-1.7,4.2-3,6.5-4-7.5-14.6-14.5-29.4-21.9-44-2.7-1-5.6-2-7.5-4.3s-2.6-5.1-3.3-7.9c-.7-3.5-3.7-5.9-4.8-9.3-.4-4.4,1.9-9.4-1-13.4-15.4-30.2-30.3-60.7-45.4-91.1,4.7-5.4,9-11.1,13.9-16.3,4,9.2,7.9,18.3,11.8,27.5,1.2-2.5,2.4-5.6,5.3-6.7,2-.3,4.6-.5,6,1.3,3.3,4,6.1,8.5,9.5,12.5-6.2-16-12.3-32-18.5-48,5.5-4.3,11-8.8,16.5-13,6.7,19.6,13.5,39.2,20.2,58.9.8-2.2,1.9-4.3,3.1-6.3,1.7-2.2,4.5-2.9,7-3.9-5.3-19.3-10.5-38.6-15.7-57.9,6.8-3.5,13.7-7.1,20.6-10.5,4.6,23.1,9.2,46.3,13.7,69.5.6,4.4,5.4,7.3,5,12.1,0,2.4-2.3,3.7-3.7,5.2l-3-1.2c.7,6,.7,12,1.3,17.9,1.5,3.7,6.3,4,9.8,4.6,5.1.5,9.8,2.6,13.6,6,2.5,2,4.6,4.8,7.7,6.1,1.9-.5,3.7-1.4,5.5-1.8,2.3.4,4.3,1.8,6.4,2.8,4.5-1.4,9-3.1,13.2-5.2,2.7-1.4,3.5,2.4,4.8,3.9.8-1,2.1-1.9,1.7-3.3-.2-5.9-2.4-11.6-2.1-17.6-.1-5.5.6-11,2.3-16.3-2.3.8-5.1,4.3-7.4,2.1-3.4-4.2-5.3-9.4-5.2-14.9l-5-.6c4.5-6.8,1.8-15.1,1.2-22.5-1.5-21-2.9-42-4.3-63,5.7-.4,11.4-.9,17.1-1.5M121.5,137.2c-1.1,6.7.8,13.4,2,20,.7,5,4.3,8.9,5.6,13.6,2.1,5.1,1.7,11,4.7,15.6,2.4,4.2,6,7.5,9.1,11.1,1.9,2.1,2,5.2,2,7.9,0,7.3-3.2,14-4.2,21.1-.9,5.2,5.4,7.3,5.6,12.1.3,1.7.7,3.7,2.2,4.9,2.9,2.4,7,2.3,10.5,3.5,4.9,1.6,10.1,4.4,12.3,9.4.6,3.5-.3,7,.4,10.5,1.3,2.1,2.4,4.3,3.4,6.6,1.4,4.1.7,8.5,1.6,12.7.5,1.7,1.3,3.9,3.4,4.1,4-1.2,4.5-7.5,9.2-7.6,2.8-.4,2.4,3.7,4.7,4.4,3.6,1,7.9.1,10.7,3,1.9,1.6,2.3,4.1,2.9,6.3,2.4,9.1,7.1,17.4,13.6,24.1,2.1,2.3,5.3,2.7,7.9,4.1,3.4,1.6,5.9,4.9,9.8,5.5,8.2,2.1,14,10.8,23.1,9.6,7.6-2.3,13.6-9.1,22-9.2,3.7-.2,7.3,1.4,9.6,4.4,4,4.4,5.1,10.5,9,14.9,1.3,1.6,3.4,1.9,5.4,1.8,9.6-.1,19,1.8,28.5,3.4,4.6.7,8.6,3.1,13.2,4,2.4-8,2.2-17.3,7.9-24,3.3-4.4,8.9-5.9,14.1-6.2-2.6-1.1-5.9-1.2-7.8-3.6-2.2-4.3.9-10.5-3.3-13.9-4-2.7-8.3-5.1-11.4-8.8-5.8-6-7.4-15-5.5-22.9,2.5-4,7.7-5.2,10.4-9,1-1.6.8-4.3-1.2-5-4.3-1.7-9.8.1-13.4-3.2-3.5-4.4-1.3-10.4-2.6-15.5-.9-3.7-.4-7.4-.3-11.1-.2-4.5-6.1-6.3-5.7-11,0-8.8,9.1-13.8,10.8-22.1,0-2.4-1-4.8-1.1-7.2-.5-3.5.5-6.8,1.3-10.1.7-1.8-.7-3.4-2.3-4-3.5-1.7-7.3-3.1-9.5-6.5-1.4,0-2.8,0-4.2-.2-2.7-2-4.9-4.7-7.9-6.2-4.1-.5-8.4,1.2-12.5-.1-6.1-1.8-10.5-6.6-14.6-11.2-2.5,0-5,0-7.5.1-4.7,3.7-11.1,4.3-16.3,1.5-4,4.7-8.2,9.2-12.6,13.4-1.2,1.4-3.1,1-4.7,1,1.1,2.3,1.4,4.8.9,7.3-1.7,2.9-4.2,5.3-7.2,6.8-1.1-1.3-2-2.6-2.9-4-4.8-.3-9,2.3-13.6,3.1-2.2.7-4.2-.7-6.3-1.1-3.2.6-6.9,2-9.7-.5-4-3.7-7.9-8.1-13.5-8.9s-11.9-2-15.8-6.5c-3.3-3.9-.3-9.2-2.3-13.5-3.3-.3-7.8,1.2-9.9-2-1.6-5.3.3-10.9-.6-16.3-.1-1.1-1-3.3-2.4-2.2-4.2.9-5.2,5.5-8.3,7.9-4,3.4-8.7,5.7-13.8,6.9-2.9.6-6.7.4-8.4-2.4-3.4-5.3-6.2-11.6-12.1-14.6-1.2,1.2-2,2.8-2.3,4.5M188.4,288c-1.6,3-3.7,6.2-7.3,6.5-.3,1.3.1,3.7-1.9,3.7-2.8.2-6.3.9-7.2,4,.3,3.7,4,5.6,4.9,9,.4,2,.8,4.1,2.4,5.5,6.5,7,15.2,11.4,23.5,15.9.3,5.4,4.3,9.4,5.4,14.5.8,2.4-1.6,4.1-1.5,6.4.6,1.7,2.3,2.6,3.5,3.8.4,2.5,1.2,4.9,2.4,7.1-.2-2.8-.1-6.4,2.6-8,2.6-.5,4.6,1.8,6.3,3.3,2,2.2,4.6,4.3,5.3,7.4-.9,2-2.3,3.8-3.4,5.7,10.7-1.1,21.4-.8,32.1-.6,4.1-3,7.7-6.6,10.6-10.8,1.3-2.4,4.2-1.8,6.5-2.2.2-4.5,4.5-7,5.4-11.2.6-2.7,2.4-5,5-6.2,1.8-.7,3.4.6,4.9,1.4v15c0,1.7-.5,3.4-1.3,4.9,2.7,2.4,6.3,3.2,9.1,5.5,1.7,1.2,3.3,3,5.6,2.6,17.8-.6,35.6-.2,53.4-.7,2.7.5,5.3-1.2,5.9-3.9.1-.7.1-1.5,0-2.2-3.5,0-7.2.5-10.4-1.2-3-1.5-6.4-.9-9.5-1.8-10.6-4.7-22.5-3.7-33.7-4.7-5.8-.3-9.5-5.5-11.9-10.3-2.2-4.2-4-9.9-9.3-10.9-6.3,0-11.9,3.5-16.9,6.9-5.7,2.5-12.3,2.6-18.1.2-3.4-2.4-6-6-10.1-7.2-2.2-.5-5,.4-6.5-1.7-3.9-4.2-9.3-6.2-14.3-8.7-3.9-3.5-7.2-7.6-9.9-12.1-3.8-6.1-5.7-13.1-8.1-19.8-2.7-.6-5.4-.5-8.1-1-2.3-.4-3.9-2.2-5.5-3.8M182.9,325.9c14.8,27.9,29.6,55.8,44.3,83.7,1.2,2,1.8,5.4,4.9,5-13-27.7-26.2-55.2-39.3-82.9-2.6-2.8-6.6-3.9-9.9-5.9M278,358.2c-2.6,18.9-5.4,37.7-8,56.6l1.5-1c4.2-22.5,8.2-45,12.3-67.5-3.3,3.1-5.4,7.3-5.9,11.9M216.7,360.3c-1.1,3.6-.8,7.6.7,11,5.9,13.8,11.6,27.6,17.4,41.5.3,1.1,1.3,1.8,2.4,1.7-4.3-12.5-8.7-25-13.3-37.4-2-.7-3.5-2.1-4.3-4.1.8-2.1,1.2-4.4,1-6.7-.5-2.4-2.3-4.3-4-6M266.7,366.3c-.8,16-1.6,32-2.6,48h2.4c1.1-17.2,3.1-34.3,4.2-51.4-1.7.5-4.3,1-4,3.3M286.9,368c-3.9,15.6-8.2,31-11.7,46.6l1.9-1c4.4-14.5,8.4-29.2,12.7-43.7l-2.9-1.9M294.7,373.5c-4.6,13.6-9.5,27.1-14.3,40.7h2.4c4.6-13,9.4-25.8,14.3-38.5-.8-.7-1.6-1.5-2.4-2.2M256.4,376.4c0,12.6.4,25.1.2,37.7,1.2,0,2.5,0,3.8.1,0-13.5-.1-27,0-40.5-1.4.9-2.8,1.7-4.1,2.7M313.5,374.7c-7.7,13.2-15.4,26.3-22.9,39.7l2.4-.4c8.5-12.9,16.3-26.2,24.5-39.2h-4.1M323.6,374.8c-9,13.1-17.8,26.3-26.8,39.4h3.5c9.9-13.2,20-26.3,29.9-39.5h-6.7M305.4,414.2h3.2l37.3-39.8c-2.3,0-4.6,0-6.8-.1-11.3,13.3-22.5,26.6-33.7,40M302.7,375.5c-5.8,12.9-11.7,25.8-17.6,38.6h2.4c6.5-12.9,13-25.9,19.7-38.7h-4.6M238,376.4c2.7,11.7,5,23.4,7.5,35.1.4,1.2.3,3.1,2.3,3.1-1.7-12.8-4.1-25.5-6.1-38.2h-3.7M247.1,376.4c1.4,12.6,2.5,25.2,3.9,37.8h2.1c-.5-12.6-1.7-25.2-2.2-37.8h-3.8M229.5,377.2c3.6,12.2,7.3,24.5,10.7,36.8l2.4.2c-3.4-12.3-6.7-24.7-10.1-37h-3.1M114.2,420.7c0,13.4,0,26.8,0,40.3,96.4.2,192.8.2,289.2,0,0-13.4,0-26.9,0-40.4H114.2M188,56.4c6.2-2,12.4-4.2,18.7-6.1,3.3,26.1,6.7,52.2,9.8,78.3-5.6,0-11.3,0-16.9,0-3.9-24-7.8-48-11.6-72.1M222.7,207.4c8.3-8.4,20.4-12.2,32-12,16.8,0,33.1,8.6,43.4,21.8,3.9,4.6,6.7,10,8.1,15.9,2.4,11.1,1.9,22.7,1.5,34,0,2.2-.1,4.6,1.2,6.5,3.7,5.4,9.9,8.4,15.6,11.2-2.4,4.3-5.1,8.5-7.6,12.8-4.9-2-9.8-4.5-13.7-8.2-5.5-5.9-9-13.3-10.1-21.3-1.4-1-2.9-2.1-4.3-3.1,1.5-3.3,2.5-6.8,3-10.4,1.7-.3,3.5-.7,5.2-.9.3-6.1-.3-12.3-2-18.2-1.6.6-3.1,1.1-4.7,1.7-1.3-3.8-3.3-7.3-5.8-10.3l2.8-2.9c-3.8-5-8.7-9.2-14.2-12.3l-3.1,4.1c-3-1.3-6.2-1.7-9.3-2.6-.3-1.6-.5-3.3-.6-5-6.1-.2-12.3-.3-18.4.9.2,2,.4,3.9.6,5.8-3.5,1.9-7,3.6-10.5,5.3-3.1-4.3-6.4-8.4-9.3-12.7M184.7,214.2c2.3-4.4,4.8-8.7,7.3-13,5.5,1.8,10.2,5.3,14.8,8.9,6.2,5.3,8.3,13.9,8.1,21.8l4.4,2.1c-1,3.5-1.6,7.1-2.3,10.7h-4.8c-.5,6.6.1,13.2,2,19.5,1.5-.4,3-.8,4.5-1.2,1.5,3.1,3.4,5.9,5.6,8.5-1.4,1.2-2.9,2.4-4.3,3.6,3.7,5.4,8.8,9.6,14.7,12.3l3-3.7c3.1,1.2,6.2,2.3,9.4,3.4.2,1.7.4,3.3.5,5,6.4.9,12.9.5,19.1-1.2-.4-1.7-.7-3.5-1.1-5.2,3.6-1.5,7.1-3.1,10.7-4.7,2.8,4.1,5.5,8.2,8.5,12.1-12.2,8.7-27.6,11.7-42.2,8.1-10.8-2.6-20.8-8-28.8-15.7-10.3-11.1-13.1-26.9-12.8-41.5-.2-6.2,1.2-12.9-1.5-18.7-3.6-5.2-9.5-8.1-14.9-11.1M244.5,213c4-.1,8.1-.2,12.1-.2,0,1.6,0,3.3,0,4.9,4.2.6,8.3,1.7,12.3,3.2l3.1-3.8c3.4,2.1,6.6,4.5,9.6,7.1-1.3,1.2-2.6,2.4-3.9,3.6,3.9,3.5,6.7,8.1,8.1,13.2,1.7-.2,3.5-.4,5.2-.5.3,3.9.3,7.8.3,11.6l-4.4.5c-.4,4.7-1.5,9.2-3.4,13.5,1.2.9,2.4,1.8,3.6,2.7-2.8,2.9-5.5,5.9-8.4,8.7-1-1-1.9-1.9-2.8-2.8-3.7,3.6-8.2,6.1-13.1,7.6.3,1.2.6,2.4,1,3.6-4,1.1-8.2,1.3-12.3.6v-2.8c-5-.8-9.8-2.6-14.1-5.2-.7,1.1-1.4,2.2-2.2,3.3-3-2.1-5.9-4.4-8.5-7,.8-1.1,1.7-2.3,2.5-3.5-3.2-3.4-5-7.7-6.5-12-1.5-.9-3.5-.2-5.2-.5v-11c1.5,0,3.1,0,4.6-.1.3-4.3,1.6-8.5,3.7-12.2-1.2-1.3-2.5-2.7-3.8-4,2.3-3,4.8-5.9,7.6-8.4,1.5.7,3,1.4,4.5,2.1,3.1-3,7.1-4.7,11-6.5-.3-1.7-.5-3.5-.7-5.2M254.4,227.8c-.3,1.5-.6,3-.9,4.4-1.6-.9-3.1-1.7-4.7-2.4.7,2.3,2.2,4.2,4.3,5.4,0,2.4,0,4.9-.2,7.3-3.1-1.1-5.5-3.4-8.2-5.1,0,4.7,4,7.7,7.7,9.8v6.3c-4-1.1-7.3-3.5-10.6-6,.3,2.8.5,5.8,2.3,8.1,1.9,2.6,4.7,4.1,7.5,5.5,0,2,0,4.1,0,6.1-5.6-1.4-9.7-5.7-13.9-9.4.9,5.5,3.6,11,8.2,14.3,3.7,2.5,8.6,3.9,13,2.1,7.1-2.2,11.3-9.4,12.4-16.4-4.2,3.7-8.2,7.9-13.8,9.5,0-2,0-4.1,0-6.1,2.8-1.4,5.7-2.9,7.6-5.5,1.8-2.3,2-5.3,2.4-8.1-3.3,2.4-6.7,4.9-10.7,6,0-2.1.1-4.2.2-6.3,3.7-2.1,7.6-5.1,7.7-9.8-2.8,1.6-5.2,4-8.3,5.1-.2-2.4-.2-4.9-.2-7.4,2.1-1.2,3.6-3.1,4.3-5.4-1.6.9-3.2,1.7-4.8,2.6-.3-1.5-.5-2.9-.8-4.4h-.5M377.8,427.9c0-1.3,1.4-1.9,2.1-2.9l2.4,2.4c-.8.9-1.5,1.7-2.3,2.6-.8-.7-1.6-1.4-2.3-2.2M338.7,425.9c1.1.7,2.2,1.5,3.3,2.2l1.9-2.6c.8,1.1,2.5,1.8,2.6,3.2-.8.9-1.7,1.8-2.6,2.6l-1.9-2.7c-1,.8-2.1,1.6-3.1,2.4l-2.7-2.6,2.4-2.5M370,430.6c1-.9,2-1.9,3-2.8.3,5,.3,10,0,15,2.8,1.2,5.9,1.5,8.9.8-1-1.3-2-2.5-3.2-3.7.8-1.6,1.7-3.2,2.7-4.8,2.2,3.1,3.5,7.5,1.6,11.1-1,2.5-3.6,4.1-6.3,3.9-2.6.5-3.7-2.2-5-3.9-1.9,4.7-7.4,3.8-11.5,3.9-2.8,0-7,.5-8.1-3-.4-2.7-1.2-6.4,1.2-8.5.5,1.7.1,4.4,2.3,5,4.6.4,9.3.4,13.9,0,.6-4.3,1.2-8.8.4-13.1M358.7,434.4c.2-2.8,3.1-3.9,5.3-4.9,0,1.5-.5,2.9-1.7,3.8.7,1,2.4,1.5,2,2.9,0,2.4-2.4,3.5-4.4,3.9.5-1.2.9-2.3,1.4-3.5-1-.7-1.8-1.4-2.7-2.2M176.3,430.8c3.2,0,6.6-.5,9.8.4,3.9,1.9,3.8,7.3,1.4,10.5,1.8,3.1,1.1,6.6,1.7,10h-3.8c-.5-2.6,0-5.3-1.1-7.8-1.5-.2-3-.2-4.5-.3v8c-1.2,0-2.4,0-3.5,0,0-7,0-13.9,0-20.9M179.9,434.9v5c2.2-.2,6,.5,5.8-2.8-.3-3-3.7-1.9-5.8-2.2M197.3,431.3c1.2-.2,2.4-.3,3.5-.3,1.8,6.7,3.4,13.6,5.1,20.4h-3.7c-.3-1.4-.6-2.7-1-4.1h-4.6c-.3,1.3-.6,2.7-.9,4.1h-3.5c1.6-6.6,3.1-13.3,5-20M199,437.1c-.5,2.2-.9,4.4-1.4,6.6h3c-.5-2.3-1-4.4-1.6-6.6M206.1,431.1c4,0,8.1-.1,12.2,0,0,1.3-.2,2.6-.3,3.9h-4.2c0,5.5.2,11-.1,16.5l-3.3-.2c0-5.4,0-10.8,0-16.2h-4.3v-4M268.6,430.9c1.1,0,2.2,0,3.4.1,0,2.4,0,4.9,0,7.3,1.7-2.4,3.3-4.9,4.9-7.4h4c-1.7,3.1-3.8,5.9-5.6,8.9,2.1,4,4,8,6,12h-4.2c-1.5-2.9-2.4-6.2-4.8-8.5-.3,2.8-.4,5.7-.3,8.5-1.1,0-2.2,0-3.4,0,0-7,0-13.9,0-20.9M315.5,433.5c1.1-1.1,2.3-2.1,3.5-3.1.4,4.3,0,8.5.6,12.8,3.5,1.4,7.8.8,11.5-.2-2.1-1.9-4.7-1.6-6.8.2.4-2.4.3-5.7,3-6.7,3.4.6,6.7,1.4,9.9,2.4-.3,1.4-.7,2.8-1,4.2l-1.5.8c2.5-.2,5.1-.2,7.6-.5-1-1.3-2-2.5-3.1-3.7.8-1.5,1.6-3.1,2.4-4.6,3.5,3.5,3.7,9.1.5,12.9-3.2,3.5-10.3,2-10.6-3.1-2,2-3.8,5-7,5-2.7,0-6.5.6-7.8-2.3-1.2-4.6-.9-9.4-1.2-14.1M386.2,433.4c1.1-1,2.3-2.1,3.5-3.1.4,4.1-.2,8.2.5,12.3.3,1.7,2.2,1,3.4,1.2,1.7,0,3.3-.1,5-.3-1-1.3-2.1-2.5-3.2-3.7.9-1.6,1.8-3.2,2.8-4.8,3.2,4.2,3.7,11.4-1.4,14.3-3,1-8.1,1.5-9.5-2.2-1.1-4.5-.6-9.2-1-13.8M118.5,431.8h11.8c0,1.3.2,2.7.2,4-1.5,0-2.9,0-4.4.1v16.1h-3.5c0-5.4,0-10.8,0-16.2h-4c0-1.3,0-2.7,0-4.1M133.7,431.9c3.8-.1,7.6,0,11.4,0,0,1.3.1,2.7.2,4-2.7.1-5.3.1-8,0v3.7h7.2v3.8c-2.4,0-4.7,0-7.1.1-.1,1.5-.1,2.9-.1,4.4h8.3v4c-4,0-7.9,0-11.8-.1,0-6.7,0-13.3,0-20M153.3,448c1-5.5,0-11.2.5-16.7l3.6.2c-.1,5.6.4,11.3-.3,16.8-.5,3.7-5.6,5.1-8.2,2.7-1.8-1.9-1.6-4.8-1.9-7.2h3.5c0,1.6.1,5.9,2.8,4.2M165.2,431.8h3.5c1.8,6.7,3.5,13.5,5,20.2h-3.5c-.3-1.3-.7-2.6-1-3.9h-4.6c-.3,1.3-.6,2.6-1,3.9h-3.5c1.7-6.8,3.3-13.5,5.1-20.3M166.9,438c-.5,2-.9,4-1.4,6.1h2.7c-.3-2-.8-4-1.4-6.1M224.4,431.6c3,0,6-.4,8.9.4,3.4,1.7,2.8,6.1,1.7,9.1,1.8,3.3,2.2,8.6-1.8,10.6-2.9.3-5.9.4-8.9.2v-20.2M227.8,439.2c1.6.2,3.3.2,4.9,0-.4-1.1.2-2.9-1.1-3.5-1.3-.2-2.6-.2-3.8-.1-.1,1.2-.1,2.4,0,3.7M227.7,443.3v4.8c1.6,0,3.2-.1,4.7-.5.6-1.3.6-2.8.2-4.1l-4.9-.2M243,431.7c1.3,0,2.6,0,3.9.2,1.4,6.7,3.3,13.3,4.8,20h-3.7c-.3-1.3-.6-2.6-.9-3.9h-4.7c-.3,1.3-.6,2.6-1,3.9h-3.5c1.6-6.7,3.3-13.4,5-20.2M244.9,437.8c-.6,2-1.1,4-1.6,6.1,1,0,2,.2,3,.3-.5-2.1-.9-4.2-1.3-6.4M253,431.9c1.2,0,2.4-.1,3.6-.2,1.8,4,3.4,8.1,5.1,12.2.3-4.1.4-8.1.3-12.2,1.1,0,2.2.1,3.2.2,0,6.6,0,13.3,0,19.9h-3.2c-2.3-4-3.5-8.5-5.6-12.6-.1,4.2,0,8.5-.1,12.8-1.1,0-2.2-.1-3.3-.1v-19.8M288.7,434.5c.9-.9,1.8-1.7,2.7-2.6l2.5,2.3c.9-.7,1.7-1.5,2.6-2.2.7,1,2.2,1.7,2.1,3-.8.9-1.6,1.6-2.4,2.4l-2.3-2.6-2.5,2.4c-.9-.9-1.8-1.9-2.7-2.8M301,437.3c4.4,2.5,2.9,9.9-1.6,11.6-4.1,1.7-9,1.4-13.3.6-4-2.1-3.2-7.6-2-11.1,2,1.1.8,4.5,3.4,5,4.5,1,9,.2,13.5,0-.8-.9-1.5-1.7-2.2-2.6.7-1.2,1.3-2.4,2.1-3.6M310.2,440.1c1.4,0,1.5,1.6,2,2.6,1.4,4.1,2,9.1-.5,12.9-2.1,2.6-5.8,1.3-8.4.3,2.9-2.3,5.6-4.8,8-7.5-1.1-1.3-2.2-2.7-3.4-3.9.7-1.5,1.4-3,2.3-4.4M327.1,455.8l2.8-2.7,2.8,2.9c-1,.9-1.9,1.8-2.9,2.7-1-1-1.9-1.9-2.8-2.9M393.6,453.8l2.8,2.4c-.9.9-1.9,1.7-2.8,2.6-.7-.8-1.4-1.6-2-2.4.6-.9,1.3-1.8,2.1-2.6"/>
</svg>